<svg xmlns="http://www.w3.org/2000/svg" xmlns:xlink="http://www.w3.org/1999/xlink" width="500" zoomAndPan="magnify" viewBox="0 0 375 374.999991" height="500" preserveAspectRatio="xMidYMid meet" version="1.0"><path fill="#314030" d="M 347.074219 146.359375 C 332.199219 70.800781 257.09375 25.136719 194.0625 19.3125 C 141.839844 14.488281 78.542969 27.648438 49.289062 76.078125 C 31.367188 105.753906 53.476562 118.816406 41.078125 184.492188 C 30.34375 241.335938 10.78125 261.816406 22.691406 290.785156 C 32.421875 314.472656 54.574219 324.851562 69.117188 332.011719 C 126.429688 360.238281 231.996094 357.996094 294.679688 306.511719 C 309.351562 294.460938 363.898438 231.824219 347.074219 146.359375 " fill-opacity="1" fill-rule="nonzero"/><path fill="#ffffff" d="M 149.265625 91.097656 C 157.820312 76.320312 176.730469 71.277344 191.507812 79.828125 C 206.285156 88.382812 211.335938 107.296875 202.78125 122.074219 C 194.226562 136.851562 175.3125 141.898438 160.535156 133.34375 C 145.757812 124.792969 140.710938 105.878906 149.265625 91.097656 Z M 128.875 89.570312 C 127.910156 92.226562 127.175781 94.925781 126.683594 97.648438 L 113.902344 100.515625 L 113.890625 112.527344 L 126.683594 115.425781 C 127.179688 118.171875 127.898438 120.875 128.839844 123.5 L 119.1875 132.390625 L 125.183594 142.796875 L 137.695312 138.917969 C 139.476562 141.03125 141.457031 143.007812 143.617188 144.828125 L 139.703125 157.351562 L 150.097656 163.367188 L 159.007812 153.738281 C 161.664062 154.699219 164.363281 155.433594 167.082031 155.925781 L 169.953125 168.710938 L 181.960938 168.722656 L 184.863281 155.925781 C 187.605469 155.433594 190.308594 154.710938 192.9375 153.769531 L 201.824219 163.421875 L 212.234375 157.429688 L 208.351562 144.914062 C 210.464844 143.132812 212.441406 141.152344 214.265625 138.992188 L 226.785156 142.90625 L 232.800781 132.511719 L 223.175781 123.605469 C 224.132812 120.949219 224.867188 118.25 225.363281 115.527344 L 238.144531 112.65625 L 238.15625 100.648438 L 225.363281 97.75 C 224.867188 95 224.148438 92.300781 223.207031 89.675781 L 232.859375 80.785156 L 226.863281 70.375 L 214.347656 74.257812 C 212.570312 72.144531 210.585938 70.167969 208.429688 68.34375 L 212.34375 55.824219 L 201.945312 49.808594 L 193.039062 59.4375 C 190.382812 58.472656 187.683594 57.742188 184.964844 57.25 L 182.09375 44.464844 L 170.085938 44.453125 L 167.183594 57.25 C 164.4375 57.742188 161.738281 58.460938 159.109375 59.402344 L 150.222656 49.753906 L 139.8125 55.746094 L 143.691406 68.257812 C 141.578125 70.042969 139.605469 72.023438 137.78125 74.179688 L 125.261719 70.269531 L 119.246094 80.664062 L 128.875 89.570312 " fill-opacity="1" fill-rule="nonzero"/><path fill="#a5c6a3" d="M 237.136719 336.222656 L 170.164062 336.222656 L 135.597656 275.71875 L 135.597656 328.5625 C 135.597656 336.828125 141.625 343.4375 148.933594 343.4375 L 237.136719 343.4375 C 238.558594 343.4375 239.835938 342.445312 239.835938 341.019531 L 239.835938 338.65625 C 239.835938 337.230469 238.558594 336.222656 237.136719 336.222656 " fill-opacity="1" fill-rule="nonzero"/><path fill="#ffffff" d="M 145.421875 294.730469 L 145.421875 324.695312 C 145.421875 330.769531 150.238281 335.621094 156.3125 335.621094 L 213.976562 335.621094 L 213.976562 294.730469 L 145.421875 294.730469 " fill-opacity="1" fill-rule="nonzero"/><path fill="#000000" d="M 146.023438 295.328125 L 146.023438 324.695312 C 146.023438 330.484375 150.542969 335.019531 156.3125 335.019531 L 213.375 335.019531 L 213.375 295.328125 Z M 214.578125 336.222656 L 156.3125 336.222656 C 149.867188 336.222656 144.820312 331.160156 144.820312 324.695312 L 144.820312 294.125 L 214.578125 294.125 L 214.578125 336.222656 " fill-opacity="1" fill-rule="nonzero"/><path fill="#a5c6a3" d="M 326.878906 297.492188 L 45.703125 298.105469 C 43.246094 298.105469 41.171875 296.277344 40.859375 293.832031 L 18.460938 118.796875 C 17.917969 114.535156 21.019531 110.515625 25.308594 110.515625 L 302.839844 110.769531 L 326.878906 297.492188 " fill-opacity="1" fill-rule="nonzero"/><path fill="#ffffff" d="M 332.640625 297.269531 L 57.082031 297.269531 C 54.628906 297.269531 52.554688 295.433594 52.238281 292.984375 L 29.984375 119.519531 C 29.363281 114.703125 33.097656 110.433594 37.925781 110.433594 L 309.929688 110.433594 C 312.386719 110.433594 314.460938 112.269531 314.777344 114.71875 L 337.484375 291.726562 C 337.863281 294.667969 335.585938 297.269531 332.640625 297.269531 " fill-opacity="1" fill-rule="nonzero"/><path fill="#000000" d="M 37.925781 111.035156 C 35.808594 111.035156 33.785156 111.949219 32.378906 113.546875 C 30.960938 115.160156 30.304688 117.308594 30.578125 119.441406 L 52.835938 292.910156 C 53.109375 295.054688 54.9375 296.667969 57.082031 296.667969 L 332.640625 296.667969 C 333.867188 296.667969 335.035156 296.136719 335.847656 295.214844 C 336.667969 294.28125 337.050781 293.039062 336.890625 291.804688 L 314.179688 114.796875 C 313.902344 112.652344 312.078125 111.035156 309.933594 111.035156 Z M 332.640625 297.871094 L 57.082031 297.871094 C 54.332031 297.871094 51.992188 295.800781 51.640625 293.0625 L 29.386719 119.597656 C 29.066406 117.121094 29.832031 114.625 31.476562 112.753906 C 33.109375 110.894531 35.460938 109.832031 37.925781 109.832031 L 309.933594 109.832031 C 312.679688 109.832031 315.019531 111.898438 315.371094 114.640625 L 338.082031 291.652344 C 338.285156 293.230469 337.800781 294.816406 336.75 296.007812 C 335.710938 297.191406 334.210938 297.871094 332.640625 297.871094 " fill-opacity="1" fill-rule="nonzero"/><path fill="#314030" d="M 51.648438 93.835938 L 292.984375 93.835938 C 298.308594 93.835938 303.15625 98.171875 303.808594 103.515625 L 324.164062 270.445312 C 324.824219 275.847656 321.015625 280.226562 315.660156 280.226562 L 72.96875 280.226562 C 67.613281 280.226562 62.769531 275.847656 62.152344 270.445312 L 43.109375 103.515625 C 42.496094 98.171875 46.320312 93.835938 51.648438 93.835938 " fill-opacity="1" fill-rule="nonzero"/><path fill="#a5c6a3" d="M 304.574219 109.425781 L 304.117188 103.425781 C 303.472656 98.128906 298.457031 93.910156 293.128906 93.910156 L 51.792969 93.910156 C 46.464844 93.910156 42.585938 98.128906 43.191406 103.425781 L 43.757812 110.8125 L 304.574219 109.425781 " fill-opacity="1" fill-rule="nonzero"/><path fill="#314030" d="M 58.382812 103.679688 C 58.578125 105.402344 57.34375 106.796875 55.621094 106.796875 C 53.902344 106.796875 52.347656 105.402344 52.148438 103.679688 C 51.953125 101.957031 53.1875 100.5625 54.910156 100.5625 C 56.628906 100.5625 58.183594 101.957031 58.382812 103.679688 " fill-opacity="1" fill-rule="nonzero"/><path fill="#314030" d="M 68.332031 103.46875 C 68.527344 105.191406 67.292969 106.585938 65.574219 106.585938 C 63.851562 106.585938 62.296875 105.191406 62.097656 103.46875 C 61.902344 101.746094 63.136719 100.351562 64.855469 100.351562 C 66.578125 100.351562 68.132812 101.746094 68.332031 103.46875 " fill-opacity="1" fill-rule="nonzero"/><path fill="#314030" d="M 79.179688 103.882812 C 79.378906 105.605469 78.144531 107.003906 76.425781 107.003906 C 74.703125 107.003906 73.144531 105.605469 72.949219 103.882812 C 72.75 102.164062 73.984375 100.769531 75.707031 100.769531 C 77.425781 100.769531 78.984375 102.164062 79.179688 103.882812 " fill-opacity="1" fill-rule="nonzero"/><path fill="#ffffff" d="M 98.234375 202.929688 L 121.277344 202.929688 L 116.996094 166.078125 L 116.136719 168.015625 Z M 135.972656 202.929688 L 146.917969 202.929688 L 148.300781 214.765625 L 137.351562 214.765625 L 139.644531 234.449219 L 124.933594 234.449219 L 122.648438 214.765625 L 84.597656 214.765625 L 83.140625 205.78125 L 114.203125 146.171875 L 129.355469 146.171875 L 135.972656 202.929688 " fill-opacity="1" fill-rule="nonzero"/><path fill="#ffffff" d="M 196.722656 180.738281 C 195.742188 172.457031 193.894531 166.390625 191.183594 162.539062 C 188.472656 158.683594 184.660156 156.757812 179.75 156.757812 C 174.957031 156.757812 171.652344 158.582031 169.824219 162.234375 C 168 165.886719 167.484375 171.589844 168.273438 179.34375 L 170.625 199.347656 C 171.597656 207.601562 173.46875 213.753906 176.246094 217.800781 C 179.019531 221.851562 182.871094 223.875 187.792969 223.875 C 192.511719 223.875 195.78125 222.003906 197.59375 218.257812 C 199.410156 214.511719 199.90625 208.652344 199.085938 200.683594 Z M 213.367188 197.226562 C 214.878906 209.929688 213.648438 219.511719 209.675781 225.972656 C 205.699219 232.433594 198.867188 235.664062 189.183594 235.664062 C 179.660156 235.664062 172.113281 232.515625 166.554688 226.214844 C 160.992188 219.917969 157.433594 210.597656 155.863281 198.257812 L 154.074219 182.980469 C 152.589844 170.296875 153.839844 160.792969 157.828125 154.457031 C 161.816406 148.128906 168.65625 144.964844 178.359375 144.964844 C 187.976562 144.964844 195.515625 148.046875 200.976562 154.21875 C 206.441406 160.386719 209.964844 169.632812 211.550781 181.945312 L 213.367188 197.226562 " fill-opacity="1" fill-rule="nonzero"/><path fill="#ffffff" d="M 239.023438 202.929688 L 262.0625 202.929688 L 257.625 166.078125 L 256.773438 168.015625 Z M 276.757812 202.929688 L 287.703125 202.929688 L 289.136719 214.765625 L 278.1875 214.765625 L 280.566406 234.449219 L 265.855469 234.449219 L 263.484375 214.765625 L 225.4375 214.765625 L 223.941406 205.78125 L 254.75 146.171875 L 269.90625 146.171875 L 276.757812 202.929688 " fill-opacity="1" fill-rule="nonzero"/><path fill="#6d8d6b" d="M 102.039062 199.042969 L 123.421875 199.042969 L 119.472656 165.039062 Z M 124.097656 200.246094 L 101.054688 200.246094 C 100.847656 200.246094 100.652344 200.140625 100.542969 199.960938 C 100.433594 199.78125 100.425781 199.558594 100.519531 199.371094 L 118.421875 164.460938 L 119.269531 162.550781 C 119.378906 162.304688 119.640625 162.160156 119.910156 162.203125 C 120.175781 162.242188 120.382812 162.457031 120.417969 162.726562 L 124.695312 199.578125 C 124.714844 199.746094 124.660156 199.917969 124.546875 200.046875 C 124.433594 200.175781 124.269531 200.246094 124.097656 200.246094 Z M 128.292969 230.566406 L 141.789062 230.566406 L 139.574219 211.550781 C 139.554688 211.382812 139.609375 211.210938 139.722656 211.082031 C 139.835938 210.957031 140 210.878906 140.171875 210.878906 L 150.445312 210.878906 L 149.203125 200.246094 L 138.792969 200.246094 C 138.488281 200.246094 138.230469 200.019531 138.195312 199.71875 L 131.640625 143.492188 L 117.390625 143.492188 L 86.585938 202.601562 L 87.929688 210.878906 L 125.46875 210.878906 C 125.777344 210.878906 126.035156 211.109375 126.066406 211.414062 Z M 142.464844 231.769531 L 127.757812 231.769531 C 127.449219 231.769531 127.195312 231.542969 127.160156 231.238281 L 124.933594 212.085938 L 87.417969 212.085938 C 87.125 212.085938 86.871094 211.871094 86.824219 211.578125 L 85.367188 202.59375 C 85.347656 202.464844 85.367188 202.335938 85.429688 202.21875 L 116.492188 142.613281 C 116.59375 142.414062 116.800781 142.289062 117.023438 142.289062 L 132.175781 142.289062 C 132.484375 142.289062 132.738281 142.515625 132.773438 142.820312 L 139.328125 199.042969 L 149.738281 199.042969 C 150.042969 199.042969 150.300781 199.273438 150.335938 199.578125 L 151.71875 211.414062 C 151.738281 211.582031 151.683594 211.753906 151.570312 211.882812 C 151.457031 212.011719 151.292969 212.085938 151.121094 212.085938 L 140.847656 212.085938 L 143.0625 231.097656 C 143.082031 231.269531 143.03125 231.4375 142.914062 231.566406 C 142.800781 231.695312 142.636719 231.769531 142.464844 231.769531 " fill-opacity="1" fill-rule="nonzero"/><path fill="#6d8d6b" d="M 182.570312 154.078125 C 177.984375 154.078125 174.914062 155.757812 173.183594 159.222656 C 171.417969 162.753906 170.917969 168.398438 171.691406 176 L 174.046875 195.996094 C 175 204.113281 176.855469 210.230469 179.5625 214.179688 C 182.242188 218.089844 185.859375 219.992188 190.613281 219.992188 C 195.125 219.992188 198.152344 218.265625 199.875 214.710938 C 201.632812 211.085938 202.113281 205.285156 201.308594 197.464844 L 198.945312 177.527344 C 197.980469 169.386719 196.152344 163.355469 193.511719 159.601562 C 190.894531 155.882812 187.316406 154.078125 182.570312 154.078125 Z M 190.613281 221.195312 C 185.503906 221.195312 181.453125 219.0625 178.570312 214.859375 C 175.75 210.75 173.828125 204.449219 172.851562 196.136719 L 170.5 176.128906 C 169.695312 168.289062 170.238281 162.421875 172.109375 158.683594 C 174.035156 154.828125 177.554688 152.875 182.570312 152.875 C 187.667969 152.875 191.679688 154.902344 194.496094 158.910156 C 197.253906 162.828125 199.152344 169.042969 200.140625 177.382812 L 202.503906 197.332031 C 203.335938 205.386719 202.816406 211.410156 200.957031 215.238281 C 199.042969 219.191406 195.558594 221.195312 190.613281 221.195312 Z M 181.179688 142.28125 C 171.746094 142.28125 165.007812 145.382812 161.160156 151.496094 C 157.261719 157.683594 156.03125 167.144531 157.492188 179.625 L 159.285156 194.90625 C 160.828125 207.0625 164.375 216.359375 169.824219 222.535156 C 175.242188 228.671875 182.703125 231.78125 192.003906 231.78125 C 201.421875 231.78125 208.144531 228.617188 211.984375 222.375 C 215.863281 216.0625 217.078125 206.523438 215.589844 194.015625 L 213.773438 178.738281 C 212.214844 166.609375 208.707031 157.386719 203.347656 151.335938 C 198.03125 145.328125 190.574219 142.28125 181.179688 142.28125 Z M 192.003906 232.984375 C 182.34375 232.984375 174.578125 229.734375 168.921875 223.328125 C 163.3125 216.972656 159.664062 207.457031 158.089844 195.050781 L 156.296875 179.765625 C 154.804688 167.007812 156.097656 157.28125 160.140625 150.855469 C 164.226562 144.371094 171.304688 141.078125 181.179688 141.078125 C 190.933594 141.078125 198.695312 144.261719 204.25 150.535156 C 209.769531 156.773438 213.375 166.210938 214.96875 178.589844 L 216.785156 193.871094 C 218.304688 206.65625 217.035156 216.457031 213.007812 223.003906 C 208.933594 229.625 201.867188 232.984375 192.003906 232.984375 " fill-opacity="1" fill-rule="nonzero"/><path fill="#6d8d6b" d="M 264.886719 200.246094 L 241.84375 200.246094 C 241.632812 200.246094 241.441406 200.140625 241.328125 199.960938 C 241.222656 199.78125 241.210938 199.5625 241.304688 199.375 L 259.058594 164.460938 L 259.898438 162.554688 C 260.007812 162.304688 260.269531 162.160156 260.539062 162.203125 C 260.804688 162.242188 261.015625 162.457031 261.046875 162.722656 L 263.800781 185.617188 C 263.839844 185.945312 263.605469 186.246094 263.277344 186.285156 C 262.941406 186.328125 262.648438 186.089844 262.609375 185.761719 L 260.113281 165.039062 L 242.824219 199.046875 L 264.207031 199.046875 L 263.71875 194.992188 C 263.679688 194.664062 263.914062 194.363281 264.242188 194.324219 C 264.578125 194.28125 264.871094 194.519531 264.910156 194.847656 L 265.480469 199.574219 C 265.5 199.746094 265.445312 199.914062 265.332031 200.046875 C 265.21875 200.175781 265.058594 200.246094 264.886719 200.246094 Z M 283.386719 231.769531 L 268.675781 231.769531 C 268.375 231.769531 268.117188 231.542969 268.082031 231.238281 L 265.773438 212.085938 L 228.257812 212.085938 C 227.960938 212.085938 227.710938 211.871094 227.660156 211.582031 L 226.167969 202.597656 C 226.148438 202.46875 226.167969 202.339844 226.226562 202.222656 L 257.039062 142.617188 C 257.140625 142.414062 257.347656 142.289062 257.570312 142.289062 L 272.722656 142.289062 C 273.027344 142.289062 273.285156 142.515625 273.320312 142.820312 L 275.183594 158.210938 C 275.222656 158.539062 274.988281 158.839844 274.65625 158.878906 C 274.324219 158.917969 274.027344 158.683594 273.984375 158.355469 L 272.191406 143.492188 L 257.9375 143.492188 L 227.386719 202.597656 L 228.765625 210.878906 L 266.308594 210.878906 C 266.613281 210.878906 266.871094 211.109375 266.90625 211.410156 L 269.210938 230.566406 L 282.707031 230.566406 L 280.808594 214.835938 C 280.769531 214.507812 281.003906 214.207031 281.332031 214.167969 C 281.660156 214.128906 281.964844 214.363281 282.003906 214.691406 L 283.984375 231.097656 C 284.003906 231.265625 283.953125 231.4375 283.835938 231.566406 C 283.722656 231.695312 283.558594 231.769531 283.386719 231.769531 " fill-opacity="1" fill-rule="nonzero"/><path fill="#6d8d6b" d="M 273.324219 280.828125 L 73.058594 280.828125 C 67.414062 280.828125 62.292969 276.203125 61.644531 270.515625 L 42.597656 103.582031 C 42.28125 100.808594 43.070312 98.199219 44.820312 96.238281 C 46.550781 94.300781 49.003906 93.234375 51.738281 93.234375 L 293.074219 93.234375 C 298.683594 93.234375 303.808594 97.816406 304.492188 103.441406 L 311.113281 157.726562 C 311.152344 158.058594 310.917969 158.355469 310.589844 158.394531 C 310.261719 158.433594 309.960938 158.203125 309.917969 157.871094 L 303.300781 103.589844 C 302.6875 98.542969 298.097656 94.4375 293.074219 94.4375 L 51.738281 94.4375 C 49.351562 94.4375 47.214844 95.363281 45.71875 97.039062 C 44.199219 98.738281 43.515625 101.015625 43.792969 103.445312 L 62.839844 270.375 C 63.421875 275.476562 68.003906 279.625 73.058594 279.625 L 273.324219 279.625 C 273.65625 279.625 273.925781 279.898438 273.925781 280.226562 C 273.925781 280.558594 273.65625 280.828125 273.324219 280.828125 " fill-opacity="1" fill-rule="nonzero"/><path fill="#000000" d="M 236.71875 343.839844 L 152.035156 343.839844 C 151.703125 343.839844 151.433594 343.570312 151.433594 343.238281 C 151.433594 342.90625 151.703125 342.636719 152.035156 342.636719 L 236.71875 342.636719 C 237.792969 342.636719 238.632812 341.757812 238.632812 340.636719 L 238.632812 338.269531 C 238.632812 337.140625 237.777344 336.222656 236.71875 336.222656 L 212.171875 336.222656 C 211.839844 336.222656 211.570312 335.953125 211.570312 335.621094 C 211.570312 335.289062 211.839844 335.019531 212.171875 335.019531 L 236.71875 335.019531 C 238.4375 335.019531 239.835938 336.476562 239.835938 338.269531 L 239.835938 340.636719 C 239.835938 342.402344 238.4375 343.839844 236.71875 343.839844 " fill-opacity="1" fill-rule="nonzero"/><path fill="#a5c6a3" d="M 124.570312 337.425781 L 51.597656 337.425781 L 58.5 323.832031 L 64.519531 311.996094 L 71.246094 298.765625 L 77.261719 286.933594 L 85.089844 271.550781 C 85.660156 270.425781 86.816406 269.71875 88.082031 269.71875 C 89.347656 269.71875 90.507812 270.425781 91.078125 271.550781 L 98.90625 286.933594 L 104.921875 298.761719 L 111.644531 311.988281 L 117.664062 323.832031 L 124.570312 337.425781 " fill-opacity="1" fill-rule="nonzero"/><path fill="#6d8d6b" d="M 104.921875 298.9375 L 71.246094 298.9375 L 77.261719 286.910156 L 98.90625 286.910156 L 104.921875 298.9375 " fill-opacity="1" fill-rule="nonzero"/><path fill="#6d8d6b" d="M 117.664062 323.792969 L 58.5 323.792969 L 64.519531 312.167969 L 111.644531 312.167969 L 117.664062 323.792969 " fill-opacity="1" fill-rule="nonzero"/><path fill="#000000" d="M 52.210938 337.023438 L 123.234375 337.023438 L 110.75 312.257812 L 90.183594 271.828125 C 89.710938 270.898438 88.769531 270.320312 87.722656 270.320312 C 86.679688 270.320312 85.738281 270.902344 85.265625 271.832031 L 71.421875 299.0625 L 64.699219 312.316406 L 58.679688 324.203125 Z M 124.210938 338.226562 L 51.234375 338.226562 C 51.027344 338.226562 50.832031 338.117188 50.722656 337.941406 C 50.613281 337.761719 50.605469 337.542969 50.699219 337.355469 L 57.605469 323.660156 L 63.625 311.773438 L 76.367188 286.675781 L 84.191406 271.285156 C 84.871094 269.949219 86.222656 269.117188 87.722656 269.117188 C 89.222656 269.117188 90.578125 269.949219 91.253906 271.28125 L 111.820312 311.714844 L 124.75 337.355469 C 124.84375 337.542969 124.832031 337.761719 124.722656 337.941406 C 124.613281 338.117188 124.421875 338.226562 124.210938 338.226562 " fill-opacity="1" fill-rule="nonzero"/><path fill="#6d8d6b" d="M 131.335938 337.679688 C 131.335938 336.328125 130.242188 335.234375 128.894531 335.234375 L 46.914062 335.234375 C 45.5625 335.234375 44.46875 336.328125 44.46875 337.679688 L 44.46875 345.40625 C 44.46875 346.753906 45.5625 347.847656 46.914062 347.847656 L 128.894531 347.847656 C 130.242188 347.847656 131.335938 346.753906 131.335938 345.40625 L 131.335938 337.679688 " fill-opacity="1" fill-rule="nonzero"/><path fill="#000000" d="M 46.914062 335.835938 C 45.898438 335.835938 45.070312 336.660156 45.070312 337.679688 L 45.070312 345.402344 C 45.070312 346.421875 45.898438 347.25 46.914062 347.25 L 128.894531 347.25 C 129.910156 347.25 130.734375 346.421875 130.734375 345.402344 L 130.734375 337.679688 C 130.734375 336.660156 129.910156 335.835938 128.894531 335.835938 Z M 128.894531 348.449219 L 46.914062 348.449219 C 45.234375 348.449219 43.867188 347.085938 43.867188 345.402344 L 43.867188 337.679688 C 43.867188 335.996094 45.234375 334.632812 46.914062 334.632812 L 128.894531 334.632812 C 130.574219 334.632812 131.9375 335.996094 131.9375 337.679688 L 131.9375 345.402344 C 131.9375 347.085938 130.574219 348.449219 128.894531 348.449219 " fill-opacity="1" fill-rule="nonzero"/><path fill="#6d8d6b" d="M 327.796875 190.253906 C 337.285156 192.921875 349.496094 203.191406 349.496094 221.824219 C 349.496094 235.25 329.722656 246.621094 329.722656 246.621094 L 326.464844 238.613281 C 326.464844 238.613281 337.363281 230.542969 336.835938 221.121094 C 336.417969 213.566406 324.238281 211.21875 324.238281 211.21875 L 327.796875 190.253906 " fill-opacity="1" fill-rule="nonzero"/><path fill="#6d8d6b" d="M 323.792969 343.382812 L 316.976562 343.382812 L 316.976562 335.378906 L 323.792969 335.378906 L 323.792969 343.382812 " fill-opacity="1" fill-rule="nonzero"/><path fill="#6d8d6b" d="M 305.648438 341.902344 L 299.015625 343.464844 L 297.171875 335.675781 L 303.8125 334.109375 L 305.648438 341.902344 " fill-opacity="1" fill-rule="nonzero"/><path fill="#000000" d="M 329.425781 236.058594 C 329.425781 236.058594 331.460938 252.15625 329.898438 258.410156 C 328.339844 264.660156 324.683594 322.421875 324.683594 338.046875 L 315.492188 338.046875 L 311.339844 264.222656 L 298.515625 291.007812 C 297.585938 293.183594 297.347656 295.589844 297.839844 297.902344 L 305.414062 338.046875 L 296.8125 338.640625 L 282.4375 294.5625 C 281.796875 292.375 281.75 290.058594 282.300781 287.847656 L 293.957031 241.21875 L 329.425781 236.058594 " fill-opacity="1" fill-rule="nonzero"/><path fill="#ffffff" d="M 311.785156 263.195312 C 311.65625 263.195312 311.523438 263.152344 311.410156 263.0625 C 311.148438 262.855469 311.109375 262.476562 311.316406 262.21875 L 316.058594 256.289062 C 316.269531 256.027344 316.644531 255.988281 316.90625 256.195312 C 317.164062 256.402344 317.207031 256.78125 316.996094 257.039062 L 312.257812 262.96875 C 312.136719 263.117188 311.960938 263.195312 311.785156 263.195312 " fill-opacity="1" fill-rule="nonzero"/><path fill="#ffffff" d="M 324.242188 341.605469 L 316.234375 341.605469 L 315.046875 347.648438 C 314.820312 348.8125 315.660156 349.90625 316.789062 349.90625 L 323.6875 349.90625 C 324.8125 349.90625 325.65625 348.8125 325.425781 347.648438 L 324.242188 341.605469 " fill-opacity="1" fill-rule="nonzero"/><path fill="#000000" d="M 316.726562 342.207031 L 315.636719 347.761719 C 315.558594 348.164062 315.65625 348.570312 315.910156 348.878906 C 316.136719 349.152344 316.449219 349.304688 316.785156 349.304688 L 323.683594 349.304688 C 324.023438 349.304688 324.335938 349.152344 324.5625 348.878906 C 324.816406 348.570312 324.914062 348.164062 324.835938 347.761719 L 323.742188 342.207031 Z M 323.683594 350.507812 L 316.785156 350.507812 C 316.089844 350.507812 315.433594 350.195312 314.980469 349.644531 C 314.5 349.058594 314.308594 348.285156 314.453125 347.53125 L 315.644531 341.488281 C 315.699219 341.207031 315.945312 341.003906 316.234375 341.003906 L 324.238281 341.003906 C 324.523438 341.003906 324.773438 341.207031 324.828125 341.488281 L 326.015625 347.53125 C 326.164062 348.285156 325.972656 349.058594 325.488281 349.644531 C 325.039062 350.195312 324.378906 350.507812 323.683594 350.507812 " fill-opacity="1" fill-rule="nonzero"/><path fill="#000000" d="M 324.238281 348.582031 L 315.933594 348.582031 C 315.605469 348.582031 315.335938 348.3125 315.335938 347.980469 C 315.335938 347.648438 315.605469 347.378906 315.933594 347.378906 L 324.238281 347.378906 C 324.570312 347.378906 324.839844 347.648438 324.839844 347.980469 C 324.839844 348.3125 324.570312 348.582031 324.238281 348.582031 " fill-opacity="1" fill-rule="nonzero"/><path fill="#ffffff" d="M 305.855469 339.824219 L 308.050781 347.101562 C 308.429688 348.367188 307.660156 349.707031 306.523438 349.746094 L 291.464844 350.253906 C 290.535156 350.285156 290.164062 348.84375 290.949219 348.25 C 293.398438 346.410156 296.660156 343.851562 297.554688 342.636719 C 299.632812 339.824219 301.707031 342.285156 301.707031 342.285156 C 301.707031 342.285156 303.1875 339.824219 305.855469 339.824219 " fill-opacity="1" fill-rule="nonzero"/><path fill="#000000" d="M 299.71875 341.890625 C 299.703125 341.890625 299.6875 341.890625 299.671875 341.890625 C 299.113281 341.914062 298.566406 342.285156 298.039062 342.996094 C 297.292969 344.007812 295.027344 345.9375 291.3125 348.730469 C 291.105469 348.886719 291.089844 349.183594 291.164062 349.394531 C 291.191406 349.472656 291.273438 349.652344 291.4375 349.652344 C 291.441406 349.652344 291.441406 349.652344 291.445312 349.652344 L 306.503906 349.144531 C 306.894531 349.128906 307.144531 348.859375 307.261719 348.699219 C 307.539062 348.308594 307.621094 347.761719 307.472656 347.277344 L 305.417969 340.453125 C 303.402344 340.699219 302.234375 342.578125 302.222656 342.597656 C 302.121094 342.761719 301.949219 342.871094 301.753906 342.882812 C 301.558594 342.898438 301.371094 342.820312 301.246094 342.675781 C 301.242188 342.667969 300.5625 341.890625 299.71875 341.890625 Z M 291.4375 350.855469 C 290.808594 350.855469 290.257812 350.445312 290.027344 349.792969 C 289.761719 349.035156 289.988281 348.222656 290.589844 347.769531 C 294.109375 345.121094 296.414062 343.171875 297.070312 342.28125 C 297.828125 341.253906 298.691406 340.71875 299.636719 340.691406 C 300.476562 340.648438 301.167969 341.050781 301.617188 341.390625 C 302.285156 340.582031 303.722656 339.222656 305.855469 339.222656 C 306.121094 339.222656 306.355469 339.398438 306.433594 339.652344 L 308.625 346.925781 C 308.882812 347.78125 308.738281 348.703125 308.238281 349.402344 C 307.824219 349.976562 307.207031 350.320312 306.546875 350.34375 L 291.488281 350.855469 C 291.46875 350.855469 291.453125 350.855469 291.4375 350.855469 " fill-opacity="1" fill-rule="nonzero"/><path fill="#ffffff" d="M 293.109375 347.980469 L 306.746094 347.386719 L 293.109375 347.980469 " fill-opacity="1" fill-rule="nonzero"/><path fill="#000000" d="M 293.109375 348.582031 C 292.789062 348.582031 292.519531 348.328125 292.507812 348.007812 C 292.492188 347.675781 292.75 347.394531 293.082031 347.378906 L 306.71875 346.785156 C 307.0625 346.765625 307.332031 347.027344 307.347656 347.359375 C 307.359375 347.691406 307.105469 347.972656 306.769531 347.988281 L 293.132812 348.582031 C 293.125 348.582031 293.117188 348.582031 293.109375 348.582031 " fill-opacity="1" fill-rule="nonzero"/><path fill="#ffffff" d="M 313.863281 186.101562 L 321.273438 191.140625 L 300.863281 190.164062 L 306.746094 186.398438 L 307.539062 182.753906 C 306.496094 182.59375 305.058594 182.492188 304.601562 181.921875 C 303.796875 180.917969 304.160156 177.4375 304.160156 177.4375 L 303.277344 176.746094 C 303.179688 176.695312 303.109375 176.609375 303.082031 176.511719 C 303.054688 176.410156 303.074219 176.296875 303.125 176.210938 C 303.878906 175.011719 304.585938 174.628906 304.917969 173.40625 C 305.246094 172.203125 305.101562 172.386719 306.394531 169.792969 L 314.160156 169.785156 L 314.203125 175.601562 C 314.203125 175.601562 315.394531 174.835938 316.148438 175.875 C 316.695312 176.628906 315.480469 179.15625 314.496094 179.15625 L 313.863281 186.101562 " fill-opacity="1" fill-rule="nonzero"/><path fill="#000000" d="M 302.777344 189.65625 L 319.171875 190.4375 L 313.523438 186.597656 C 313.34375 186.476562 313.242188 186.265625 313.265625 186.046875 L 313.898438 179.101562 C 313.925781 178.792969 314.1875 178.558594 314.496094 178.558594 C 314.578125 178.550781 314.917969 178.335938 315.273438 177.691406 C 315.667969 176.984375 315.730469 176.359375 315.65625 176.222656 C 315.25 175.664062 314.601562 176.0625 314.527344 176.105469 C 314.34375 176.226562 314.109375 176.238281 313.917969 176.132812 C 313.722656 176.027344 313.601562 175.828125 313.601562 175.609375 L 313.5625 170.390625 L 306.769531 170.398438 C 305.839844 172.265625 305.796875 172.4375 305.613281 173.136719 C 305.582031 173.257812 305.542969 173.398438 305.496094 173.566406 C 305.253906 174.457031 304.835938 174.96875 304.390625 175.511719 C 304.183594 175.765625 303.96875 176.027344 303.75 176.351562 L 304.53125 176.964844 C 304.695312 177.09375 304.777344 177.296875 304.757812 177.5 C 304.617188 178.84375 304.621094 180.988281 305.070312 181.546875 C 305.308594 181.84375 306.453125 182 307.136719 182.089844 C 307.304688 182.113281 307.46875 182.132812 307.628906 182.15625 C 307.789062 182.179688 307.9375 182.273438 308.035156 182.410156 C 308.128906 182.546875 308.160156 182.714844 308.125 182.878906 L 307.332031 186.527344 C 307.300781 186.683594 307.207031 186.820312 307.070312 186.90625 Z M 321.273438 191.742188 C 321.265625 191.742188 321.253906 191.742188 321.246094 191.742188 L 300.835938 190.765625 C 300.574219 190.753906 300.351562 190.574219 300.28125 190.320312 C 300.214844 190.066406 300.320312 189.800781 300.539062 189.660156 L 306.210938 186.027344 L 306.8125 183.261719 C 305.730469 183.113281 304.648438 182.941406 304.132812 182.300781 C 303.328125 181.296875 303.445312 178.738281 303.53125 177.710938 L 302.9375 177.246094 C 302.726562 177.113281 302.570312 176.910156 302.503906 176.671875 C 302.429688 176.410156 302.472656 176.125 302.621094 175.890625 C 302.917969 175.414062 303.207031 175.0625 303.460938 174.75 C 303.871094 174.253906 304.164062 173.890625 304.339844 173.246094 C 304.382812 173.089844 304.417969 172.953125 304.449219 172.832031 C 304.667969 171.984375 304.746094 171.753906 305.855469 169.527344 C 305.960938 169.324219 306.167969 169.195312 306.394531 169.195312 L 314.15625 169.183594 C 314.15625 169.183594 314.15625 169.183594 314.160156 169.183594 C 314.488281 169.183594 314.757812 169.453125 314.757812 169.78125 L 314.796875 174.757812 C 315.417969 174.664062 316.125 174.820312 316.636719 175.519531 C 317.230469 176.347656 316.609375 177.722656 316.40625 178.125 C 316.207031 178.515625 315.730469 179.316406 315.058594 179.628906 L 314.492188 185.804688 L 321.613281 190.644531 C 321.835938 190.796875 321.929688 191.078125 321.84375 191.332031 C 321.761719 191.578125 321.53125 191.742188 321.273438 191.742188 " fill-opacity="1" fill-rule="nonzero"/><path fill="#000000" d="M 314.875 181.757812 C 313.308594 182.28125 311.765625 181.054688 311.492188 180.835938 C 310.402344 179.972656 309.515625 178.4375 309.953125 177.761719 C 310.191406 177.386719 310.621094 177.59375 311.183594 177.148438 C 312.011719 176.488281 312.246094 175.066406 311.796875 174.683594 C 311.433594 174.371094 310.859375 174.972656 310.261719 174.683594 C 309.527344 174.332031 309.90625 173.210938 309.335938 172.222656 C 308.414062 170.605469 306.257812 171.582031 304.601562 169.863281 C 303.519531 168.738281 303.050781 166.871094 303.667969 165.8125 C 303.851562 165.507812 304.125 165.230469 304.519531 165.015625 C 307.125 163.578125 307.515625 165.542969 310.054688 165.566406 C 315.273438 165.609375 317.835938 166.65625 318.78125 168.820312 C 319.421875 170.289062 318.636719 172.628906 318.257812 173.761719 C 318.132812 174.140625 317.867188 174.855469 317.640625 175.914062 C 317.398438 177.078125 317.472656 177.375 317.335938 178.070312 C 317.238281 178.554688 316.71875 181.144531 314.875 181.757812 " fill-opacity="1" fill-rule="nonzero"/><path fill="#ffffff" d="M 303.179688 172.648438 C 303.179688 172.648438 305.484375 173.5 305.984375 172.347656 C 306.488281 171.195312 305.683594 170.242188 306.9375 169.339844 C 308.191406 168.441406 311.199219 167.484375 310.097656 166.132812 C 308.992188 164.78125 305.636719 164.230469 304.683594 165.832031 C 303.730469 167.4375 303.027344 170.195312 302.378906 170.242188 C 301.726562 170.292969 301.96875 172.367188 303.179688 172.648438 " fill-opacity="1" fill-rule="nonzero"/><path fill="#000000" d="M 303.386719 172.085938 C 304.109375 172.351562 305.257812 172.511719 305.433594 172.105469 C 305.578125 171.777344 305.578125 171.460938 305.578125 171.089844 C 305.574219 170.417969 305.570312 169.585938 306.585938 168.851562 C 306.9375 168.601562 307.382812 168.359375 307.855469 168.105469 C 308.527344 167.746094 309.652344 167.140625 309.730469 166.746094 C 309.738281 166.6875 309.707031 166.609375 309.628906 166.511719 C 309.089844 165.851562 307.738281 165.382812 306.609375 165.464844 C 306.214844 165.492188 305.511719 165.621094 305.199219 166.140625 C 304.835938 166.753906 304.492188 167.585938 304.191406 168.324219 C 303.621094 169.710938 303.253906 170.601562 302.632812 170.804688 C 302.613281 170.953125 302.632812 171.253906 302.785156 171.5625 C 302.863281 171.722656 303.03125 171.996094 303.3125 172.0625 C 303.339844 172.066406 303.363281 172.078125 303.386719 172.085938 Z M 304.765625 173.554688 C 303.988281 173.554688 303.222656 173.300781 303.003906 173.226562 C 301.824219 172.925781 301.367188 171.574219 301.429688 170.742188 C 301.480469 170.050781 301.855469 169.734375 302.222656 169.660156 C 302.4375 169.425781 302.824219 168.496094 303.078125 167.867188 C 303.398438 167.09375 303.757812 166.214844 304.164062 165.523438 C 304.601562 164.789062 305.4375 164.34375 306.519531 164.265625 C 308.058594 164.148438 309.761719 164.777344 310.5625 165.753906 C 310.953125 166.234375 310.96875 166.6875 310.910156 166.976562 C 310.71875 167.929688 309.550781 168.558594 308.425781 169.164062 C 307.988281 169.398438 307.574219 169.621094 307.289062 169.832031 C 306.773438 170.199219 306.773438 170.496094 306.777344 171.085938 C 306.777344 171.503906 306.78125 172.023438 306.535156 172.585938 C 306.210938 173.339844 305.480469 173.554688 304.765625 173.554688 " fill-opacity="1" fill-rule="nonzero"/><path fill="#6d8d6b" d="M 293.109375 189.070312 C 293.109375 189.070312 310.894531 184.027344 327.796875 190.253906 C 329.09375 197.746094 329.988281 204.214844 330.609375 209.339844 C 331.707031 218.359375 331.023438 215.480469 332.390625 228.648438 C 333.238281 236.832031 333.464844 237.582031 332.6875 239.023438 C 328.765625 246.296875 312.964844 245.898438 306.894531 244.363281 C 306.464844 244.25 304.679688 243.78125 301.761719 243.046875 C 298.421875 242.203125 295.679688 241.539062 293.847656 241.097656 C 292.859375 240.648438 291.519531 239.855469 290.585938 238.429688 C 288.496094 235.238281 289.894531 231.109375 290.585938 228.351562 C 292.367188 221.265625 290.027344 221.113281 290.585938 208.191406 C 290.78125 203.671875 291.351562 197.109375 293.109375 189.070312 " fill-opacity="1" fill-rule="nonzero"/><path fill="#ffffff" d="M 325.648438 244.566406 C 325.355469 244.566406 325.097656 244.355469 325.054688 244.054688 C 325.003906 243.726562 325.230469 243.421875 325.5625 243.371094 C 325.882812 243.324219 333.445312 242.121094 332.441406 234.957031 C 332.398438 234.625 332.625 234.324219 332.957031 234.277344 C 333.277344 234.230469 333.589844 234.460938 333.632812 234.789062 C 334.800781 243.148438 325.824219 244.550781 325.734375 244.5625 C 325.707031 244.566406 325.675781 244.566406 325.648438 244.566406 " fill-opacity="1" fill-rule="nonzero"/><path fill="#ffffff" d="M 305.046875 237.648438 C 304.894531 237.648438 304.738281 237.59375 304.621094 237.476562 C 297.535156 230.488281 296.070312 219.910156 296.011719 219.464844 C 295.96875 219.136719 296.199219 218.832031 296.527344 218.789062 C 296.859375 218.746094 297.160156 218.976562 297.203125 219.308594 C 297.21875 219.414062 298.675781 229.925781 305.46875 236.621094 C 305.703125 236.855469 305.707031 237.234375 305.472656 237.46875 C 305.355469 237.589844 305.199219 237.648438 305.046875 237.648438 " fill-opacity="1" fill-rule="nonzero"/><path fill="#6d8d6b" d="M 286.796875 179.523438 C 286.804688 179.207031 287.035156 178.941406 287.34375 178.882812 L 304.917969 173.40625 L 303.394531 169.785156 C 303.394531 169.785156 279.597656 162.230469 268.4375 171.867188 C 257.269531 181.503906 279.714844 205.316406 292.382812 210.832031 L 303.984375 187.542969 L 287.296875 180.207031 C 286.992188 180.125 286.785156 179.84375 286.796875 179.523438 " fill-opacity="1" fill-rule="nonzero"/><path fill="#ffffff" d="M 341.171875 120.320312 C 341.171875 133.683594 330.339844 144.515625 316.976562 144.515625 C 303.609375 144.515625 292.777344 133.683594 292.777344 120.320312 C 292.777344 106.957031 303.609375 96.121094 316.976562 96.121094 C 330.339844 96.121094 341.171875 106.957031 341.171875 120.320312 " fill-opacity="1" fill-rule="nonzero"/><path fill="#000000" d="M 316.976562 96.722656 C 303.964844 96.722656 293.378906 107.308594 293.378906 120.320312 C 293.378906 133.332031 303.964844 143.914062 316.976562 143.914062 C 329.984375 143.914062 340.570312 133.332031 340.570312 120.320312 C 340.570312 107.308594 329.984375 96.722656 316.976562 96.722656 Z M 316.976562 145.117188 C 303.300781 145.117188 292.175781 133.992188 292.175781 120.320312 C 292.175781 106.644531 303.300781 95.519531 316.976562 95.519531 C 330.648438 95.519531 341.773438 106.644531 341.773438 120.320312 C 341.773438 133.992188 330.648438 145.117188 316.976562 145.117188 " fill-opacity="1" fill-rule="nonzero"/><path fill="#a5c6a3" d="M 332.21875 120.320312 C 332.21875 128.738281 325.394531 135.5625 316.976562 135.5625 C 308.554688 135.5625 301.730469 128.738281 301.730469 120.320312 C 301.730469 111.898438 308.554688 105.074219 316.976562 105.074219 C 325.394531 105.074219 332.21875 111.898438 332.21875 120.320312 " fill-opacity="1" fill-rule="nonzero"/><path fill="#ffffff" d="M 310.417969 127.21875 C 310.367188 127.21875 310.3125 127.214844 310.261719 127.199219 C 309.9375 127.113281 309.75 126.78125 309.835938 126.460938 C 310.730469 123.199219 313.71875 120.921875 317.101562 120.921875 C 320.320312 120.921875 323.1875 122.964844 324.230469 126.007812 C 324.335938 126.324219 324.171875 126.664062 323.855469 126.773438 C 323.539062 126.878906 323.199219 126.710938 323.09375 126.398438 C 322.214844 123.839844 319.808594 122.125 317.101562 122.125 C 314.257812 122.125 311.746094 124.035156 310.996094 126.777344 C 310.925781 127.042969 310.683594 127.21875 310.417969 127.21875 " fill-opacity="1" fill-rule="nonzero"/><path fill="#ffffff" d="M 311.984375 117.738281 C 311.828125 117.738281 311.675781 117.679688 311.558594 117.5625 L 308.132812 114.136719 C 307.898438 113.902344 307.898438 113.519531 308.132812 113.289062 C 308.367188 113.054688 308.746094 113.054688 308.984375 113.289062 L 312.410156 116.710938 C 312.644531 116.945312 312.644531 117.328125 312.410156 117.5625 C 312.289062 117.679688 312.136719 117.738281 311.984375 117.738281 " fill-opacity="1" fill-rule="nonzero"/><path fill="#ffffff" d="M 311.984375 117.738281 C 311.828125 117.738281 311.675781 117.679688 311.558594 117.5625 L 308.132812 114.136719 C 307.898438 113.902344 307.898438 113.519531 308.132812 113.289062 C 308.367188 113.054688 308.746094 113.054688 308.984375 113.289062 L 312.410156 116.710938 C 312.644531 116.945312 312.644531 117.328125 312.410156 117.5625 C 312.289062 117.679688 312.136719 117.738281 311.984375 117.738281 " fill-opacity="1" fill-rule="nonzero"/><path fill="#ffffff" d="M 308.558594 117.738281 C 308.402344 117.738281 308.25 117.679688 308.132812 117.5625 C 307.898438 117.328125 307.898438 116.945312 308.132812 116.710938 L 311.558594 113.289062 C 311.792969 113.054688 312.171875 113.054688 312.410156 113.289062 C 312.644531 113.519531 312.644531 113.902344 312.410156 114.136719 L 308.984375 117.5625 C 308.863281 117.679688 308.714844 117.738281 308.558594 117.738281 " fill-opacity="1" fill-rule="nonzero"/><path fill="#ffffff" d="M 325.609375 117.742188 C 325.457031 117.742188 325.304688 117.683594 325.1875 117.566406 L 321.761719 114.140625 C 321.523438 113.902344 321.523438 113.523438 321.761719 113.289062 C 321.996094 113.054688 322.375 113.054688 322.613281 113.289062 L 326.039062 116.714844 C 326.273438 116.949219 326.273438 117.328125 326.039062 117.566406 C 325.917969 117.683594 325.765625 117.742188 325.609375 117.742188 " fill-opacity="1" fill-rule="nonzero"/><path fill="#ffffff" d="M 322.1875 117.742188 C 322.03125 117.742188 321.878906 117.683594 321.761719 117.566406 C 321.523438 117.328125 321.523438 116.949219 321.761719 116.714844 L 325.1875 113.289062 C 325.421875 113.054688 325.800781 113.054688 326.039062 113.289062 C 326.273438 113.523438 326.273438 113.902344 326.039062 114.140625 L 322.613281 117.566406 C 322.492188 117.683594 322.339844 117.742188 322.1875 117.742188 " fill-opacity="1" fill-rule="nonzero"/><path fill="#000000" d="M 235.261719 44.738281 C 235.15625 44.738281 235.054688 44.714844 234.953125 44.675781 C 211.175781 34.761719 183.742188 31.734375 155.621094 35.925781 C 155.1875 35.988281 154.777344 35.6875 154.714844 35.25 C 154.648438 34.8125 154.949219 34.402344 155.386719 34.339844 C 183.792969 30.109375 211.519531 33.171875 235.570312 43.191406 C 235.976562 43.363281 236.171875 43.832031 236 44.242188 C 235.871094 44.550781 235.574219 44.734375 235.261719 44.738281 " fill-opacity="1" fill-rule="nonzero"/><path fill="#000000" d="M 246.710938 41.316406 C 246.589844 41.316406 246.460938 41.285156 246.34375 41.226562 C 244.300781 40.164062 242.183594 39.132812 240.046875 38.167969 C 210.132812 24.652344 173.933594 22.097656 138.121094 30.972656 C 137.6875 31.078125 137.253906 30.816406 137.148438 30.386719 C 137.042969 29.957031 137.304688 29.519531 137.734375 29.414062 C 173.894531 20.453125 210.464844 23.042969 240.707031 36.707031 C 242.867188 37.683594 245.015625 38.726562 247.082031 39.804688 C 247.476562 40.007812 247.628906 40.492188 247.421875 40.882812 C 247.28125 41.160156 247.003906 41.316406 246.710938 41.316406 " fill-opacity="1" fill-rule="nonzero"/><path fill="#000000" d="M 271.972656 69.664062 C 271.652344 69.664062 271.386719 69.414062 271.371094 69.09375 C 271.355469 68.761719 271.613281 68.480469 271.941406 68.464844 L 274.832031 68.324219 C 275.164062 68.308594 275.445312 68.5625 275.460938 68.894531 C 275.476562 69.226562 275.21875 69.507812 274.890625 69.527344 L 272 69.664062 C 271.992188 69.664062 271.980469 69.664062 271.972656 69.664062 " fill-opacity="1" fill-rule="nonzero"/><path fill="#000000" d="M 282.082031 69.179688 C 281.757812 69.179688 281.496094 68.929688 281.480469 68.609375 C 281.460938 68.277344 281.71875 67.992188 282.050781 67.980469 L 284.9375 67.839844 C 285.265625 67.824219 285.554688 68.078125 285.570312 68.410156 C 285.585938 68.742188 285.328125 69.023438 284.996094 69.039062 L 282.109375 69.179688 C 282.097656 69.179688 282.089844 69.179688 282.082031 69.179688 " fill-opacity="1" fill-rule="nonzero"/><path fill="#000000" d="M 278.820312 75.851562 C 278.5 75.851562 278.238281 75.605469 278.21875 75.28125 L 278.066406 72.394531 C 278.046875 72.0625 278.300781 71.78125 278.632812 71.761719 C 278.96875 71.753906 279.25 72 279.265625 72.328125 L 279.421875 75.21875 C 279.441406 75.550781 279.1875 75.832031 278.851562 75.851562 C 278.84375 75.851562 278.832031 75.851562 278.820312 75.851562 " fill-opacity="1" fill-rule="nonzero"/><path fill="#000000" d="M 278.277344 65.742188 C 277.957031 65.742188 277.695312 65.492188 277.675781 65.171875 L 277.519531 62.285156 C 277.5 61.953125 277.757812 61.667969 278.089844 61.648438 C 278.417969 61.640625 278.703125 61.886719 278.71875 62.21875 L 278.878906 65.109375 C 278.894531 65.441406 278.640625 65.722656 278.308594 65.738281 C 278.296875 65.742188 278.289062 65.742188 278.277344 65.742188 " fill-opacity="1" fill-rule="nonzero"/><path fill="#000000" d="M 252.121094 312.84375 C 252.011719 312.84375 251.902344 312.8125 251.804688 312.75 L 249.75 311.480469 C 249.464844 311.304688 249.378906 310.933594 249.554688 310.652344 C 249.730469 310.371094 250.097656 310.28125 250.382812 310.457031 L 252.4375 311.730469 C 252.722656 311.902344 252.808594 312.273438 252.632812 312.558594 C 252.519531 312.742188 252.324219 312.84375 252.121094 312.84375 " fill-opacity="1" fill-rule="nonzero"/><path fill="#000000" d="M 259.316406 317.292969 C 259.210938 317.292969 259.101562 317.265625 259.003906 317.203125 L 256.945312 315.933594 C 256.664062 315.757812 256.578125 315.386719 256.75 315.101562 C 256.925781 314.820312 257.296875 314.734375 257.578125 314.910156 L 259.632812 316.179688 C 259.917969 316.355469 260.003906 316.726562 259.828125 317.007812 C 259.714844 317.191406 259.519531 317.292969 259.316406 317.292969 " fill-opacity="1" fill-rule="nonzero"/><path fill="#000000" d="M 251.855469 319.078125 C 251.746094 319.078125 251.636719 319.046875 251.539062 318.988281 C 251.257812 318.816406 251.167969 318.445312 251.339844 318.160156 L 252.601562 316.097656 C 252.773438 315.8125 253.144531 315.722656 253.429688 315.898438 C 253.710938 316.070312 253.800781 316.441406 253.628906 316.726562 L 252.367188 318.789062 C 252.253906 318.972656 252.054688 319.078125 251.855469 319.078125 " fill-opacity="1" fill-rule="nonzero"/><path fill="#000000" d="M 256.265625 311.851562 C 256.160156 311.851562 256.050781 311.824219 255.953125 311.761719 C 255.671875 311.589844 255.582031 311.21875 255.753906 310.9375 L 257.015625 308.871094 C 257.1875 308.589844 257.558594 308.5 257.839844 308.671875 C 258.125 308.847656 258.214844 309.214844 258.042969 309.5 L 256.78125 311.5625 C 256.667969 311.75 256.472656 311.851562 256.265625 311.851562 " fill-opacity="1" fill-rule="nonzero"/><path fill="#000000" d="M 96.488281 60.132812 C 96.429688 60.132812 96.371094 60.125 96.308594 60.105469 L 94.066406 59.40625 C 93.75 59.304688 93.574219 58.96875 93.671875 58.652344 C 93.773438 58.335938 94.109375 58.15625 94.425781 58.257812 L 96.667969 58.960938 C 96.984375 59.058594 97.164062 59.394531 97.0625 59.710938 C 96.984375 59.96875 96.746094 60.132812 96.488281 60.132812 " fill-opacity="1" fill-rule="nonzero"/><path fill="#000000" d="M 88.640625 57.679688 C 88.578125 57.679688 88.519531 57.671875 88.460938 57.652344 L 86.21875 56.949219 C 85.898438 56.851562 85.722656 56.511719 85.824219 56.195312 C 85.921875 55.878906 86.257812 55.703125 86.578125 55.800781 L 88.820312 56.503906 C 89.136719 56.605469 89.3125 56.941406 89.214844 57.257812 C 89.132812 57.515625 88.894531 57.679688 88.640625 57.679688 " fill-opacity="1" fill-rule="nonzero"/><path fill="#000000" d="M 92.304688 55.746094 C 92.246094 55.746094 92.1875 55.738281 92.128906 55.71875 C 91.8125 55.621094 91.632812 55.285156 91.730469 54.96875 L 92.417969 52.722656 C 92.515625 52.402344 92.851562 52.226562 93.167969 52.320312 C 93.484375 52.421875 93.664062 52.757812 93.566406 53.074219 L 92.878906 55.320312 C 92.800781 55.582031 92.5625 55.746094 92.304688 55.746094 " fill-opacity="1" fill-rule="nonzero"/><path fill="#000000" d="M 89.894531 63.613281 C 89.835938 63.613281 89.777344 63.601562 89.71875 63.585938 C 89.402344 63.488281 89.222656 63.152344 89.320312 62.835938 L 90.007812 60.589844 C 90.105469 60.269531 90.441406 60.089844 90.757812 60.1875 C 91.078125 60.285156 91.253906 60.625 91.15625 60.941406 L 90.46875 63.1875 C 90.390625 63.445312 90.152344 63.613281 89.894531 63.613281 " fill-opacity="1" fill-rule="nonzero"/><path fill="#000000" d="M 129.40625 30.820312 C 129.308594 30.820312 129.207031 30.828125 129.105469 30.84375 C 128.054688 31.011719 127.332031 32 127.5 33.054688 C 127.578125 33.5625 127.851562 34.011719 128.269531 34.316406 C 128.6875 34.621094 129.195312 34.742188 129.707031 34.660156 C 130.761719 34.496094 131.480469 33.503906 131.316406 32.453125 C 131.164062 31.5 130.34375 30.820312 129.40625 30.820312 Z M 129.398438 35.886719 C 128.742188 35.886719 128.105469 35.683594 127.5625 35.289062 C 126.886719 34.796875 126.441406 34.070312 126.308594 33.242188 C 126.042969 31.53125 127.210938 29.925781 128.917969 29.65625 C 130.625 29.382812 132.234375 30.554688 132.503906 32.265625 C 132.773438 33.972656 131.601562 35.582031 129.894531 35.851562 C 129.730469 35.875 129.566406 35.886719 129.398438 35.886719 " fill-opacity="1" fill-rule="nonzero"/></svg>