<svg xmlns="http://www.w3.org/2000/svg" xmlns:xlink="http://www.w3.org/1999/xlink" width="500" zoomAndPan="magnify" viewBox="0 0 375 374.999991" height="500" preserveAspectRatio="xMidYMid meet" version="1.0"><defs><clipPath id="1ebecbc5cf"><path d="M 120 320 L 148 320 L 148 348.414062 L 120 348.414062 Z M 120 320 " clip-rule="nonzero"/></clipPath><clipPath id="2cc1d626ec"><path d="M 169 331 L 207 331 L 207 348.414062 L 169 348.414062 Z M 169 331 " clip-rule="nonzero"/></clipPath></defs><path fill="#314030" d="M 316.390625 312.824219 C 334.070312 298.167969 343.734375 273.910156 343.964844 258.859375 C 345.683594 146.679688 352.871094 92.65625 285.554688 62.109375 C 269.988281 55.046875 176.722656 26.726562 106.214844 58.59375 C 73.644531 73.316406 22.121094 101.960938 47.761719 222.492188 C 57.914062 270.210938 87.699219 331.015625 132.433594 341.132812 C 160.566406 347.492188 169.523438 348.136719 227.996094 342.847656 C 278.609375 338.269531 294.769531 330.753906 316.390625 312.824219 " fill-opacity="1" fill-rule="nonzero"/><path fill="#a5c6a3" d="M 338.101562 228.863281 L 157.835938 203.785156 C 153.308594 203.210938 149.917969 199.355469 149.917969 194.792969 L 147.445312 69.019531 C 147.445312 69.019531 151.554688 66.054688 153.882812 64.917969 C 155.070312 64.34375 156.433594 64.089844 157.851562 64.269531 L 337.582031 87.199219 C 342.109375 87.773438 345.5 91.625 345.5 96.191406 L 345.5 219.726562 C 345.5 221.933594 344.492188 223.882812 342.929688 225.167969 C 341.492188 226.351562 338.101562 228.863281 338.101562 228.863281 " fill-opacity="1" fill-rule="nonzero"/><path fill="#a5c6a3" d="M 332.601562 230.53125 L 152.871094 207.605469 C 148.34375 207.027344 144.953125 203.175781 144.953125 198.613281 L 144.953125 75.078125 C 144.953125 70.832031 148.679688 67.550781 152.886719 68.089844 L 332.621094 91.015625 C 337.144531 91.59375 340.535156 95.445312 340.535156 100.011719 L 340.535156 223.542969 C 340.535156 227.789062 336.808594 231.070312 332.601562 230.53125 " fill-opacity="1" fill-rule="nonzero"/><path fill="#ffffff" d="M 328.78125 225.441406 L 157.164062 203.550781 C 153.875 203.128906 151.410156 200.328125 151.410156 197.007812 L 151.410156 77.851562 C 151.410156 75.015625 153.894531 72.824219 156.707031 73.183594 L 328.324219 95.074219 C 331.613281 95.496094 334.078125 98.296875 334.078125 101.613281 L 334.078125 220.773438 C 334.078125 223.609375 331.589844 225.800781 328.78125 225.441406 " fill-opacity="1" fill-rule="nonzero"/><path fill="#314030" d="M 321.707031 216.714844 L 166.855469 197.417969 C 163.882812 197.046875 161.660156 194.574219 161.660156 191.648438 L 161.660156 86.605469 C 161.660156 84.105469 163.90625 82.175781 166.441406 82.492188 L 321.292969 101.789062 C 324.261719 102.160156 326.488281 104.628906 326.488281 107.558594 L 326.488281 212.601562 C 326.488281 215.097656 324.242188 217.03125 321.707031 216.714844 " fill-opacity="1" fill-rule="nonzero"/><path fill="#000000" d="M 333.492188 231.140625 C 333.171875 231.140625 332.851562 231.121094 332.53125 231.082031 L 185.914062 212.726562 C 185.609375 212.6875 185.394531 212.410156 185.433594 212.109375 C 185.472656 211.804688 185.75 211.59375 186.050781 211.628906 L 332.667969 229.984375 C 334.519531 230.222656 336.382812 229.652344 337.78125 228.417969 C 339.179688 227.1875 339.984375 225.410156 339.984375 223.542969 L 339.984375 100.011719 C 339.984375 95.738281 336.785156 92.105469 332.546875 91.566406 L 236.136719 79.675781 C 235.835938 79.640625 235.617188 79.367188 235.660156 79.0625 C 235.695312 78.757812 235.96875 78.542969 236.273438 78.582031 L 332.683594 90.46875 C 337.476562 91.082031 341.085938 95.183594 341.085938 100.011719 L 341.085938 223.542969 C 341.085938 225.726562 340.148438 227.804688 338.511719 229.246094 C 337.117188 230.476562 335.328125 231.140625 333.492188 231.140625 " fill-opacity="1" fill-rule="nonzero"/><path fill="#6d8d6b" d="M 227.746094 303.285156 L 42.902344 279.441406 C 41.457031 279.257812 40.640625 278.042969 40.65625 276.832031 C 40.671875 275.996094 40.738281 270.113281 40.738281 270.113281 L 138.476562 214.222656 C 143.371094 211.425781 149.707031 210.34375 155.300781 211.058594 L 337.8125 234.609375 C 338.910156 234.75 339.851562 235.464844 340.289062 236.484375 L 340.582031 237.171875 C 340.582031 237.171875 340.425781 242.078125 340.488281 243.226562 C 340.539062 244.121094 340.132812 245.046875 339.195312 245.585938 L 243.914062 300.078125 C 239.015625 302.878906 233.339844 304.003906 227.746094 303.285156 " fill-opacity="1" fill-rule="nonzero"/><path fill="#ffffff" d="M 65.636719 275.789062 L 43.5625 272.9375 C 41.117188 272.625 40.476562 269.378906 42.617188 268.15625 L 137.386719 214.011719 C 142.285156 211.214844 147.960938 210.089844 153.554688 210.804688 L 337.738281 234.605469 C 340.179688 234.921875 340.824219 238.160156 338.683594 239.386719 L 243.910156 293.527344 C 239.015625 296.328125 233.339844 297.453125 227.746094 296.734375 L 65.636719 275.789062 " fill-opacity="1" fill-rule="nonzero"/><path fill="#a5c6a3" d="M 263.808594 266.683594 L 104.097656 245.894531 C 101.890625 245.609375 101.308594 242.679688 103.242188 241.578125 L 140.792969 220.339844 C 145.21875 217.8125 150.34375 216.792969 155.394531 217.441406 L 315.105469 238.230469 C 317.316406 238.515625 317.894531 241.441406 315.960938 242.546875 L 278.410156 263.785156 C 273.988281 266.3125 268.863281 267.328125 263.808594 266.683594 " fill-opacity="1" fill-rule="nonzero"/><path fill="#a5c6a3" d="M 231.003906 297.496094 C 229.894531 297.496094 228.78125 297.425781 227.675781 297.285156 L 137.480469 285.714844 C 137.179688 285.671875 136.964844 285.398438 137.003906 285.09375 C 137.042969 284.792969 137.320312 284.582031 137.621094 284.617188 L 227.816406 296.1875 C 233.253906 296.886719 238.875 295.769531 243.640625 293.050781 L 338.410156 238.90625 C 339.339844 238.375 339.523438 237.449219 339.390625 236.761719 C 339.25 236.074219 338.726562 235.289062 337.667969 235.152344 L 153.484375 211.355469 C 148.042969 210.65625 142.421875 211.773438 137.660156 214.492188 L 124.382812 222.078125 C 124.117188 222.230469 123.78125 222.136719 123.628906 221.875 C 123.476562 221.609375 123.570312 221.269531 123.835938 221.121094 L 137.113281 213.535156 C 142.082031 210.695312 147.945312 209.53125 153.621094 210.257812 L 337.808594 234.058594 C 339.160156 234.230469 340.207031 235.210938 340.472656 236.546875 C 340.738281 237.886719 340.144531 239.1875 338.957031 239.863281 L 244.183594 294.007812 C 240.183594 296.296875 235.601562 297.496094 231.003906 297.496094 " fill-opacity="1" fill-rule="nonzero"/><path fill="#314030" d="M 241.484375 195.664062 L 173.011719 187.132812 C 171 186.882812 169.203125 188.277344 169.171875 190.117188 L 169.171875 190.207031 C 169.148438 191.761719 170.40625 193.089844 172.109375 193.300781 L 241.339844 201.925781 L 241.484375 195.664062 " fill-opacity="1" fill-rule="nonzero"/><path fill="#6d8d6b" d="M 172.542969 187.65625 C 171.808594 187.65625 171.105469 187.90625 170.570312 188.371094 C 170.035156 188.839844 169.734375 189.460938 169.726562 190.125 L 169.722656 190.214844 C 169.703125 191.484375 170.757812 192.578125 172.175781 192.753906 L 309.183594 209.820312 C 310.058594 209.929688 310.921875 209.679688 311.554688 209.128906 C 312.089844 208.664062 312.390625 208.039062 312.398438 207.375 L 312.402344 207.285156 C 312.421875 206.015625 311.367188 204.925781 309.949219 204.75 L 172.941406 187.679688 C 172.808594 187.664062 172.675781 187.65625 172.542969 187.65625 Z M 309.578125 210.949219 C 309.40625 210.949219 309.222656 210.9375 309.042969 210.917969 L 172.039062 193.847656 C 170.0625 193.601562 168.589844 192.035156 168.621094 190.199219 L 168.621094 190.109375 C 168.636719 189.125 169.070312 188.214844 169.847656 187.539062 C 170.714844 186.785156 171.890625 186.4375 173.078125 186.585938 L 310.085938 203.652344 C 312.0625 203.898438 313.535156 205.46875 313.503906 207.304688 L 313.503906 207.394531 C 313.488281 208.375 313.050781 209.289062 312.277344 209.960938 C 311.542969 210.601562 310.582031 210.949219 309.578125 210.949219 " fill-opacity="1" fill-rule="nonzero"/><path fill="#ffffff" d="M 242.449219 198.285156 C 242.449219 200.699219 240.492188 202.660156 238.074219 202.660156 C 235.664062 202.660156 233.703125 200.699219 233.703125 198.285156 C 233.703125 195.871094 235.664062 193.910156 238.074219 193.910156 C 240.492188 193.910156 242.449219 195.871094 242.449219 198.285156 " fill-opacity="1" fill-rule="nonzero"/><path fill="#000000" d="M 227.015625 168.433594 L 252.648438 167.996094 L 252.835938 134.226562 L 207.882812 133.59375 L 211.816406 155.863281 C 213.117188 163.234375 219.558594 168.5625 227.015625 168.433594 " fill-opacity="1" fill-rule="nonzero"/><path fill="#000000" d="M 171.394531 152.1875 L 178.183594 152.070312 L 185.261719 135.394531 L 168.136719 132.992188 L 167.367188 148.859375 C 167.710938 150.8125 169.417969 152.222656 171.394531 152.1875 " fill-opacity="1" fill-rule="nonzero"/><path fill="#6d8d6b" d="M 188.570312 150.726562 C 187.964844 143.101562 184.851562 138.125 181.644531 138.378906 C 181.605469 138.382812 174.816406 138.445312 174.800781 138.445312 C 171.597656 138.699219 169.488281 145.089844 170.089844 152.710938 C 170.695312 160.332031 173.78125 166.304688 176.984375 166.050781 C 177.003906 166.050781 183.882812 165.484375 183.902344 165.480469 C 187.140625 164.988281 189.167969 158.300781 188.570312 150.726562 " fill-opacity="1" fill-rule="nonzero"/><path fill="#6d8d6b" d="M 181.695312 151.785156 C 182.296875 159.40625 180.191406 165.796875 176.984375 166.050781 C 173.78125 166.304688 170.695312 160.332031 170.089844 152.710938 C 169.488281 145.089844 171.597656 138.699219 174.800781 138.445312 C 178.003906 138.191406 181.09375 144.160156 181.695312 151.785156 " fill-opacity="1" fill-rule="nonzero"/><path fill="#000000" d="M 174.996094 138.988281 C 174.945312 138.988281 174.894531 138.992188 174.84375 138.996094 C 172.308594 139.199219 170.015625 144.742188 170.640625 152.667969 C 170.929688 156.28125 171.785156 159.625 173.054688 162.082031 C 174.230469 164.355469 175.636719 165.605469 176.941406 165.5 C 179.480469 165.296875 181.773438 159.753906 181.144531 151.828125 C 180.859375 148.214844 180.003906 144.871094 178.734375 142.414062 C 177.601562 140.226562 176.246094 138.988281 174.996094 138.988281 Z M 176.785156 166.609375 C 175.085938 166.609375 173.417969 165.191406 172.074219 162.589844 C 170.738281 160.003906 169.839844 156.511719 169.542969 152.753906 C 168.902344 144.707031 171.195312 138.179688 174.757812 137.894531 C 176.542969 137.753906 178.304688 139.179688 179.714844 141.90625 C 181.050781 144.492188 181.949219 147.984375 182.246094 151.742188 C 182.882812 159.789062 180.589844 166.316406 177.03125 166.601562 C 176.949219 166.605469 176.867188 166.609375 176.785156 166.609375 " fill-opacity="1" fill-rule="nonzero"/><path fill="#a5c6a3" d="M 180.050781 151.917969 C 180.484375 157.378906 178.972656 161.957031 176.675781 162.140625 C 174.378906 162.324219 172.167969 158.042969 171.734375 152.578125 C 171.300781 147.113281 172.8125 142.539062 175.109375 142.355469 C 177.40625 142.171875 179.621094 146.453125 180.050781 151.917969 " fill-opacity="1" fill-rule="nonzero"/><path fill="#6d8d6b" d="M 257.550781 164.441406 C 255.503906 153.730469 249.121094 147.339844 242.261719 147.933594 C 242.210938 147.9375 233.914062 148.039062 233.914062 148.039062 C 233.914062 148.039062 233.839844 148.050781 233.800781 148.058594 C 227.414062 149.289062 223.894531 158.96875 225.9375 169.683594 C 227.941406 180.160156 234.523438 187.746094 240.789062 186.925781 C 240.929688 186.90625 249.648438 185.253906 249.714844 185.242188 C 256.097656 184.011719 259.59375 175.160156 257.550781 164.441406 " fill-opacity="1" fill-rule="nonzero"/><path fill="#6d8d6b" d="M 249.066406 165.234375 C 251.113281 175.949219 247.59375 185.628906 241.207031 186.859375 C 234.820312 188.085938 227.984375 180.398438 225.9375 169.683594 C 223.894531 158.96875 227.414062 149.289062 233.800781 148.058594 C 240.1875 146.832031 247.023438 154.519531 249.066406 165.234375 " fill-opacity="1" fill-rule="nonzero"/><path fill="#000000" d="M 235.144531 148.484375 C 234.726562 148.484375 234.3125 148.523438 233.902344 148.601562 C 227.828125 149.769531 224.496094 159.183594 226.480469 169.578125 C 227.75 176.238281 231.046875 182.078125 235.082031 184.8125 C 237.082031 186.167969 239.160156 186.6875 241.101562 186.316406 C 247.179688 185.144531 250.511719 175.734375 248.527344 165.335938 C 247.253906 158.679688 243.957031 152.839844 239.925781 150.105469 C 238.347656 149.035156 236.714844 148.484375 235.144531 148.484375 Z M 239.855469 187.539062 C 238.066406 187.539062 236.226562 186.925781 234.460938 185.726562 C 230.128906 182.785156 226.742188 176.828125 225.394531 169.785156 C 223.296875 158.792969 227.019531 148.800781 233.695312 147.519531 C 235.925781 147.085938 238.296875 147.667969 240.542969 149.191406 C 244.878906 152.128906 248.265625 158.085938 249.609375 165.128906 C 251.710938 176.125 247.984375 186.117188 241.3125 187.402344 C 240.832031 187.492188 240.347656 187.539062 239.855469 187.539062 " fill-opacity="1" fill-rule="nonzero"/><path fill="#a5c6a3" d="M 246.007812 165.824219 C 247.511719 173.699219 244.921875 180.820312 240.226562 181.722656 C 235.53125 182.628906 230.503906 176.972656 229 169.09375 C 227.496094 161.214844 230.082031 154.097656 234.78125 153.191406 C 239.476562 152.289062 244.503906 157.945312 246.007812 165.824219 " fill-opacity="1" fill-rule="nonzero"/><path fill="#6d8d6b" d="M 307.433594 158.617188 C 305.386719 147.902344 299.003906 141.515625 292.144531 142.105469 C 292.109375 142.109375 288.574219 142.152344 286.117188 142.183594 C 285.351562 142.074219 284.585938 142.082031 283.828125 142.210938 C 283.808594 142.210938 283.796875 142.210938 283.796875 142.210938 C 283.796875 142.210938 283.71875 142.222656 283.679688 142.230469 C 283.484375 142.269531 283.285156 142.316406 283.09375 142.371094 C 282.316406 142.589844 281.585938 142.9375 280.90625 143.398438 C 280.0625 143.976562 279.296875 144.730469 278.617188 145.632812 C 278.210938 146.175781 277.839844 146.773438 277.5 147.417969 C 277.273438 147.847656 277.0625 148.296875 276.871094 148.769531 C 276.578125 149.472656 276.324219 150.222656 276.109375 151.007812 C 276.03125 151.269531 275.96875 151.535156 275.902344 151.808594 C 275.777344 152.347656 275.667969 152.90625 275.578125 153.472656 C 275.074219 156.613281 275.117188 160.171875 275.820312 163.859375 C 275.886719 164.1875 275.953125 164.515625 276.023438 164.839844 C 276.050781 164.949219 276.074219 165.050781 276.101562 165.15625 C 276.152344 165.375 276.199219 165.59375 276.253906 165.808594 C 276.285156 165.9375 276.324219 166.0625 276.359375 166.191406 C 276.410156 166.378906 276.457031 166.566406 276.511719 166.753906 C 276.550781 166.886719 276.59375 167.023438 276.632812 167.160156 C 276.6875 167.335938 276.734375 167.507812 276.789062 167.679688 C 276.832031 167.816406 276.878906 167.949219 276.925781 168.085938 C 276.984375 168.253906 277.035156 168.421875 277.09375 168.582031 C 277.144531 168.722656 277.195312 168.851562 277.242188 168.988281 C 277.300781 169.148438 277.359375 169.308594 277.421875 169.46875 C 277.476562 169.601562 277.527344 169.730469 277.582031 169.867188 C 277.644531 170.019531 277.707031 170.171875 277.769531 170.324219 C 277.824219 170.457031 277.882812 170.589844 277.945312 170.71875 C 278.007812 170.863281 278.070312 171.015625 278.140625 171.160156 C 278.199219 171.289062 278.261719 171.414062 278.324219 171.542969 C 278.390625 171.683594 278.457031 171.828125 278.527344 171.96875 C 278.59375 172.09375 278.660156 172.214844 278.722656 172.339844 C 278.792969 172.476562 278.867188 172.617188 278.9375 172.75 C 279.003906 172.875 279.070312 172.992188 279.140625 173.109375 C 279.214844 173.242188 279.289062 173.375 279.363281 173.503906 C 279.433594 173.621094 279.503906 173.734375 279.578125 173.851562 C 279.65625 173.980469 279.730469 174.105469 279.808594 174.226562 C 279.882812 174.339844 279.953125 174.449219 280.027344 174.5625 C 280.109375 174.683594 280.1875 174.804688 280.269531 174.921875 C 280.34375 175.03125 280.421875 175.136719 280.496094 175.246094 C 280.578125 175.363281 280.660156 175.476562 280.746094 175.585938 C 280.824219 175.691406 280.902344 175.792969 280.980469 175.894531 C 281.066406 176.003906 281.148438 176.113281 281.234375 176.21875 C 281.316406 176.316406 281.398438 176.414062 281.480469 176.511719 C 281.566406 176.613281 281.652344 176.71875 281.738281 176.816406 C 281.820312 176.910156 281.90625 177.003906 281.988281 177.09375 C 282.074219 177.191406 282.164062 177.289062 282.253906 177.382812 C 282.339844 177.472656 282.425781 177.558594 282.507812 177.644531 C 282.601562 177.734375 282.691406 177.824219 282.785156 177.914062 C 282.871094 177.996094 282.957031 178.078125 283.042969 178.15625 C 283.136719 178.242188 283.230469 178.324219 283.324219 178.40625 C 283.410156 178.484375 283.496094 178.558594 283.585938 178.632812 C 283.679688 178.710938 283.777344 178.789062 283.871094 178.863281 C 283.960938 178.933594 284.050781 179.003906 284.140625 179.070312 C 284.234375 179.144531 284.332031 179.214844 284.429688 179.28125 C 284.519531 179.347656 284.613281 179.410156 284.703125 179.46875 C 284.796875 179.535156 284.898438 179.601562 284.996094 179.660156 C 285.085938 179.71875 285.179688 179.777344 285.269531 179.828125 C 285.371094 179.890625 285.46875 179.945312 285.566406 180 C 285.660156 180.050781 285.753906 180.101562 285.847656 180.148438 C 285.945312 180.199219 286.046875 180.25 286.144531 180.296875 C 286.242188 180.339844 286.335938 180.386719 286.425781 180.425781 C 286.53125 180.472656 286.628906 180.511719 286.730469 180.554688 C 286.824219 180.589844 286.917969 180.625 287.011719 180.660156 C 287.113281 180.699219 287.214844 180.730469 287.316406 180.765625 C 287.414062 180.792969 287.507812 180.824219 287.601562 180.851562 C 287.707031 180.878906 287.808594 180.90625 287.910156 180.929688 C 288.003906 180.953125 288.101562 180.976562 288.195312 181 C 288.300781 181.019531 288.402344 181.035156 288.507812 181.050781 C 288.597656 181.066406 288.695312 181.082031 288.792969 181.097656 C 288.894531 181.109375 288.996094 181.117188 289.097656 181.128906 C 289.195312 181.136719 289.292969 181.144531 289.386719 181.148438 C 289.488281 181.152344 289.59375 181.152344 289.695312 181.152344 C 289.792969 181.152344 289.886719 181.15625 289.980469 181.152344 C 290.085938 181.148438 290.1875 181.140625 290.292969 181.132812 C 290.386719 181.125 290.480469 181.117188 290.578125 181.109375 C 290.609375 181.101562 290.636719 181.101562 290.671875 181.101562 C 290.679688 181.097656 290.742188 181.085938 290.84375 181.066406 C 290.925781 181.054688 291.007812 181.046875 291.089844 181.03125 C 291.152344 181.019531 291.210938 181 291.269531 180.988281 C 293.269531 180.613281 299.542969 179.425781 299.59375 179.414062 C 305.980469 178.183594 309.476562 169.332031 307.433594 158.617188 " fill-opacity="1" fill-rule="nonzero"/><path fill="#a5c6a3" d="M 295.890625 159.996094 C 297.394531 167.875 294.808594 174.992188 290.109375 175.898438 C 285.410156 176.800781 280.386719 171.144531 278.882812 163.265625 C 277.378906 155.390625 279.964844 148.269531 284.660156 147.367188 C 289.359375 146.460938 294.386719 152.117188 295.890625 159.996094 " fill-opacity="1" fill-rule="nonzero"/><path fill="#000000" d="M 285.652344 147.824219 C 285.351562 147.824219 285.058594 147.851562 284.769531 147.910156 C 280.375 148.753906 277.980469 155.597656 279.425781 163.164062 C 280.351562 168.023438 282.75 172.28125 285.6875 174.273438 C 287.125 175.246094 288.617188 175.621094 290.003906 175.355469 C 294.394531 174.511719 296.792969 167.667969 295.347656 160.097656 C 294.417969 155.242188 292.019531 150.984375 289.082031 148.992188 C 287.949219 148.21875 286.777344 147.824219 285.652344 147.824219 Z M 289.117188 176.542969 C 287.769531 176.542969 286.390625 176.082031 285.066406 175.183594 C 281.851562 173.003906 279.335938 168.585938 278.339844 163.371094 C 276.78125 155.207031 279.570312 147.78125 284.558594 146.824219 C 286.242188 146.5 288.019531 146.933594 289.703125 148.078125 C 292.921875 150.261719 295.4375 154.675781 296.433594 159.894531 C 297.988281 168.054688 295.199219 175.480469 290.214844 176.4375 C 289.851562 176.507812 289.484375 176.542969 289.117188 176.542969 " fill-opacity="1" fill-rule="nonzero"/><path fill="#ffffff" d="M 322.238281 164.96875 C 321.835938 163.382812 323.917969 156.222656 321.941406 149.472656 C 321.886719 149.292969 321.835938 149.117188 321.777344 148.941406 C 320.253906 144.167969 316.996094 140.140625 312.722656 137.542969 C 302.652344 131.429688 292.0625 129.128906 288.398438 128.476562 C 287.542969 128.324219 286.78125 127.867188 286.230469 127.195312 C 267.273438 104.1875 210.878906 104.691406 196.957031 106.449219 C 182.820312 108.234375 175.707031 121.53125 174.417969 122.75 C 173.757812 123.375 172.269531 123.980469 170.976562 124.414062 C 169.476562 124.925781 168.207031 125.957031 167.402344 127.324219 C 166.800781 128.34375 166.480469 129.503906 166.472656 130.6875 L 166.40625 147.1875 C 166.402344 148.050781 166.582031 148.90625 166.9375 149.695312 C 167.359375 150.640625 168.191406 151.335938 169.179688 151.625 L 169.273438 151.65625 C 168.246094 143.75 169.742188 137.199219 172.851562 136.65625 C 176.1875 136.070312 180.121094 142.628906 181.632812 151.308594 C 181.757812 152.023438 181.859375 152.730469 181.945312 153.425781 C 182.097656 154.6875 182.996094 155.730469 184.210938 156.089844 L 221.890625 167.28125 C 222.433594 167.441406 222.964844 166.996094 222.910156 166.433594 C 221.820312 154.960938 225.988281 145.226562 233 143.875 C 240.765625 142.382812 249.074219 151.730469 251.5625 164.753906 C 252.296875 168.617188 252.4375 172.363281 252.074219 175.769531 C 252.042969 176.035156 252.207031 176.28125 252.457031 176.355469 C 252.457031 176.355469 269.886719 179.554688 291.847656 177.511719 C 313.808594 175.472656 319.042969 171.792969 321.039062 170.199219 C 323.027344 168.601562 322.640625 166.5625 322.238281 164.96875 " fill-opacity="1" fill-rule="nonzero"/><path fill="#a5c6a3" d="M 201.050781 106.089844 C 211.648438 106.242188 220.253906 113.515625 228.03125 126.472656 C 229.523438 128.960938 232.039062 130.652344 234.878906 131.183594 C 246.441406 133.351562 276.8125 139.792969 287.640625 149.335938 C 288.652344 150.226562 288.875 151.722656 288.167969 152.875 C 284.148438 159.4375 268.40625 178.894531 252.457031 176.355469 C 252.457031 176.355469 269.886719 179.554688 291.847656 177.511719 C 313.808594 175.472656 319.042969 171.792969 321.039062 170.199219 C 323.027344 168.601562 322.640625 166.5625 322.238281 164.96875 C 321.835938 163.382812 323.917969 156.222656 321.941406 149.472656 C 321.886719 149.285156 321.828125 149.101562 321.769531 148.917969 C 320.238281 144.128906 316.964844 140.113281 312.671875 137.515625 C 302.621094 131.425781 292.058594 129.128906 288.402344 128.476562 C 287.554688 128.328125 286.789062 127.878906 286.242188 127.210938 C 270.339844 107.886719 228.046875 105.136719 206.628906 105.792969 L 201.050781 106.089844 " fill-opacity="1" fill-rule="nonzero"/><path fill="#000000" d="M 252.625 175.824219 C 253.804688 176.03125 270.835938 178.910156 291.796875 176.960938 C 314.316406 174.871094 319.113281 171.027344 320.695312 169.765625 C 322.375 168.421875 322.113281 166.726562 321.707031 165.105469 C 321.554688 164.503906 321.667969 163.480469 321.847656 161.925781 C 322.199219 158.824219 322.734375 154.140625 321.410156 149.628906 C 321.359375 149.453125 321.308594 149.28125 321.253906 149.109375 C 319.789062 144.519531 316.660156 140.578125 312.4375 138.015625 C 302.5625 132.019531 292.269531 129.726562 288.304688 129.019531 C 287.328125 128.847656 286.441406 128.324219 285.804688 127.546875 C 266.226562 103.785156 207.730469 105.644531 197.023438 107 C 185.296875 108.476562 178.453125 118.113281 175.875 121.742188 C 175.351562 122.480469 175.035156 122.925781 174.796875 123.148438 C 174.195312 123.722656 172.96875 124.324219 171.15625 124.9375 C 169.78125 125.402344 168.617188 126.351562 167.875 127.605469 C 167.324219 128.539062 167.03125 129.601562 167.027344 130.6875 L 166.957031 147.191406 C 166.953125 147.980469 167.117188 148.746094 167.4375 149.46875 C 167.683594 150.015625 168.097656 150.472656 168.617188 150.78125 C 167.761719 142.792969 169.453125 136.691406 172.757812 136.109375 C 173.652344 135.953125 174.582031 136.207031 175.519531 136.863281 C 178.398438 138.886719 181.011719 144.519531 182.175781 151.214844 C 182.300781 151.929688 182.40625 152.652344 182.492188 153.355469 C 182.621094 154.394531 183.355469 155.261719 184.367188 155.5625 L 222.050781 166.75 C 222.160156 166.777344 222.234375 166.734375 222.269531 166.703125 C 222.3125 166.671875 222.375 166.601562 222.363281 166.484375 C 221.21875 154.464844 225.648438 144.730469 232.898438 143.335938 C 235.582031 142.816406 238.429688 143.515625 241.136719 145.351562 C 246.375 148.90625 250.476562 156.121094 252.101562 164.648438 C 252.832031 168.476562 253.007812 172.234375 252.625 175.824219 Z M 276.980469 178.742188 C 262.613281 178.742188 252.492188 176.921875 252.359375 176.898438 C 252.339844 176.894531 252.320312 176.890625 252.300781 176.886719 C 251.796875 176.734375 251.46875 176.242188 251.523438 175.710938 C 251.898438 172.230469 251.730469 168.578125 251.015625 164.855469 C 249.46875 156.734375 245.445312 149.609375 240.515625 146.265625 C 238.054688 144.597656 235.496094 143.960938 233.105469 144.417969 C 226.535156 145.683594 222.386719 155.125 223.460938 166.378906 C 223.503906 166.828125 223.320312 167.269531 222.972656 167.554688 C 222.628906 167.84375 222.167969 167.9375 221.738281 167.808594 L 184.054688 156.617188 C 182.621094 156.191406 181.578125 154.964844 181.398438 153.492188 C 181.316406 152.804688 181.210938 152.101562 181.089844 151.402344 C 179.988281 145.078125 177.496094 139.601562 174.886719 137.765625 C 174.199219 137.285156 173.546875 137.089844 172.945312 137.199219 C 170.207031 137.679688 168.835938 143.996094 169.824219 151.582031 C 169.847656 151.769531 169.777344 151.953125 169.632812 152.074219 C 169.492188 152.195312 169.296875 152.238281 169.117188 152.183594 L 169.019531 152.152344 C 167.859375 151.808594 166.914062 150.996094 166.433594 149.921875 C 166.042969 149.054688 165.847656 148.132812 165.855469 147.183594 L 165.921875 130.683594 C 165.929688 129.402344 166.277344 128.144531 166.925781 127.042969 C 167.800781 125.5625 169.175781 124.441406 170.800781 123.890625 C 172.414062 123.34375 173.566406 122.796875 174.039062 122.347656 C 174.199219 122.199219 174.558594 121.691406 174.976562 121.105469 C 177.628906 117.367188 184.679688 107.441406 196.886719 105.902344 C 204.277344 104.96875 221.796875 104.488281 239.78125 106.988281 C 255.5 109.171875 276.394531 114.390625 286.65625 126.847656 C 287.125 127.417969 287.78125 127.804688 288.5 127.933594 C 292.523438 128.652344 302.976562 130.980469 313.007812 137.070312 C 317.460938 139.773438 320.761719 143.929688 322.304688 148.773438 C 322.363281 148.953125 322.417969 149.132812 322.46875 149.316406 C 323.855469 154.042969 323.304688 158.863281 322.941406 162.050781 C 322.796875 163.328125 322.671875 164.429688 322.773438 164.835938 C 323.117188 166.195312 323.761719 168.726562 321.382812 170.628906 C 319.742188 171.945312 314.746094 175.941406 291.898438 178.0625 C 286.617188 178.554688 281.578125 178.738281 276.980469 178.742188 " fill-opacity="1" fill-rule="nonzero"/><path fill="#6d8d6b" d="M 319.972656 167.730469 C 320.089844 168.378906 319.796875 169.035156 319.226562 169.363281 C 316.082031 171.183594 309.152344 173.800781 291.898438 175.402344 C 289.492188 175.625 287.144531 175.785156 284.867188 175.894531 C 284.394531 175.917969 284.144531 175.339844 284.484375 175.007812 L 285.9375 173.59375 C 287.792969 171.785156 290.273438 170.773438 292.859375 170.757812 C 298.871094 170.726562 310.402344 170.164062 317.804688 166.621094 C 318.714844 166.183594 319.792969 166.730469 319.972656 167.730469 " fill-opacity="1" fill-rule="nonzero"/><path fill="#ffffff" d="M 249.40625 142.792969 L 251.355469 145.441406 C 253.566406 148.445312 256.964844 150.34375 260.675781 150.640625 L 271.792969 151.527344 C 276.339844 151.894531 280.902344 151 284.980469 148.953125 L 285.34375 148.773438 C 285.34375 148.773438 268.824219 140.996094 249.734375 142.089844 C 249.386719 142.109375 249.199219 142.511719 249.40625 142.792969 " fill-opacity="1" fill-rule="nonzero"/><path fill="#6d8d6b" d="M 249.96875 142.628906 L 251.796875 145.117188 C 253.914062 147.996094 257.164062 149.804688 260.714844 150.089844 L 271.835938 150.980469 C 276.023438 151.3125 280.21875 150.5625 284.023438 148.804688 C 280.078125 147.152344 265.855469 141.769531 249.96875 142.628906 Z M 273.78125 152.160156 C 273.101562 152.160156 272.425781 152.132812 271.746094 152.082031 L 260.625 151.191406 C 256.757812 150.882812 253.214844 148.90625 250.910156 145.769531 L 248.960938 143.125 C 248.742188 142.828125 248.707031 142.4375 248.863281 142.109375 C 249.015625 141.777344 249.339844 141.558594 249.699219 141.539062 C 268.710938 140.449219 285.410156 148.195312 285.578125 148.277344 C 285.769531 148.363281 285.890625 148.554688 285.894531 148.769531 C 285.898438 148.980469 285.777344 149.171875 285.589844 149.269531 L 285.226562 149.449219 C 281.664062 151.238281 277.746094 152.160156 273.78125 152.160156 " fill-opacity="1" fill-rule="nonzero"/><path fill="#6d8d6b" d="M 272.300781 149.765625 L 264.648438 148.976562 C 260.941406 148.683594 257.539062 146.785156 255.332031 143.78125 L 254.0625 141.988281 C 267.179688 142.105469 278.488281 145.996094 283.113281 147.832031 C 283.113281 147.832031 278.578125 149.929688 272.300781 149.765625 " fill-opacity="1" fill-rule="nonzero"/><path fill="#6d8d6b" d="M 319.039062 150.027344 C 319.226562 149.953125 319.324219 149.738281 319.242188 149.550781 C 318.945312 148.871094 317.773438 148.089844 315.699219 148.007812 C 297.675781 147.3125 292.324219 150.292969 291.007812 151.351562 C 290.847656 151.484375 290.921875 151.746094 291.128906 151.769531 C 296.886719 152.390625 301.714844 152.472656 305.65625 152.289062 C 306.054688 152.273438 310.242188 151.925781 310.5625 151.886719 C 315.417969 151.296875 318.191406 150.351562 319.039062 150.027344 " fill-opacity="1" fill-rule="nonzero"/><path fill="#314030" d="M 321.28125 158.929688 C 321.453125 158.445312 320.867188 158.039062 320.46875 158.371094 C 317.226562 161.054688 309.433594 163.414062 296.316406 163.132812 C 285.753906 162.90625 272.285156 161.726562 265.0625 161.03125 C 264.605469 160.988281 264.5 161.652344 264.945312 161.757812 C 272.996094 163.664062 289.199219 167.101562 302.015625 167.289062 C 316.355469 167.496094 320.234375 161.929688 321.28125 158.929688 " fill-opacity="1" fill-rule="nonzero"/><path fill="#314030" d="M 179.265625 121.476562 C 179.070312 120.71875 179.234375 119.914062 179.714844 119.292969 C 182.023438 116.316406 189.617188 107.949219 201.667969 108.472656 C 219.285156 109.242188 227.363281 131.335938 227.363281 131.335938 C 227.363281 131.335938 189.796875 126.34375 180.84375 123.199219 C 180.066406 122.925781 179.476562 122.277344 179.265625 121.476562 " fill-opacity="1" fill-rule="nonzero"/><path fill="#a5c6a3" d="M 227.363281 131.890625 C 227.339844 131.890625 227.3125 131.886719 227.289062 131.882812 C 227.21875 131.875 220.140625 130.933594 211.519531 129.628906 C 211.21875 129.582031 211.011719 129.300781 211.054688 129 C 211.101562 128.699219 211.382812 128.488281 211.683594 128.539062 C 218.464844 129.5625 224.292969 130.363281 226.496094 130.664062 C 224.777344 126.609375 216.714844 109.683594 201.640625 109.027344 C 189.746094 108.5 182.183594 117.015625 180.152344 119.632812 C 179.777344 120.113281 179.648438 120.75 179.800781 121.335938 C 179.964844 121.96875 180.425781 122.46875 181.027344 122.679688 C 184.59375 123.929688 193.523438 125.699219 206.851562 127.792969 C 207.152344 127.839844 207.359375 128.121094 207.3125 128.421875 C 207.261719 128.726562 206.980469 128.933594 206.679688 128.882812 C 193.09375 126.75 184.339844 125.011719 180.660156 123.722656 C 179.710938 123.386719 178.992188 122.601562 178.730469 121.617188 C 178.492188 120.703125 178.699219 119.707031 179.277344 118.957031 C 181.390625 116.230469 189.257812 107.394531 201.691406 107.921875 C 209.0625 108.246094 215.9375 112.375 221.5625 119.863281 C 225.785156 125.480469 227.796875 130.917969 227.878906 131.148438 C 227.945312 131.328125 227.914062 131.53125 227.792969 131.683594 C 227.6875 131.816406 227.527344 131.890625 227.363281 131.890625 " fill-opacity="1" fill-rule="nonzero"/><path fill="#314030" d="M 261.292969 163.238281 C 260.777344 163.136719 260.3125 163.5625 260.46875 164.074219 L 262.519531 170.886719 C 263.066406 172.695312 264.65625 173.984375 266.535156 174.125 C 266.90625 174.15625 267.546875 174.210938 268.171875 174.265625 C 268.652344 174.3125 270.683594 174.25 272.363281 174.191406 C 274.4375 174.117188 276.3125 172.839844 277.042969 170.886719 C 277.261719 170.296875 277.375 169.671875 277.285156 169.050781 C 277.113281 167.878906 264.574219 163.902344 261.292969 163.238281 " fill-opacity="1" fill-rule="nonzero"/><path fill="#6d8d6b" d="M 261.300781 163.242188 C 260.789062 163.085938 260.316406 163.5625 260.46875 164.074219 L 262.523438 170.886719 C 263.066406 172.691406 264.660156 173.980469 266.535156 174.125 C 266.910156 174.152344 267.546875 174.207031 268.175781 174.265625 C 269.027344 174.34375 269.714844 173.578125 269.546875 172.734375 C 269.308594 171.550781 269.15625 169.71875 268.796875 167.234375 C 268.625 166.066406 267.9375 165.046875 266.796875 164.761719 C 265.28125 164.390625 263.285156 163.839844 261.300781 163.242188 " fill-opacity="1" fill-rule="nonzero"/><path fill="#6d8d6b" d="M 276.78125 169.246094 L 276.785156 169.246094 Z M 261.136719 163.777344 C 261.078125 163.777344 261.035156 163.800781 261.011719 163.828125 C 260.996094 163.847656 260.984375 163.867188 260.996094 163.914062 L 263.050781 170.726562 C 263.527344 172.304688 264.941406 173.449219 266.578125 173.574219 C 266.953125 173.601562 267.59375 173.660156 268.226562 173.714844 C 268.429688 173.734375 269.238281 173.75 272.34375 173.636719 C 274.246094 173.570312 275.882812 172.414062 276.527344 170.695312 C 276.726562 170.160156 276.800781 169.660156 276.75 169.210938 C 275.757812 168.125 264.804688 164.511719 261.1875 163.78125 C 261.171875 163.777344 261.15625 163.777344 261.136719 163.777344 Z M 268.769531 174.832031 C 268.464844 174.832031 268.25 174.824219 268.125 174.816406 C 267.5 174.757812 266.867188 174.703125 266.492188 174.675781 C 264.410156 174.515625 262.597656 173.054688 261.992188 171.042969 L 259.941406 164.230469 C 259.816406 163.824219 259.914062 163.394531 260.199219 163.082031 C 260.496094 162.753906 260.957031 162.609375 261.40625 162.699219 C 263.125 163.046875 267.179688 164.246094 270.636719 165.429688 C 277.667969 167.84375 277.773438 168.546875 277.832031 168.96875 C 277.929688 169.628906 277.835938 170.339844 277.5625 171.078125 C 276.761719 173.21875 274.730469 174.660156 272.382812 174.742188 C 270.691406 174.800781 269.484375 174.832031 268.769531 174.832031 " fill-opacity="1" fill-rule="nonzero"/><path fill="#a5c6a3" d="M 222.132812 128.078125 L 221.3125 126.304688 C 220.5625 124.679688 218.835938 123.742188 217.074219 124 L 211.433594 124.824219 C 210.648438 124.9375 209.992188 125.488281 209.738281 126.246094 L 209.125 128.085938 C 208.957031 128.597656 209.183594 129.160156 209.660156 129.410156 L 209.875 129.523438 C 210.800781 130.007812 211.808594 130.304688 212.851562 130.398438 L 227.257812 131.707031 C 227.960938 130.824219 227.402344 129.507812 226.277344 129.40625 L 223.6875 129.175781 C 223.011719 129.117188 222.417969 128.695312 222.132812 128.078125 " fill-opacity="1" fill-rule="nonzero"/><path fill="#6d8d6b" d="M 217.644531 124.511719 C 217.480469 124.511719 217.316406 124.523438 217.152344 124.546875 L 211.511719 125.371094 C 210.929688 125.453125 210.449219 125.859375 210.261719 126.421875 L 209.652344 128.257812 C 209.566406 128.515625 209.675781 128.796875 209.914062 128.917969 L 210.128906 129.03125 C 210.996094 129.484375 211.929688 129.761719 212.902344 129.847656 L 226.960938 131.125 C 227.039062 130.921875 227.035156 130.691406 226.945312 130.476562 C 226.816406 130.179688 226.546875 129.984375 226.226562 129.957031 L 223.636719 129.726562 C 222.769531 129.648438 222 129.105469 221.632812 128.3125 L 220.8125 126.535156 C 220.238281 125.296875 218.984375 124.511719 217.644531 124.511719 Z M 227.257812 132.257812 C 227.242188 132.257812 227.226562 132.257812 227.210938 132.257812 L 212.800781 130.949219 C 211.683594 130.847656 210.613281 130.53125 209.617188 130.007812 L 209.402344 129.898438 C 208.683594 129.523438 208.347656 128.683594 208.601562 127.910156 L 209.214844 126.070312 C 209.535156 125.109375 210.355469 124.425781 211.355469 124.277344 L 216.996094 123.453125 C 218.984375 123.164062 220.96875 124.238281 221.8125 126.070312 L 222.632812 127.847656 C 222.835938 128.285156 223.257812 128.582031 223.738281 128.625 L 226.328125 128.855469 C 227.058594 128.921875 227.667969 129.367188 227.957031 130.042969 C 228.246094 130.710938 228.144531 131.480469 227.691406 132.050781 C 227.585938 132.183594 227.425781 132.257812 227.257812 132.257812 " fill-opacity="1" fill-rule="nonzero"/><path fill="#a5c6a3" d="M 214.421875 108.390625 C 214.277344 108.308594 214.335938 108.089844 214.5 108.09375 C 219.019531 108.164062 246.097656 108.871094 262.824219 115.636719 C 272.257812 119.449219 277.6875 123.578125 281.628906 127.332031 C 281.984375 127.671875 281.734375 128.273438 281.242188 128.261719 C 276.980469 128.148438 262.765625 127.863281 237.613281 128.238281 C 232.753906 128.3125 230.34375 126.152344 225.464844 118.777344 C 221.4375 112.6875 216.140625 109.363281 214.421875 108.390625 " fill-opacity="1" fill-rule="nonzero"/><path fill="#ffffff" d="M 245.628906 114.691406 C 245.480469 114.410156 245.695312 114.078125 246.007812 114.121094 C 252.125 114.984375 258.574219 116.328125 263.753906 118.414062 C 271.117188 121.382812 275.355469 124.597656 278.433594 127.523438 C 278.714844 127.789062 278.519531 128.257812 278.136719 128.25 C 275.226562 128.175781 266.367188 128.003906 251.039062 128.175781 L 251.039062 128.160156 C 250.378906 125.910156 249.019531 121.070312 245.628906 114.691406 " fill-opacity="1" fill-rule="nonzero"/><path fill="#a5c6a3" d="M 253.933594 124.335938 C 251.898438 125.4375 250.296875 126.851562 249.382812 128.214844 C 250.164062 128.210938 250.929688 128.203125 251.679688 128.203125 C 252.402344 127.367188 253.515625 126.488281 254.875 125.757812 C 257.652344 124.253906 260.378906 123.921875 260.96875 125.019531 C 261.371094 125.769531 260.664062 126.992188 259.285156 128.171875 C 260.011719 128.171875 260.71875 128.171875 261.414062 128.171875 C 262.769531 126.640625 263.332031 125.066406 262.738281 123.957031 C 261.730469 122.082031 257.789062 122.25 253.933594 124.335938 " fill-opacity="1" fill-rule="nonzero"/><path fill="#6d8d6b" d="M 261.035156 127.5 C 272.128906 127.5 278.832031 127.644531 281.257812 127.710938 C 277.804688 124.453125 272.574219 120.175781 262.617188 116.148438 C 247.316406 109.964844 223.457031 108.867188 215.953125 108.675781 C 218.285156 110.179688 222.5625 113.390625 225.925781 118.472656 C 230.867188 125.945312 233.144531 127.746094 237.605469 127.6875 C 246.867188 127.546875 254.671875 127.5 261.035156 127.5 Z M 281.257812 128.8125 C 281.246094 128.8125 281.238281 128.8125 281.226562 128.8125 C 277.421875 128.714844 263.023438 128.410156 237.621094 128.789062 C 232.417969 128.855469 229.789062 126.316406 225.003906 119.082031 C 221.007812 113.042969 215.683594 109.738281 214.148438 108.871094 C 213.867188 108.714844 213.726562 108.382812 213.8125 108.066406 C 213.894531 107.753906 214.167969 107.527344 214.507812 107.542969 C 219.683594 107.625 246.339844 108.375 263.03125 115.125 C 273.160156 119.222656 278.496094 123.589844 282.007812 126.933594 C 282.335938 127.25 282.4375 127.722656 282.261719 128.140625 C 282.089844 128.554688 281.699219 128.8125 281.257812 128.8125 " fill-opacity="1" fill-rule="nonzero"/><path fill="#a5c6a3" d="M 195.546875 131.40625 C 195.371094 131.136719 195.601562 130.785156 195.917969 130.84375 L 203.90625 132.339844 C 205.246094 132.695312 206.179688 133.683594 206.6875 134.363281 C 206.875 134.613281 206.65625 134.964844 206.347656 134.90625 L 198.367188 133.402344 C 197.261719 133.195312 196.253906 132.484375 195.546875 131.40625 " fill-opacity="1" fill-rule="nonzero"/><path fill="#000000" d="M 307.980469 298.570312 C 307.882812 298.570312 307.785156 298.542969 307.691406 298.488281 L 305.71875 297.277344 C 305.457031 297.121094 305.378906 296.777344 305.539062 296.519531 C 305.699219 296.257812 306.039062 296.175781 306.296875 296.335938 L 308.269531 297.546875 C 308.53125 297.707031 308.609375 298.046875 308.449219 298.304688 C 308.347656 298.476562 308.167969 298.570312 307.980469 298.570312 " fill-opacity="1" fill-rule="nonzero"/><path fill="#000000" d="M 314.886719 302.804688 C 314.789062 302.804688 314.6875 302.777344 314.597656 302.722656 L 312.625 301.511719 C 312.363281 301.351562 312.28125 301.011719 312.445312 300.753906 C 312.601562 300.492188 312.941406 300.410156 313.203125 300.570312 L 315.175781 301.78125 C 315.433594 301.941406 315.515625 302.28125 315.355469 302.539062 C 315.25 302.710938 315.070312 302.804688 314.886719 302.804688 " fill-opacity="1" fill-rule="nonzero"/><path fill="#000000" d="M 307.753906 304.535156 C 307.65625 304.535156 307.558594 304.511719 307.46875 304.457031 C 307.207031 304.300781 307.121094 303.960938 307.28125 303.699219 L 308.476562 301.71875 C 308.636719 301.457031 308.972656 301.375 309.234375 301.53125 C 309.496094 301.6875 309.578125 302.027344 309.421875 302.289062 L 308.222656 304.269531 C 308.121094 304.441406 307.9375 304.535156 307.753906 304.535156 " fill-opacity="1" fill-rule="nonzero"/><path fill="#000000" d="M 311.941406 297.605469 C 311.84375 297.605469 311.746094 297.582031 311.65625 297.527344 C 311.394531 297.367188 311.3125 297.027344 311.46875 296.769531 L 312.671875 294.789062 C 312.824219 294.527344 313.164062 294.445312 313.425781 294.601562 C 313.6875 294.757812 313.769531 295.097656 313.613281 295.359375 L 312.414062 297.339844 C 312.3125 297.511719 312.128906 297.605469 311.941406 297.605469 " fill-opacity="1" fill-rule="nonzero"/><path fill="#000000" d="M 284.09375 67.53125 C 284.003906 67.53125 283.90625 67.507812 283.820312 67.460938 C 268.742188 58.769531 252.058594 54.085938 235.570312 53.914062 C 235.265625 53.910156 235.023438 53.660156 235.023438 53.355469 C 235.027344 53.054688 235.273438 52.808594 235.574219 52.808594 C 235.578125 52.808594 235.578125 52.808594 235.582031 52.808594 C 252.257812 52.980469 269.128906 57.714844 284.371094 66.503906 C 284.636719 66.65625 284.726562 66.992188 284.574219 67.257812 C 284.472656 67.433594 284.285156 67.53125 284.09375 67.53125 " fill-opacity="1" fill-rule="nonzero"/><path fill="#000000" d="M 272.03125 67.597656 C 271.953125 67.597656 271.871094 67.578125 271.796875 67.542969 C 261.914062 62.945312 251.628906 59.972656 241.230469 58.699219 C 240.925781 58.664062 240.710938 58.390625 240.75 58.085938 C 240.785156 57.785156 241.0625 57.570312 241.363281 57.605469 C 251.878906 58.890625 262.273438 61.898438 272.265625 66.542969 C 272.539062 66.671875 272.65625 67 272.53125 67.277344 C 272.4375 67.476562 272.238281 67.597656 272.03125 67.597656 " fill-opacity="1" fill-rule="nonzero"/><path fill="#000000" d="M 286.148438 71.203125 C 287.046875 71.597656 288.582031 72.273438 289.9375 72.835938 L 288.945312 68.640625 Z M 290.71875 74.304688 C 290.648438 74.304688 290.582031 74.289062 290.515625 74.265625 C 288.34375 73.398438 284.964844 71.882812 284.929688 71.867188 C 284.761719 71.792969 284.640625 71.632812 284.609375 71.449219 C 284.582031 71.265625 284.644531 71.082031 284.78125 70.957031 L 288.894531 67.191406 C 289.042969 67.058594 289.242188 67.011719 289.429688 67.070312 C 289.617188 67.128906 289.761719 67.277344 289.804688 67.46875 L 291.257812 73.625 C 291.304688 73.824219 291.234375 74.035156 291.078125 74.171875 C 290.976562 74.257812 290.847656 74.304688 290.71875 74.304688 " fill-opacity="1" fill-rule="nonzero"/><path fill="#000000" d="M 224.890625 337.089844 C 222.269531 337.089844 219.636719 337.023438 216.992188 336.890625 C 216.6875 336.871094 216.453125 336.613281 216.46875 336.308594 C 216.488281 336.003906 216.738281 335.769531 217.050781 335.785156 C 247.527344 337.328125 277.210938 329.636719 300.632812 314.117188 C 300.886719 313.953125 301.230469 314.019531 301.394531 314.273438 C 301.566406 314.527344 301.496094 314.871094 301.242188 315.039062 C 289.371094 322.902344 276.050781 328.773438 261.652344 332.492188 C 249.816406 335.550781 237.480469 337.089844 224.890625 337.089844 " fill-opacity="1" fill-rule="nonzero"/><path fill="#000000" d="M 235.789062 329.035156 C 235.5 329.035156 235.257812 328.8125 235.238281 328.519531 C 235.214844 328.214844 235.445312 327.953125 235.75 327.929688 C 257.746094 326.394531 278.554688 319.707031 295.921875 308.589844 C 296.175781 308.425781 296.519531 308.5 296.683594 308.757812 C 296.847656 309.015625 296.773438 309.355469 296.515625 309.519531 C 278.996094 320.734375 258.007812 327.484375 235.828125 329.03125 C 235.816406 329.035156 235.800781 329.035156 235.789062 329.035156 " fill-opacity="1" fill-rule="nonzero"/><path fill="#6d8d6b" d="M 45.078125 101.359375 C 44.21875 101.359375 43.425781 101.660156 42.816406 102.222656 C 42.136719 102.847656 41.765625 103.722656 41.765625 104.691406 L 41.765625 133.746094 C 41.765625 135.792969 43.429688 137.597656 45.476562 137.765625 L 125.539062 144.425781 C 126.511719 144.507812 127.425781 144.207031 128.109375 143.578125 C 128.789062 142.953125 129.160156 142.078125 129.160156 141.109375 L 129.160156 112.054688 C 129.160156 110.007812 127.496094 108.203125 125.449219 108.035156 L 45.386719 101.375 C 45.28125 101.363281 45.179688 101.359375 45.078125 101.359375 Z M 125.851562 145.546875 C 125.71875 145.546875 125.582031 145.539062 125.449219 145.527344 L 45.386719 138.867188 C 42.78125 138.648438 40.660156 136.351562 40.660156 133.746094 L 40.660156 104.691406 C 40.660156 103.410156 41.160156 102.246094 42.070312 101.410156 C 42.984375 100.570312 44.195312 100.167969 45.476562 100.273438 L 125.539062 106.933594 C 128.144531 107.152344 130.265625 109.449219 130.265625 112.054688 L 130.265625 141.109375 C 130.265625 142.390625 129.765625 143.554688 128.855469 144.390625 C 128.039062 145.140625 126.984375 145.546875 125.851562 145.546875 " fill-opacity="1" fill-rule="nonzero"/><path fill="#6d8d6b" d="M 118.03125 123.589844 C 118.015625 123.589844 118 123.589844 117.984375 123.589844 L 54.355469 118.292969 C 54.050781 118.269531 53.824219 118.003906 53.851562 117.699219 C 53.875 117.394531 54.148438 117.171875 54.445312 117.195312 L 118.074219 122.484375 C 118.378906 122.511719 118.605469 122.78125 118.578125 123.082031 C 118.554688 123.371094 118.3125 123.589844 118.03125 123.589844 " fill-opacity="1" fill-rule="nonzero"/><path fill="#6d8d6b" d="M 118.03125 132.09375 C 118.015625 132.09375 118 132.09375 117.984375 132.09375 L 104.679688 130.988281 C 104.375 130.960938 104.148438 130.691406 104.175781 130.390625 C 104.199219 130.085938 104.472656 129.867188 104.769531 129.886719 L 118.074219 130.992188 C 118.378906 131.015625 118.605469 131.285156 118.578125 131.585938 C 118.554688 131.875 118.3125 132.09375 118.03125 132.09375 " fill-opacity="1" fill-rule="nonzero"/><path fill="#6d8d6b" d="M 96.570312 130.308594 C 96.554688 130.308594 96.539062 130.308594 96.523438 130.308594 L 54.355469 126.796875 C 54.050781 126.773438 53.824219 126.503906 53.851562 126.203125 C 53.875 125.898438 54.152344 125.675781 54.445312 125.695312 L 96.613281 129.203125 C 96.917969 129.230469 97.144531 129.496094 97.117188 129.800781 C 97.09375 130.089844 96.851562 130.308594 96.570312 130.308594 " fill-opacity="1" fill-rule="nonzero"/><path fill="#ffffff" d="M 140.972656 83.167969 C 143.355469 83.347656 145.289062 85.40625 145.289062 87.765625 L 145.289062 117.160156 C 145.289062 119.515625 143.355469 121.28125 140.972656 121.101562 L 59.0625 114.929688 C 56.679688 114.75 54.746094 112.691406 54.746094 110.332031 L 54.746094 80.941406 C 54.746094 78.582031 56.679688 76.816406 59.0625 76.996094 L 140.972656 83.167969 " fill-opacity="1" fill-rule="nonzero"/><path fill="#6d8d6b" d="M 54.746094 110.882812 C 54.441406 110.882812 54.195312 110.636719 54.195312 110.332031 L 54.195312 80.941406 C 54.195312 79.652344 54.699219 78.476562 55.613281 77.628906 C 56.546875 76.765625 57.789062 76.347656 59.105469 76.445312 L 122.859375 81.105469 C 123.164062 81.128906 123.390625 81.394531 123.371094 81.699219 C 123.347656 82.003906 123.078125 82.230469 122.777344 82.207031 L 59.023438 77.542969 C 58.011719 77.464844 57.070312 77.785156 56.363281 78.4375 C 55.675781 79.078125 55.296875 79.964844 55.296875 80.941406 L 55.296875 110.332031 C 55.296875 110.636719 55.050781 110.882812 54.746094 110.882812 " fill-opacity="1" fill-rule="nonzero"/><path fill="#6d8d6b" d="M 145.289062 109.492188 C 144.984375 109.492188 144.738281 109.246094 144.738281 108.941406 L 144.738281 87.765625 C 144.738281 85.691406 143.03125 83.875 140.929688 83.71875 L 122.773438 82.207031 C 122.46875 82.183594 122.242188 81.914062 122.269531 81.613281 C 122.292969 81.308594 122.5625 81.089844 122.863281 81.109375 L 141.019531 82.617188 C 143.675781 82.816406 145.84375 85.125 145.84375 87.765625 L 145.84375 108.941406 C 145.84375 109.246094 145.59375 109.492188 145.289062 109.492188 " fill-opacity="1" fill-rule="nonzero"/><path fill="#6d8d6b" d="M 133.335938 97.136719 C 133.324219 97.136719 133.308594 97.132812 133.296875 97.132812 L 68.199219 92.226562 C 67.894531 92.203125 67.664062 91.9375 67.6875 91.632812 C 67.710938 91.332031 67.980469 91.097656 68.28125 91.125 L 133.378906 96.03125 C 133.683594 96.054688 133.910156 96.320312 133.886719 96.621094 C 133.863281 96.914062 133.621094 97.136719 133.335938 97.136719 " fill-opacity="1" fill-rule="nonzero"/><path fill="#6d8d6b" d="M 133.335938 105.738281 C 133.324219 105.738281 133.308594 105.738281 133.296875 105.738281 L 119.683594 104.710938 C 119.378906 104.691406 119.152344 104.425781 119.175781 104.121094 C 119.199219 103.816406 119.464844 103.585938 119.765625 103.613281 L 133.378906 104.636719 C 133.683594 104.660156 133.910156 104.925781 133.886719 105.230469 C 133.863281 105.519531 133.621094 105.738281 133.335938 105.738281 " fill-opacity="1" fill-rule="nonzero"/><path fill="#6d8d6b" d="M 100.019531 103.230469 C 100.003906 103.230469 99.992188 103.230469 99.976562 103.230469 L 68.195312 100.832031 C 67.894531 100.8125 67.664062 100.542969 67.6875 100.242188 C 67.710938 99.9375 67.980469 99.710938 68.28125 99.730469 L 100.058594 102.128906 C 100.363281 102.148438 100.589844 102.417969 100.566406 102.71875 C 100.546875 103.007812 100.304688 103.230469 100.019531 103.230469 " fill-opacity="1" fill-rule="nonzero"/><path fill="#ffffff" d="M 222.878906 94.390625 L 92.238281 85.652344 C 88.796875 85.421875 86.007812 82.472656 86.007812 79.070312 L 86.007812 57.171875 C 86.007812 53.769531 88.796875 51.195312 92.238281 51.425781 L 222.878906 60.160156 C 226.320312 60.390625 229.105469 63.335938 229.105469 66.742188 L 229.105469 88.640625 C 229.105469 92.046875 226.320312 94.621094 222.878906 94.390625 " fill-opacity="1" fill-rule="nonzero"/><path fill="#000000" d="M 91.808594 51.960938 C 90.433594 51.960938 89.15625 52.453125 88.183594 53.363281 C 87.136719 54.34375 86.5625 55.695312 86.5625 57.171875 L 86.5625 79.070312 C 86.5625 82.183594 89.125 84.890625 92.273438 85.101562 L 222.914062 93.835938 C 224.441406 93.941406 225.867188 93.445312 226.933594 92.449219 C 227.980469 91.46875 228.554688 90.117188 228.554688 88.640625 L 228.554688 66.742188 C 228.554688 63.628906 225.992188 60.921875 222.839844 60.710938 L 92.199219 51.972656 C 92.070312 51.964844 91.9375 51.960938 91.808594 51.960938 Z M 223.3125 94.957031 C 223.15625 94.957031 223 94.949219 222.839844 94.9375 L 92.199219 86.203125 C 88.480469 85.953125 85.457031 82.753906 85.457031 79.070312 L 85.457031 57.171875 C 85.457031 55.386719 86.15625 53.746094 87.429688 52.558594 C 88.722656 51.347656 90.441406 50.75 92.273438 50.871094 L 222.914062 59.609375 C 226.636719 59.855469 229.65625 63.058594 229.65625 66.742188 L 229.65625 88.640625 C 229.65625 90.425781 228.957031 92.066406 227.6875 93.253906 C 226.503906 94.359375 224.964844 94.957031 223.3125 94.957031 " fill-opacity="1" fill-rule="nonzero"/><path fill="#6d8d6b" d="M 114.523438 64.726562 L 108.792969 63.515625 L 106.230469 58.203125 C 105.679688 57.0625 104.085938 56.953125 103.535156 58.023438 L 100.972656 62.992188 L 95.238281 63.4375 C 94.007812 63.53125 93.515625 64.996094 94.40625 65.917969 L 98.554688 70.195312 L 97.574219 75.785156 C 97.363281 76.984375 98.652344 77.996094 99.753906 77.496094 L 104.882812 75.171875 L 110.007812 78.183594 C 111.109375 78.832031 112.398438 77.992188 112.1875 76.761719 L 111.210938 71.042969 L 115.355469 67.316406 C 116.25 66.515625 115.757812 64.984375 114.523438 64.726562 " fill-opacity="1" fill-rule="nonzero"/><path fill="#6d8d6b" d="M 140.988281 66.496094 L 135.257812 65.289062 L 132.695312 59.976562 C 132.144531 58.832031 130.550781 58.726562 130 59.792969 L 127.4375 64.765625 L 121.703125 65.207031 C 120.472656 65.300781 119.980469 66.765625 120.871094 67.6875 L 125.019531 71.96875 L 124.039062 77.554688 C 123.828125 78.753906 125.117188 79.769531 126.21875 79.265625 L 131.347656 76.945312 L 136.472656 79.953125 C 137.574219 80.601562 138.863281 79.761719 138.652344 78.53125 L 137.675781 72.8125 L 141.820312 69.089844 C 142.714844 68.289062 142.222656 66.757812 140.988281 66.496094 " fill-opacity="1" fill-rule="nonzero"/><path fill="#6d8d6b" d="M 167.457031 68.261719 L 161.722656 67.058594 L 159.160156 61.742188 C 158.609375 60.597656 157.015625 60.492188 156.464844 61.5625 L 153.902344 66.53125 L 148.167969 66.972656 C 146.9375 67.070312 146.445312 68.535156 147.335938 69.457031 L 151.484375 73.734375 L 150.507812 79.324219 C 150.296875 80.523438 151.582031 81.535156 152.6875 81.035156 L 157.8125 78.710938 L 162.941406 81.722656 C 164.042969 82.371094 165.332031 81.527344 165.121094 80.300781 L 164.140625 74.582031 L 168.289062 70.855469 C 169.179688 70.054688 168.6875 68.523438 167.457031 68.261719 " fill-opacity="1" fill-rule="nonzero"/><path fill="#6d8d6b" d="M 193.921875 70.035156 L 188.1875 68.828125 L 185.625 63.511719 C 185.074219 62.371094 183.480469 62.265625 182.929688 63.332031 L 180.367188 68.304688 L 174.632812 68.746094 C 173.402344 68.839844 172.910156 70.304688 173.800781 71.226562 L 177.949219 75.503906 L 176.972656 81.09375 C 176.761719 82.292969 178.050781 83.308594 179.152344 82.804688 L 184.277344 80.480469 L 189.402344 83.492188 C 190.507812 84.140625 191.792969 83.296875 191.585938 82.070312 L 190.605469 76.351562 L 194.753906 72.625 C 195.644531 71.824219 195.152344 70.292969 193.921875 70.035156 " fill-opacity="1" fill-rule="nonzero"/><path fill="#6d8d6b" d="M 220.382812 71.804688 L 214.65625 70.597656 L 212.089844 65.28125 C 211.539062 64.140625 209.945312 64.035156 209.398438 65.105469 L 206.832031 70.074219 L 201.101562 70.515625 C 199.867188 70.609375 199.375 72.074219 200.269531 72.996094 L 204.414062 77.277344 L 203.433594 82.863281 C 203.226562 84.066406 204.511719 85.078125 205.617188 84.578125 L 210.742188 82.25 L 215.871094 85.265625 C 216.972656 85.910156 218.257812 85.070312 218.050781 83.839844 L 217.070312 78.125 L 221.21875 74.398438 C 222.109375 73.597656 221.617188 72.066406 220.382812 71.804688 " fill-opacity="1" fill-rule="nonzero"/><path fill="#a5c6a3" d="M 49.425781 336.003906 L 124.996094 336.003906 C 129.417969 336.003906 133 332.421875 133 328 L 133 276.636719 C 133 272.214844 129.417969 268.632812 124.996094 268.632812 L 49.425781 268.632812 C 45.003906 268.632812 41.421875 272.214844 41.421875 276.636719 L 41.421875 328 C 41.421875 332.421875 45.003906 336.003906 49.425781 336.003906 " fill-opacity="1" fill-rule="nonzero"/><path fill="#a5c6a3" d="M 42.640625 279.828125 L 131.722656 279.828125 C 133.113281 279.828125 134.238281 278.703125 134.238281 277.3125 L 134.238281 271.128906 C 134.238281 269.742188 133.113281 268.613281 131.722656 268.613281 L 42.640625 268.613281 C 41.25 268.613281 40.125 269.742188 40.125 271.128906 L 40.125 277.3125 C 40.125 278.703125 41.25 279.828125 42.640625 279.828125 " fill-opacity="1" fill-rule="nonzero"/><path fill="#ffffff" d="M 132.03125 280.378906 L 42.332031 280.378906 C 40.8125 280.378906 39.574219 279.101562 39.574219 277.527344 L 39.574219 270.914062 C 39.574219 269.339844 40.8125 268.0625 42.332031 268.0625 L 97.519531 268.0625 C 97.824219 268.0625 98.070312 268.308594 98.070312 268.613281 C 98.070312 268.917969 97.824219 269.167969 97.519531 269.167969 L 42.332031 269.167969 C 41.421875 269.167969 40.679688 269.949219 40.679688 270.914062 L 40.679688 277.527344 C 40.679688 278.492188 41.421875 279.273438 42.332031 279.273438 L 132.03125 279.273438 C 132.335938 279.273438 132.582031 279.523438 132.582031 279.828125 C 132.582031 280.132812 132.335938 280.378906 132.03125 280.378906 " fill-opacity="1" fill-rule="nonzero"/><path fill="#ffffff" d="M 74.046875 334.652344 C 74.042969 334.652344 74.039062 334.652344 74.039062 334.652344 C 73.730469 334.648438 73.488281 334.394531 73.496094 334.089844 L 74.355469 281.835938 C 74.359375 281.535156 74.605469 281.292969 74.90625 281.292969 C 74.910156 281.292969 74.914062 281.292969 74.917969 281.292969 C 75.222656 281.296875 75.464844 281.550781 75.460938 281.855469 L 74.597656 334.109375 C 74.59375 334.410156 74.347656 334.652344 74.046875 334.652344 " fill-opacity="1" fill-rule="nonzero"/><path fill="#ffffff" d="M 127.558594 328.039062 C 128.4375 327.148438 133.539062 311.285156 133.539062 311.285156 L 143.613281 318.472656 L 132.566406 333.324219 L 127.558594 328.039062 " fill-opacity="1" fill-rule="nonzero"/><path fill="#000000" d="M 128.242188 327.960938 L 132.515625 332.464844 L 142.835938 318.59375 L 133.832031 312.171875 C 132.539062 316.167969 129.433594 325.640625 128.242188 327.960938 Z M 132.566406 333.875 C 132.417969 333.875 132.273438 333.8125 132.167969 333.703125 L 127.15625 328.421875 C 126.953125 328.207031 126.957031 327.871094 127.160156 327.660156 C 127.804688 326.859375 131.089844 317.089844 133.011719 311.113281 C 133.066406 310.945312 133.199219 310.8125 133.363281 310.757812 C 133.53125 310.703125 133.714844 310.730469 133.859375 310.832031 L 143.933594 318.023438 C 144.054688 318.109375 144.136719 318.242188 144.160156 318.386719 C 144.183594 318.535156 144.144531 318.683594 144.054688 318.804688 L 133.011719 333.652344 C 132.914062 333.78125 132.761719 333.863281 132.601562 333.875 C 132.589844 333.875 132.578125 333.875 132.566406 333.875 " fill-opacity="1" fill-rule="nonzero"/><g clip-path="url(#1ebecbc5cf)"><path fill="#000000" d="M 145.714844 348.101562 L 139.011719 348.0625 C 134.582031 348.035156 130.457031 345.78125 128.039062 342.066406 L 121.414062 331.574219 C 119.582031 328.675781 120.609375 324.832031 123.636719 323.222656 C 126.398438 321.753906 129.296875 320.320312 129.976562 320.386719 C 131.355469 320.515625 131.910156 327.039062 131.910156 327.039062 L 137.882812 327.269531 C 137.882812 327.269531 140.832031 339.535156 143.425781 340.929688 C 145.316406 341.945312 146.636719 343.4375 147.523438 344.796875 C 148.453125 346.226562 147.414062 348.113281 145.714844 348.101562 " fill-opacity="1" fill-rule="nonzero"/></g><path fill="#ffffff" d="M 145.039062 346.035156 C 145.011719 346.035156 144.984375 346.035156 144.957031 346.03125 L 135.792969 344.648438 C 133.566406 344.3125 131.625 343.015625 130.46875 341.082031 L 122.371094 327.546875 C 122.214844 327.285156 122.296875 326.945312 122.558594 326.789062 C 122.820312 326.632812 123.160156 326.71875 123.316406 326.980469 L 131.414062 340.515625 C 132.402344 342.160156 134.058594 343.269531 135.957031 343.558594 L 145.121094 344.9375 C 145.421875 344.984375 145.628906 345.265625 145.585938 345.566406 C 145.542969 345.839844 145.308594 346.035156 145.039062 346.035156 " fill-opacity="1" fill-rule="nonzero"/><path fill="#ffffff" d="M 133.726562 335.859375 C 133.484375 335.859375 133.261719 335.699219 133.195312 335.453125 C 133.113281 335.160156 133.289062 334.855469 133.582031 334.773438 L 138.6875 333.382812 C 138.980469 333.304688 139.285156 333.476562 139.367188 333.769531 C 139.445312 334.066406 139.273438 334.371094 138.976562 334.449219 L 133.871094 335.839844 C 133.824219 335.851562 133.773438 335.859375 133.726562 335.859375 " fill-opacity="1" fill-rule="nonzero"/><path fill="#ffffff" d="M 136.386719 338.484375 C 136.136719 338.484375 135.914062 338.3125 135.851562 338.0625 C 135.777344 337.765625 135.960938 337.46875 136.253906 337.394531 L 139.679688 336.558594 C 139.976562 336.484375 140.273438 336.664062 140.347656 336.960938 C 140.417969 337.257812 140.238281 337.554688 139.941406 337.628906 L 136.519531 338.46875 C 136.472656 338.476562 136.429688 338.484375 136.386719 338.484375 " fill-opacity="1" fill-rule="nonzero"/><path fill="#ffffff" d="M 161.933594 325.015625 L 173.632812 336.769531 L 179.835938 334.492188 L 169.050781 319.453125 L 161.933594 325.015625 " fill-opacity="1" fill-rule="nonzero"/><path fill="#000000" d="M 162.765625 325.066406 L 173.773438 336.128906 L 178.960938 334.222656 L 168.9375 320.238281 Z M 173.632812 337.324219 C 173.488281 337.324219 173.347656 337.265625 173.242188 337.160156 L 161.542969 325.402344 C 161.433594 325.292969 161.375 325.136719 161.382812 324.980469 C 161.394531 324.824219 161.472656 324.675781 161.597656 324.578125 L 168.710938 319.015625 C 168.828125 318.921875 168.980469 318.882812 169.128906 318.90625 C 169.277344 318.925781 169.410156 319.007812 169.5 319.132812 L 180.28125 334.171875 C 180.382812 334.3125 180.414062 334.488281 180.359375 334.652344 C 180.3125 334.820312 180.1875 334.949219 180.023438 335.011719 L 173.824219 337.289062 C 173.761719 337.3125 173.695312 337.324219 173.632812 337.324219 " fill-opacity="1" fill-rule="nonzero"/><g clip-path="url(#2cc1d626ec)"><path fill="#000000" d="M 169.9375 334.929688 C 169.9375 334.929688 169.371094 339.933594 170.332031 344.351562 C 170.84375 346.707031 172.964844 348.363281 175.375 348.363281 L 204.082031 348.363281 C 206.132812 348.363281 207.0625 345.800781 205.492188 344.484375 C 200.386719 340.207031 190.996094 333.675781 179.449219 331.753906 L 176.230469 336.265625 L 169.9375 334.929688 " fill-opacity="1" fill-rule="nonzero"/></g><path fill="#ffffff" d="M 202.71875 344.96875 L 172.964844 344.96875 C 172.660156 344.96875 172.410156 344.71875 172.410156 344.417969 C 172.410156 344.109375 172.660156 343.863281 172.964844 343.863281 L 202.71875 343.863281 C 203.019531 343.863281 203.269531 344.109375 203.269531 344.417969 C 203.269531 344.71875 203.019531 344.96875 202.71875 344.96875 " fill-opacity="1" fill-rule="nonzero"/><path fill="#ffffff" d="M 186.117188 339.679688 C 186.046875 339.679688 185.972656 339.667969 185.90625 339.640625 C 185.625 339.523438 185.488281 339.199219 185.605469 338.917969 L 187.179688 335.097656 C 187.296875 334.816406 187.621094 334.679688 187.902344 334.796875 C 188.183594 334.914062 188.316406 335.238281 188.203125 335.519531 L 186.625 339.339844 C 186.539062 339.550781 186.332031 339.679688 186.117188 339.679688 " fill-opacity="1" fill-rule="nonzero"/><path fill="#ffffff" d="M 191.292969 340.6875 C 191.238281 340.6875 191.179688 340.675781 191.121094 340.65625 C 190.832031 340.5625 190.671875 340.25 190.769531 339.960938 L 191.910156 336.515625 C 192.003906 336.222656 192.316406 336.066406 192.605469 336.164062 C 192.894531 336.257812 193.054688 336.570312 192.957031 336.859375 L 191.816406 340.308594 C 191.742188 340.539062 191.527344 340.6875 191.292969 340.6875 " fill-opacity="1" fill-rule="nonzero"/><path fill="#000000" d="M 100.015625 242.746094 C 100.015625 242.746094 153.476562 236.519531 169.375 250.289062 C 185.273438 264.054688 144.28125 323.246094 144.28125 323.246094 L 131.316406 313.628906 L 143.613281 271.792969 L 94.195312 257.753906 L 100.015625 242.746094 " fill-opacity="1" fill-rule="nonzero"/><path fill="#000000" d="M 70.59375 269.992188 C 78.359375 272.457031 92.257812 275.644531 111.675781 275.378906 C 117.195312 275.300781 122.289062 278.351562 124.796875 283.269531 C 130.546875 294.554688 142.996094 314.871094 163.277344 328.039062 L 172.964844 322.820312 L 148.242188 267.152344 C 145.984375 262.074219 141.765625 258.121094 136.542969 256.207031 L 87.550781 238.234375 C 87.550781 238.234375 72.355469 233.988281 64.910156 247.554688 C 63.578125 249.976562 61.109375 245.648438 60.519531 247.601562 C 58.503906 254.304688 63.925781 267.875 70.59375 269.992188 " fill-opacity="1" fill-rule="nonzero"/><path fill="#ffffff" d="M 159.414062 292.863281 C 159.203125 292.863281 159.003906 292.738281 158.910156 292.535156 L 147.738281 267.378906 C 145.554688 262.460938 141.40625 258.578125 136.355469 256.726562 L 112.890625 248.121094 C 112.605469 248.015625 112.457031 247.699219 112.5625 247.410156 C 112.667969 247.125 112.984375 246.976562 113.269531 247.082031 L 136.734375 255.6875 C 142.066406 257.644531 146.441406 261.742188 148.746094 266.929688 L 159.917969 292.085938 C 160.042969 292.363281 159.917969 292.691406 159.636719 292.8125 C 159.566406 292.847656 159.488281 292.863281 159.414062 292.863281 " fill-opacity="1" fill-rule="nonzero"/><path fill="#ffffff" d="M 146.371094 314.488281 C 146.226562 314.488281 146.082031 314.429688 145.972656 314.316406 C 143.722656 311.976562 141.507812 309.464844 139.390625 306.84375 C 139.199219 306.609375 139.238281 306.257812 139.472656 306.070312 C 139.710938 305.878906 140.058594 305.914062 140.25 306.152344 C 142.347656 308.746094 144.539062 311.234375 146.769531 313.550781 C 146.980469 313.773438 146.972656 314.121094 146.753906 314.332031 C 146.644531 314.433594 146.507812 314.488281 146.371094 314.488281 " fill-opacity="1" fill-rule="nonzero"/><path fill="#ffffff" d="M 139.820312 307.050781 C 139.660156 307.050781 139.5 306.980469 139.390625 306.84375 C 138.355469 305.5625 137.320312 304.230469 136.3125 302.875 C 136.128906 302.632812 136.179688 302.285156 136.425781 302.105469 C 136.667969 301.921875 137.015625 301.972656 137.195312 302.214844 C 138.195312 303.558594 139.222656 304.878906 140.25 306.152344 C 140.441406 306.386719 140.40625 306.734375 140.167969 306.925781 C 140.066406 307.011719 139.941406 307.050781 139.820312 307.050781 " fill-opacity="1" fill-rule="nonzero"/><path fill="#ffffff" d="M 169.699219 164.53125 L 155.773438 172.050781 C 155.773438 172.050781 147.234375 194.320312 135.015625 195.664062 C 122.792969 197.003906 110.707031 180.097656 110.707031 180.097656 L 102.59375 197.457031 C 102.59375 197.457031 114.503906 215.882812 133.394531 212.910156 C 152.285156 209.941406 157.433594 181.558594 157.433594 181.558594 C 157.421875 181.574219 161.902344 182 163.589844 177.636719 C 165.027344 173.921875 164.429688 171.734375 164.429688 171.734375 C 164.429688 171.734375 171.140625 168.152344 169.699219 164.53125 " fill-opacity="1" fill-rule="nonzero"/><path fill="#000000" d="M 103.226562 197.40625 C 104.738281 199.578125 116.1875 215.054688 133.308594 212.367188 C 151.589844 209.492188 156.839844 181.738281 156.890625 181.457031 C 156.929688 181.230469 157.113281 181.050781 157.339844 181.011719 C 157.40625 181.003906 157.472656 181.003906 157.535156 181.015625 C 157.769531 181.035156 161.585938 181.296875 163.078125 177.4375 C 164.417969 173.972656 163.898438 171.898438 163.894531 171.878906 C 163.828125 171.632812 163.945312 171.371094 164.167969 171.25 C 165.773438 170.386719 169.550781 167.785156 169.335938 165.355469 L 156.214844 172.4375 C 155.289062 174.78125 147.015625 194.898438 135.074219 196.210938 C 124.03125 197.417969 113.367188 184.496094 110.8125 181.164062 Z M 129.332031 213.78125 C 121.296875 213.785156 114.816406 210.101562 110.566406 206.730469 C 105.21875 202.488281 102.253906 197.945312 102.128906 197.757812 C 102.027344 197.59375 102.011719 197.394531 102.09375 197.222656 L 110.203125 179.863281 C 110.289062 179.683594 110.460938 179.566406 110.65625 179.546875 C 110.847656 179.523438 111.039062 179.613281 111.15625 179.777344 C 111.273438 179.941406 123.1875 196.40625 134.953125 195.113281 C 146.699219 193.824219 155.171875 172.070312 155.257812 171.851562 C 155.304688 171.730469 155.394531 171.625 155.511719 171.5625 L 169.4375 164.042969 C 169.578125 163.96875 169.742188 163.957031 169.886719 164.011719 C 170.035156 164.066406 170.15625 164.179688 170.210938 164.324219 C 171.628906 167.882812 166.476562 171.1875 165.042969 172.023438 C 165.15625 172.871094 165.238281 174.90625 164.105469 177.835938 C 162.863281 181.046875 160.21875 181.859375 158.753906 182.0625 C 158.390625 182.109375 158.105469 182.132812 157.878906 182.136719 C 157.515625 183.871094 156.089844 190.019531 152.992188 196.363281 C 148.136719 206.300781 141.390625 212.214844 133.480469 213.457031 C 132.058594 213.679688 130.671875 213.78125 129.332031 213.78125 " fill-opacity="1" fill-rule="nonzero"/><path fill="#000000" d="M 157.035156 179.738281 C 156.800781 179.738281 156.582031 179.585938 156.507812 179.347656 C 156.417969 179.058594 156.582031 178.746094 156.875 178.660156 C 156.894531 178.652344 159.140625 177.929688 159.386719 176.140625 C 159.570312 174.8125 160.335938 173.8125 160.945312 173.207031 C 161.402344 172.75 161.683594 172.152344 161.75 171.511719 L 157.820312 173.074219 C 157.539062 173.1875 157.214844 173.050781 157.105469 172.769531 C 156.992188 172.484375 157.128906 172.164062 157.410156 172.050781 L 162.109375 170.175781 C 162.28125 170.109375 162.472656 170.128906 162.621094 170.234375 C 162.773438 170.335938 162.863281 170.507812 162.863281 170.691406 L 162.863281 171.230469 C 162.863281 172.273438 162.457031 173.257812 161.722656 173.992188 C 161.234375 174.476562 160.625 175.269531 160.480469 176.289062 C 160.136719 178.78125 157.316406 179.675781 157.199219 179.714844 C 157.144531 179.730469 157.089844 179.738281 157.035156 179.738281 " fill-opacity="1" fill-rule="nonzero"/><path fill="#6d8d6b" d="M 67.226562 172.410156 C 73.351562 170.96875 75.90625 170.953125 98.171875 171.757812 C 103.613281 171.957031 110.085938 178.789062 110.726562 184.195312 C 108.996094 189.386719 101.015625 215.003906 114.949219 235.015625 C 116.929688 237.859375 119.617188 240.972656 123.304688 243.960938 C 121.234375 245.636719 111.671875 244.679688 107.34375 245.964844 C 100.160156 248.097656 101.359375 246.527344 95.570312 246.703125 C 80.257812 247.160156 76.171875 266.621094 66.28125 264.476562 C 63.640625 263.90625 60.140625 261.84375 56.855469 254.933594 C 54.996094 249.203125 53.339844 242.472656 52.421875 234.867188 C 49.921875 214.246094 54.011719 197.078125 57.660156 186.304688 C 58.746094 182.90625 60.003906 174.109375 67.226562 172.410156 " fill-opacity="1" fill-rule="nonzero"/><path fill="#6d8d6b" d="M 121.644531 187.875 C 121.644531 187.875 109.949219 173.140625 99.636719 171.964844 L 104.71875 210.984375 L 121.644531 187.875 " fill-opacity="1" fill-rule="nonzero"/><path fill="#6d8d6b" d="M 46.664062 209.300781 C 46.664062 209.300781 47.730469 199.09375 48.410156 192.332031 C 49.921875 177.335938 66.949219 172.382812 66.949219 172.382812 L 73.386719 208.96875 L 46.664062 209.300781 " fill-opacity="1" fill-rule="nonzero"/><path fill="#ffffff" d="M 51.414062 208.421875 C 51.414062 208.421875 57.972656 236.601562 63.382812 245.765625 C 69.839844 256.714844 102.421875 241.972656 102.421875 241.972656 L 106.210938 239.824219 C 108.773438 238.371094 111.828125 238.0625 114.632812 238.964844 L 120.753906 240.941406 C 120.753906 240.941406 115.699219 234.878906 111.398438 232.558594 C 109.382812 231.472656 106.769531 232.503906 104.5625 233.902344 C 100.765625 236.304688 96.296875 237.433594 91.804688 237.300781 L 78.84375 236.914062 C 76.667969 236.851562 74.886719 235.164062 74.695312 232.996094 L 70.550781 206.582031 L 51.414062 208.421875 " fill-opacity="1" fill-rule="nonzero"/><path fill="#000000" d="M 52.097656 208.910156 C 53.09375 213.082031 58.992188 237.242188 63.855469 245.488281 C 69.921875 255.769531 101.171875 241.925781 102.171875 241.476562 L 105.9375 239.34375 C 108.628906 237.820312 111.859375 237.492188 114.800781 238.441406 L 119 239.796875 C 117.230469 237.867188 113.988281 234.582031 111.136719 233.046875 C 109.261719 232.039062 106.6875 233.207031 104.859375 234.367188 C 101.035156 236.785156 96.523438 237.996094 91.789062 237.851562 L 78.828125 237.464844 C 76.378906 237.394531 74.371094 235.503906 74.148438 233.0625 L 70.085938 207.183594 Z M 73.257812 250.363281 C 68.640625 250.363281 64.777344 249.21875 62.90625 246.046875 C 57.515625 236.914062 51.144531 209.703125 50.878906 208.546875 C 50.84375 208.394531 50.875 208.230469 50.96875 208.101562 C 51.058594 207.972656 51.203125 207.886719 51.363281 207.871094 L 70.496094 206.035156 C 70.78125 206.007812 71.050781 206.210938 71.09375 206.5 L 75.242188 232.910156 C 75.242188 232.921875 75.246094 232.9375 75.246094 232.949219 C 75.410156 234.839844 76.964844 236.308594 78.859375 236.363281 L 91.820312 236.75 C 96.335938 236.878906 100.632812 235.734375 104.265625 233.433594 C 107.292969 231.519531 109.78125 231.058594 111.660156 232.074219 C 116.003906 234.417969 120.96875 240.335938 121.175781 240.589844 C 121.332031 240.777344 121.347656 241.046875 121.210938 241.25 C 121.074219 241.453125 120.816406 241.542969 120.582031 241.46875 L 114.460938 239.492188 C 111.8125 238.636719 108.902344 238.933594 106.484375 240.304688 L 102.691406 242.449219 C 102.679688 242.457031 102.664062 242.46875 102.648438 242.472656 C 101.679688 242.910156 85.023438 250.363281 73.257812 250.363281 " fill-opacity="1" fill-rule="nonzero"/><path fill="#000000" d="M 79.203125 158.972656 C 77.605469 159.777344 76.402344 159.894531 75.535156 159.84375 C 72.398438 159.664062 70.386719 157.136719 69.984375 156.628906 C 67.90625 154.015625 66.902344 149.722656 68.664062 147.203125 C 69.933594 145.386719 71.53125 146.074219 72.992188 144.042969 C 74.652344 141.738281 72.949219 139.859375 74.480469 137.84375 C 76.242188 135.519531 80.125 135.699219 80.824219 135.730469 C 83.21875 135.839844 83.503906 137.027344 85.769531 136.964844 C 88.078125 136.90625 88.386719 135.742188 90.507812 135.730469 C 92.191406 135.71875 94.648438 136.4375 95.75 138.390625 C 97.132812 140.835938 95.71875 144.058594 94.078125 145.761719 C 92.109375 147.804688 90.722656 146.707031 87.964844 148.371094 C 83.1875 151.253906 84.328125 156.390625 79.203125 158.972656 " fill-opacity="1" fill-rule="nonzero"/><path fill="#ffffff" d="M 88.101562 169.855469 L 86.808594 161.800781 C 87.09375 161.769531 89.476562 161.355469 89.75 161.21875 C 91.957031 160.121094 91.34375 154.578125 91.34375 154.578125 L 92.570312 153.113281 L 88.910156 144.925781 C 85.023438 148.164062 83.640625 144.984375 79.792969 146.574219 C 75.949219 148.167969 78.035156 152.453125 78.035156 152.453125 C 78.035156 152.453125 74.890625 151.070312 75.5625 154.109375 C 76.070312 156.40625 77.742188 156.546875 78.84375 156.457031 L 76.792969 170.261719 C 76.792969 170.261719 70.195312 172.136719 68.917969 172.476562 C 70.582031 172.398438 82.0625 177.390625 95.082031 171.933594 L 88.101562 169.855469 " fill-opacity="1" fill-rule="nonzero"/><path fill="#000000" d="M 71.257812 172.402344 C 75.195312 173.398438 83.800781 175.472656 93.386719 172.003906 L 87.945312 170.382812 C 87.742188 170.324219 87.59375 170.152344 87.558594 169.941406 L 86.265625 161.890625 C 86.242188 161.742188 86.277344 161.589844 86.371094 161.46875 C 86.460938 161.347656 86.597656 161.269531 86.746094 161.253906 C 87.054688 161.21875 89.222656 160.832031 89.523438 160.714844 C 91.019531 159.96875 90.941406 155.980469 90.792969 154.640625 C 90.777344 154.492188 90.824219 154.339844 90.917969 154.226562 L 91.925781 153.023438 L 88.695312 145.792969 C 86.601562 147.308594 85.128906 147.0625 83.703125 146.824219 C 82.578125 146.636719 81.515625 146.460938 80.003906 147.085938 C 79.105469 147.460938 78.503906 148.027344 78.222656 148.777344 C 77.632812 150.332031 78.519531 152.191406 78.53125 152.210938 C 78.632812 152.417969 78.59375 152.667969 78.433594 152.835938 C 78.269531 153.003906 78.023438 153.050781 77.8125 152.957031 C 77.335938 152.75 76.488281 152.558594 76.183594 152.808594 C 76 152.957031 75.96875 153.390625 76.101562 153.988281 C 76.421875 155.445312 77.253906 156.039062 78.796875 155.90625 C 78.964844 155.894531 79.128906 155.953125 79.246094 156.078125 C 79.363281 156.199219 79.414062 156.371094 79.390625 156.535156 L 77.339844 170.34375 C 77.308594 170.558594 77.152344 170.734375 76.945312 170.792969 C 76.753906 170.847656 73.574219 171.75 71.257812 172.402344 Z M 82.191406 175.039062 C 77.175781 175.039062 73.101562 174.007812 70.777344 173.421875 C 69.960938 173.210938 69.199219 173.015625 68.945312 173.027344 C 68.667969 173.035156 68.417969 172.839844 68.375 172.558594 C 68.332031 172.28125 68.503906 172.015625 68.777344 171.941406 C 69.867188 171.652344 74.929688 170.21875 76.300781 169.828125 L 78.203125 157.023438 C 76.085938 156.933594 75.300781 155.492188 75.023438 154.230469 C 74.789062 153.164062 74.945312 152.398438 75.484375 151.953125 C 75.957031 151.566406 76.601562 151.542969 77.152344 151.628906 C 76.921875 150.78125 76.75 149.542969 77.1875 148.386719 C 77.585938 147.339844 78.390625 146.558594 79.582031 146.066406 C 81.386719 145.320312 82.714844 145.539062 83.886719 145.738281 C 85.371094 145.984375 86.542969 146.179688 88.558594 144.5 C 88.691406 144.390625 88.867188 144.347656 89.035156 144.386719 C 89.203125 144.425781 89.34375 144.542969 89.414062 144.699219 L 93.074219 152.890625 C 93.160156 153.082031 93.128906 153.308594 92.992188 153.46875 L 91.914062 154.757812 C 92.023438 155.96875 92.273438 160.578125 89.996094 161.714844 C 89.699219 161.859375 88.265625 162.121094 87.441406 162.261719 L 88.59375 169.425781 L 95.242188 171.40625 C 95.464844 171.472656 95.621094 171.671875 95.636719 171.90625 C 95.648438 172.136719 95.511719 172.355469 95.296875 172.445312 C 90.609375 174.40625 86.113281 175.039062 82.191406 175.039062 " fill-opacity="1" fill-rule="nonzero"/><path fill="#000000" d="M 85.910156 162.417969 C 82.503906 162.417969 80.945312 159.832031 80.871094 159.710938 C 80.71875 159.449219 80.804688 159.109375 81.070312 158.957031 C 81.332031 158.800781 81.667969 158.886719 81.824219 159.148438 C 81.890625 159.265625 83.40625 161.710938 86.734375 161.257812 C 87.039062 161.210938 87.316406 161.425781 87.355469 161.726562 C 87.398438 162.03125 87.1875 162.308594 86.882812 162.347656 C 86.542969 162.394531 86.21875 162.417969 85.910156 162.417969 " fill-opacity="1" fill-rule="nonzero"/><path fill="#314030" d="M 163.9375 249.066406 L 88.65625 249.066406 C 87.9375 249.066406 87.351562 248.484375 87.351562 247.765625 L 87.351562 244.886719 L 165.238281 244.886719 L 165.238281 247.765625 C 165.238281 248.484375 164.65625 249.066406 163.9375 249.066406 " fill-opacity="1" fill-rule="nonzero"/><path fill="#000000" d="M 87.90625 245.4375 L 87.90625 246.136719 C 87.90625 247.449219 88.972656 248.515625 90.28125 248.515625 L 162.308594 248.515625 C 163.621094 248.515625 164.683594 247.449219 164.683594 246.136719 L 164.683594 245.4375 Z M 162.308594 249.621094 L 90.28125 249.621094 C 88.363281 249.621094 86.800781 248.054688 86.800781 246.136719 L 86.800781 244.886719 C 86.800781 244.578125 87.046875 244.332031 87.351562 244.332031 L 165.238281 244.332031 C 165.542969 244.332031 165.789062 244.578125 165.789062 244.886719 L 165.789062 246.136719 C 165.789062 248.054688 164.226562 249.621094 162.308594 249.621094 " fill-opacity="1" fill-rule="nonzero"/><path fill="#314030" d="M 165.238281 244.960938 L 120.671875 244.960938 L 134.832031 203.269531 C 135.679688 201.964844 137.15625 201.171875 138.742188 201.171875 L 176.417969 201.171875 C 178.125 201.171875 179.226562 202.832031 178.667969 204.296875 C 178.445312 204.878906 178.207031 205.457031 178.011719 206.046875 L 165.238281 244.960938 " fill-opacity="1" fill-rule="nonzero"/><path fill="#000000" d="M 121.445312 244.40625 L 164.839844 244.40625 L 177.488281 205.875 C 177.632812 205.433594 177.800781 205.003906 177.964844 204.585938 C 178.027344 204.425781 178.089844 204.265625 178.152344 204.101562 C 178.347656 203.582031 178.273438 202.988281 177.949219 202.515625 C 177.601562 202.011719 177.042969 201.726562 176.417969 201.726562 L 138.742188 201.726562 C 137.355469 201.726562 136.085938 202.390625 135.332031 203.511719 Z M 165.238281 245.511719 L 120.671875 245.511719 C 120.496094 245.511719 120.328125 245.425781 120.222656 245.28125 C 120.121094 245.136719 120.09375 244.949219 120.152344 244.78125 L 134.308594 203.089844 C 134.324219 203.046875 134.34375 203.003906 134.371094 202.964844 C 135.324219 201.496094 136.957031 200.621094 138.742188 200.621094 L 176.417969 200.621094 C 177.414062 200.621094 178.304688 201.082031 178.855469 201.886719 C 179.390625 202.660156 179.511719 203.632812 179.183594 204.492188 C 179.121094 204.660156 179.054688 204.824219 178.992188 204.992188 C 178.835938 205.394531 178.671875 205.808594 178.535156 206.21875 L 165.761719 245.132812 C 165.6875 245.359375 165.476562 245.511719 165.238281 245.511719 " fill-opacity="1" fill-rule="nonzero"/><path fill="#ffffff" d="M 148.699219 222.503906 C 148.167969 224.265625 148.980469 226.070312 150.511719 226.53125 C 152.046875 226.992188 153.71875 225.941406 154.25 224.179688 C 154.777344 222.414062 153.96875 220.613281 152.4375 220.148438 C 150.902344 219.6875 149.230469 220.742188 148.699219 222.503906 " fill-opacity="1" fill-rule="nonzero"/><path fill="#ffffff" d="M 151.851562 245.511719 L 127.300781 245.511719 C 126.996094 245.511719 126.746094 245.265625 126.746094 244.960938 C 126.746094 244.65625 126.996094 244.40625 127.300781 244.40625 L 151.851562 244.40625 C 152.15625 244.40625 152.402344 244.65625 152.402344 244.960938 C 152.402344 245.265625 152.15625 245.511719 151.851562 245.511719 " fill-opacity="1" fill-rule="nonzero"/><path fill="#ffffff" d="M 164.351562 245.511719 L 160 245.511719 C 159.695312 245.511719 159.449219 245.265625 159.449219 244.960938 C 159.449219 244.65625 159.695312 244.40625 160 244.40625 L 164.351562 244.40625 C 164.65625 244.40625 164.902344 244.65625 164.902344 244.960938 C 164.902344 245.265625 164.65625 245.511719 164.351562 245.511719 " fill-opacity="1" fill-rule="nonzero"/></svg>