<svg xmlns="http://www.w3.org/2000/svg" xmlns:xlink="http://www.w3.org/1999/xlink" width="500" zoomAndPan="magnify" viewBox="0 0 375 374.999991" height="500" preserveAspectRatio="xMidYMid meet" version="1.0"><path fill="#314030" d="M 36.621094 281.371094 C 45.582031 302.859375 66.449219 313.054688 79.785156 319.570312 C 132.351562 345.253906 212.128906 342.40625 269.476562 295.84375 C 282.894531 284.949219 349.65625 211.0625 333.382812 133.703125 C 321.296875 76.234375 289.207031 38.710938 196.96875 32.675781 C 149.007812 29.535156 82.960938 49.289062 60.957031 91.03125 C 47.117188 117.277344 63.820312 125.652344 52.574219 185.164062 C 42.839844 236.671875 25.660156 255.085938 36.621094 281.371094 " fill-opacity="1" fill-rule="nonzero"/><path fill="#a5c6a3" d="M 208.320312 198.304688 L 98.222656 198.304688 L 98.222656 67.734375 L 208.320312 67.734375 L 208.320312 198.304688 " fill-opacity="1" fill-rule="nonzero"/><path fill="#a5c6a3" d="M 316.164062 199.773438 L 301.253906 199.773438 L 301.253906 69.199219 L 316.164062 69.199219 L 316.164062 199.773438 " fill-opacity="1" fill-rule="nonzero"/><path fill="#6d8d6b" d="M 317.46875 203.226562 L 85.394531 203.226562 L 85.394531 193.457031 L 317.46875 193.457031 L 317.46875 203.226562 " fill-opacity="1" fill-rule="nonzero"/><path fill="#000000" d="M 101.695312 203.777344 L 97.109375 203.777344 C 96.804688 203.777344 96.558594 203.53125 96.558594 203.226562 L 96.558594 193.457031 C 96.558594 193.152344 96.804688 192.90625 97.109375 192.90625 C 97.414062 192.90625 97.660156 193.152344 97.660156 193.457031 L 97.660156 202.679688 L 101.695312 202.679688 C 101.996094 202.679688 102.242188 202.925781 102.242188 203.226562 C 102.242188 203.53125 101.996094 203.777344 101.695312 203.777344 " fill-opacity="1" fill-rule="nonzero"/><path fill="#314030" d="M 201.976562 158.796875 L 160.683594 158.796875 L 160.683594 115.941406 L 201.976562 115.941406 L 201.976562 158.796875 " fill-opacity="1" fill-rule="nonzero"/><path fill="#6d8d6b" d="M 161.234375 158.246094 L 201.429688 158.246094 L 201.429688 116.492188 L 161.234375 116.492188 Z M 202.527344 159.34375 L 160.136719 159.34375 L 160.136719 115.394531 L 202.527344 115.394531 L 202.527344 159.34375 " fill-opacity="1" fill-rule="nonzero"/><path fill="#ffffff" d="M 166.234375 154.167969 C 166.0625 154.167969 165.890625 154.085938 165.785156 153.9375 C 165.609375 153.691406 165.667969 153.347656 165.914062 153.171875 L 177.167969 145.164062 C 177.417969 144.988281 177.761719 145.046875 177.9375 145.292969 C 178.113281 145.539062 178.054688 145.882812 177.808594 146.058594 L 166.550781 154.066406 C 166.453125 154.132812 166.34375 154.167969 166.234375 154.167969 " fill-opacity="1" fill-rule="nonzero"/><path fill="#ffffff" d="M 167.105469 147.148438 C 166.933594 147.148438 166.765625 147.070312 166.660156 146.921875 C 166.480469 146.675781 166.535156 146.332031 166.78125 146.15625 L 176.859375 138.871094 C 177.105469 138.695312 177.445312 138.75 177.625 138.996094 C 177.804688 139.242188 177.75 139.582031 177.503906 139.761719 L 167.425781 147.042969 C 167.328125 147.113281 167.214844 147.148438 167.105469 147.148438 " fill-opacity="1" fill-rule="nonzero"/><path fill="#ffffff" d="M 185.347656 134.703125 C 185.175781 134.703125 185.007812 134.621094 184.898438 134.472656 C 184.722656 134.222656 184.777344 133.882812 185.027344 133.707031 L 196.28125 125.699219 C 196.53125 125.523438 196.871094 125.582031 197.050781 125.828125 C 197.226562 126.078125 197.167969 126.417969 196.921875 126.59375 L 185.664062 134.601562 C 185.566406 134.667969 185.457031 134.703125 185.347656 134.703125 " fill-opacity="1" fill-rule="nonzero"/><path fill="#ffffff" d="M 186.214844 127.683594 C 186.046875 127.683594 185.878906 127.605469 185.769531 127.457031 C 185.59375 127.210938 185.648438 126.871094 185.894531 126.691406 L 195.96875 119.40625 C 196.214844 119.230469 196.5625 119.285156 196.738281 119.53125 C 196.917969 119.777344 196.863281 120.117188 196.617188 120.296875 L 186.539062 127.582031 C 186.441406 127.648438 186.328125 127.683594 186.214844 127.683594 " fill-opacity="1" fill-rule="nonzero"/><path fill="#6d8d6b" d="M 181.882812 158.796875 L 180.78125 158.796875 L 180.78125 115.941406 L 181.882812 115.941406 L 181.882812 158.796875 " fill-opacity="1" fill-rule="nonzero"/><path fill="#a5c6a3" d="M 314.664062 96.085938 L 100.160156 96.085938 L 100.160156 76.640625 L 314.664062 76.640625 L 314.664062 96.085938 " fill-opacity="1" fill-rule="nonzero"/><path fill="#6d8d6b" d="M 319.722656 85.980469 L 94.027344 85.980469 C 91.828125 85.980469 90.042969 83.75 90.03125 80.988281 L 89.855469 48.417969 C 89.839844 45.636719 91.625 43.367188 93.839844 43.359375 L 319.738281 42.445312 C 321.953125 42.4375 323.75 44.691406 323.75 47.472656 L 323.71875 80.960938 C 323.714844 83.734375 321.925781 85.980469 319.722656 85.980469 " fill-opacity="1" fill-rule="nonzero"/><path fill="#314030" d="M 278.011719 75.746094 L 135.589844 75.746094 C 133.171875 75.746094 131.191406 73.773438 131.191406 71.355469 L 131.191406 57.070312 C 131.191406 54.65625 133.171875 52.679688 135.589844 52.679688 L 278.011719 52.679688 C 280.429688 52.679688 282.410156 54.65625 282.410156 57.070312 L 282.410156 71.355469 C 282.410156 73.773438 280.429688 75.746094 278.011719 75.746094 " fill-opacity="1" fill-rule="nonzero"/><path fill="#ffffff" d="M 135.589844 53.226562 C 133.46875 53.226562 131.742188 54.949219 131.742188 57.070312 L 131.742188 71.355469 C 131.742188 73.476562 133.46875 75.199219 135.589844 75.199219 L 278.007812 75.199219 C 280.132812 75.199219 281.859375 73.476562 281.859375 71.355469 L 281.859375 57.070312 C 281.859375 54.949219 280.132812 53.226562 278.007812 53.226562 Z M 278.007812 76.296875 L 135.589844 76.296875 C 132.863281 76.296875 130.640625 74.078125 130.640625 71.355469 L 130.640625 57.070312 C 130.640625 54.347656 132.863281 52.128906 135.589844 52.128906 L 278.007812 52.128906 C 280.738281 52.128906 282.960938 54.347656 282.960938 57.070312 L 282.960938 71.355469 C 282.960938 74.078125 280.738281 76.296875 278.007812 76.296875 " fill-opacity="1" fill-rule="nonzero"/><path fill="#ffffff" d="M 300.375 193.457031 L 208.996094 193.457031 L 208.996094 99.214844 L 300.375 99.214844 L 300.375 193.457031 " fill-opacity="1" fill-rule="nonzero"/><path fill="#314030" d="M 296.125 114.0625 L 213.246094 114.0625 L 213.246094 108.21875 L 296.125 108.21875 L 296.125 114.0625 " fill-opacity="1" fill-rule="nonzero"/><path fill="#314030" d="M 296.125 126.546875 L 213.246094 126.546875 L 213.246094 120.703125 L 296.125 120.703125 L 296.125 126.546875 " fill-opacity="1" fill-rule="nonzero"/><path fill="#314030" d="M 296.125 139.03125 L 213.246094 139.03125 L 213.246094 133.1875 L 296.125 133.1875 L 296.125 139.03125 " fill-opacity="1" fill-rule="nonzero"/><path fill="#314030" d="M 296.125 151.519531 L 213.246094 151.519531 L 213.246094 145.671875 L 296.125 145.671875 L 296.125 151.519531 " fill-opacity="1" fill-rule="nonzero"/><path fill="#314030" d="M 296.125 164.003906 L 213.246094 164.003906 L 213.246094 158.160156 L 296.125 158.160156 L 296.125 164.003906 " fill-opacity="1" fill-rule="nonzero"/><path fill="#314030" d="M 296.125 176.484375 L 213.246094 176.484375 L 213.246094 170.640625 L 296.125 170.640625 L 296.125 176.484375 " fill-opacity="1" fill-rule="nonzero"/><path fill="#314030" d="M 296.125 188.972656 L 213.246094 188.972656 L 213.246094 183.128906 L 296.125 183.128906 L 296.125 188.972656 " fill-opacity="1" fill-rule="nonzero"/><path fill="#6d8d6b" d="M 300.648438 104.347656 L 208.90625 104.347656 C 207.28125 104.347656 205.953125 103.019531 205.953125 101.398438 L 205.953125 97.03125 C 205.953125 95.410156 207.28125 94.085938 208.90625 94.085938 L 300.648438 94.085938 C 302.273438 94.085938 303.601562 95.410156 303.601562 97.03125 L 303.601562 101.398438 C 303.601562 103.019531 302.273438 104.347656 300.648438 104.347656 " fill-opacity="1" fill-rule="nonzero"/><path fill="#ffffff" d="M 114.597656 201.824219 L 152.035156 201.824219 C 153.25 201.824219 154.234375 200.839844 154.234375 199.625 L 154.234375 117.960938 C 154.234375 116.746094 153.25 115.765625 152.035156 115.765625 L 114.597656 115.765625 C 113.382812 115.765625 112.398438 116.746094 112.398438 117.960938 L 112.398438 199.625 C 112.398438 200.839844 113.382812 201.824219 114.597656 201.824219 " fill-opacity="1" fill-rule="nonzero"/><path fill="#314030" d="M 115.996094 198.78125 L 150.46875 198.78125 C 151.28125 198.78125 151.9375 198.128906 151.9375 197.320312 L 151.9375 119.628906 C 151.9375 118.820312 151.28125 118.164062 150.46875 118.164062 L 115.996094 118.164062 C 115.1875 118.164062 114.53125 118.820312 114.53125 119.628906 L 114.53125 197.320312 C 114.53125 198.128906 115.1875 198.78125 115.996094 198.78125 " fill-opacity="1" fill-rule="nonzero"/><path fill="#314030" d="M 107.179688 203.46875 L 159.273438 203.46875 C 159.847656 203.46875 160.3125 203.003906 160.3125 202.433594 L 160.3125 197 C 160.3125 196.429688 159.847656 195.964844 159.273438 195.964844 L 107.179688 195.964844 C 106.605469 195.964844 106.140625 196.429688 106.140625 197 L 106.140625 202.433594 C 106.140625 203.003906 106.605469 203.46875 107.179688 203.46875 " fill-opacity="1" fill-rule="nonzero"/><path fill="#000000" d="M 155.476562 204.019531 L 107.132812 204.019531 C 106.28125 204.019531 105.589844 203.328125 105.589844 202.476562 L 105.589844 196.957031 C 105.589844 196.105469 106.28125 195.417969 107.132812 195.417969 L 140.75 195.472656 C 141.054688 195.472656 141.300781 195.71875 141.296875 196.023438 C 141.296875 196.324219 141.050781 196.570312 140.746094 196.570312 L 107.132812 196.515625 C 106.890625 196.515625 106.691406 196.710938 106.691406 196.957031 L 106.691406 202.476562 C 106.691406 202.722656 106.890625 202.921875 107.132812 202.921875 L 155.476562 202.921875 C 155.78125 202.921875 156.027344 203.167969 156.027344 203.46875 C 156.027344 203.773438 155.78125 204.019531 155.476562 204.019531 " fill-opacity="1" fill-rule="nonzero"/><path fill="#ffffff" d="M 122.019531 144.203125 C 121.835938 144.203125 121.660156 144.113281 121.554688 143.949219 C 121.390625 143.695312 121.464844 143.355469 121.71875 143.191406 L 145.976562 127.636719 C 146.230469 127.472656 146.574219 127.546875 146.738281 127.800781 C 146.898438 128.054688 146.824219 128.394531 146.570312 128.558594 L 122.316406 144.113281 C 122.222656 144.175781 122.121094 144.203125 122.019531 144.203125 " fill-opacity="1" fill-rule="nonzero"/><path fill="#314030" d="M 121.03125 154.582031 C 120.851562 154.582031 120.671875 154.492188 120.570312 154.328125 C 120.402344 154.074219 120.480469 153.734375 120.734375 153.570312 L 143.296875 139.101562 C 143.550781 138.9375 143.894531 139.011719 144.058594 139.265625 C 144.222656 139.519531 144.148438 139.859375 143.890625 140.027344 L 121.328125 154.496094 C 121.238281 154.554688 121.132812 154.582031 121.03125 154.582031 " fill-opacity="1" fill-rule="nonzero"/><path fill="#000000" d="M 317.46875 203.777344 L 298.558594 203.777344 C 298.253906 203.777344 298.007812 203.53125 298.007812 203.226562 C 298.007812 202.925781 298.253906 202.679688 298.558594 202.679688 L 316.921875 202.679688 L 316.921875 194.003906 L 308.320312 194.003906 C 308.015625 194.003906 307.765625 193.757812 307.765625 193.453125 C 307.765625 193.152344 308.015625 192.90625 308.320312 192.90625 L 317.46875 192.90625 C 317.773438 192.90625 318.019531 193.152344 318.019531 193.453125 L 318.019531 203.226562 C 318.019531 203.53125 317.773438 203.777344 317.46875 203.777344 " fill-opacity="1" fill-rule="nonzero"/><path fill="#000000" d="M 160.007812 277.917969 L 205.9375 277.128906 L 206.269531 216.792969 L 125.722656 215.664062 L 132.769531 255.457031 C 135.101562 268.625 146.648438 278.144531 160.007812 277.917969 " fill-opacity="1" fill-rule="nonzero"/><path fill="#000000" d="M 60.34375 248.886719 L 72.507812 248.679688 L 85.1875 218.878906 L 54.507812 214.582031 L 53.128906 242.9375 C 53.746094 246.425781 56.804688 248.949219 60.34375 248.886719 " fill-opacity="1" fill-rule="nonzero"/><path fill="#6d8d6b" d="M 91.117188 246.273438 C 90.035156 232.652344 84.453125 223.753906 78.710938 224.210938 C 78.636719 224.21875 66.476562 224.328125 66.449219 224.332031 C 60.707031 224.789062 56.929688 236.199219 58.011719 249.820312 C 59.09375 263.441406 64.621094 274.113281 70.363281 273.65625 C 70.394531 273.65625 82.722656 272.644531 82.757812 272.640625 C 88.5625 271.757812 92.191406 259.808594 91.117188 246.273438 " fill-opacity="1" fill-rule="nonzero"/><path fill="#6d8d6b" d="M 78.800781 248.167969 C 79.882812 261.789062 76.105469 273.199219 70.363281 273.65625 C 64.621094 274.113281 59.09375 263.441406 58.011719 249.820312 C 56.929688 236.199219 60.707031 224.789062 66.449219 224.332031 C 72.191406 223.875 77.71875 234.546875 78.800781 248.167969 " fill-opacity="1" fill-rule="nonzero"/><path fill="#000000" d="M 66.792969 224.867188 C 66.691406 224.867188 66.59375 224.871094 66.492188 224.878906 C 61.15625 225.304688 57.519531 236.707031 58.558594 249.777344 C 59.078125 256.292969 60.628906 262.328125 62.929688 266.765625 C 65.121094 270.996094 67.8125 273.304688 70.320312 273.109375 C 75.65625 272.683594 79.292969 261.28125 78.253906 248.210938 C 77.734375 241.695312 76.183594 235.660156 73.882812 231.222656 C 71.777344 227.160156 69.210938 224.867188 66.792969 224.867188 Z M 70.003906 274.21875 C 67.128906 274.21875 64.285156 271.773438 61.953125 267.269531 C 59.585938 262.707031 57.992188 256.523438 57.460938 249.863281 C 56.339844 235.730469 60.269531 224.273438 66.40625 223.785156 C 69.414062 223.542969 72.417969 226.007812 74.863281 230.71875 C 77.226562 235.285156 78.820312 241.464844 79.351562 248.125 C 80.472656 262.257812 76.542969 273.714844 70.40625 274.203125 C 70.273438 274.214844 70.140625 274.21875 70.003906 274.21875 " fill-opacity="1" fill-rule="nonzero"/><path fill="#a5c6a3" d="M 75.859375 248.402344 C 76.632812 258.164062 73.925781 266.347656 69.808594 266.671875 C 65.695312 267 61.730469 259.351562 60.953125 249.585938 C 60.179688 239.824219 62.886719 231.644531 67.003906 231.316406 C 71.117188 230.988281 75.082031 238.636719 75.859375 248.402344 " fill-opacity="1" fill-rule="nonzero"/><path fill="#6d8d6b" d="M 214.710938 270.789062 C 211.046875 251.644531 199.609375 240.226562 187.320312 241.285156 C 187.226562 241.292969 172.363281 241.472656 172.363281 241.472656 C 172.363281 241.472656 172.226562 241.496094 172.160156 241.511719 C 160.714844 243.703125 154.410156 261.003906 158.074219 280.148438 C 161.660156 298.875 173.457031 312.429688 184.679688 310.960938 C 184.929688 310.925781 200.558594 307.972656 200.667969 307.949219 C 212.113281 305.753906 218.378906 289.933594 214.710938 270.789062 " fill-opacity="1" fill-rule="nonzero"/><path fill="#6d8d6b" d="M 199.515625 272.199219 C 203.183594 291.34375 196.875 308.644531 185.429688 310.839844 C 173.988281 313.035156 161.738281 299.292969 158.074219 280.148438 C 154.410156 261.003906 160.714844 243.703125 172.160156 241.511719 C 183.605469 239.3125 195.851562 253.054688 199.515625 272.199219 " fill-opacity="1" fill-rule="nonzero"/><path fill="#000000" d="M 174.574219 241.828125 C 173.792969 241.828125 173.023438 241.902344 172.265625 242.046875 C 161.136719 244.183594 155.011719 261.230469 158.613281 280.046875 C 160.914062 292.050781 166.886719 302.589844 174.203125 307.542969 C 177.886719 310.035156 181.734375 310.988281 185.328125 310.300781 C 196.457031 308.164062 202.578125 291.121094 198.976562 272.300781 C 196.679688 260.296875 190.707031 249.761719 183.386719 244.804688 C 180.484375 242.839844 177.476562 241.828125 174.574219 241.828125 Z M 183.015625 311.617188 C 179.890625 311.617188 176.675781 310.542969 173.585938 308.453125 C 165.921875 303.261719 159.921875 292.71875 157.535156 280.253906 C 153.820312 260.839844 160.332031 243.21875 172.054688 240.96875 C 175.945312 240.222656 180.078125 241.238281 184.003906 243.898438 C 191.667969 249.085938 197.671875 259.628906 200.054688 272.09375 C 203.773438 291.507812 197.257812 309.128906 185.535156 311.378906 C 184.703125 311.539062 183.863281 311.617188 183.015625 311.617188 " fill-opacity="1" fill-rule="nonzero"/><path fill="#a5c6a3" d="M 194.03125 273.25 C 196.726562 287.328125 192.089844 300.050781 183.675781 301.664062 C 175.261719 303.28125 166.253906 293.175781 163.558594 279.097656 C 160.863281 265.019531 165.5 252.296875 173.914062 250.683594 C 182.332031 249.070312 191.335938 259.171875 194.03125 273.25 " fill-opacity="1" fill-rule="nonzero"/><path fill="#6d8d6b" d="M 304.089844 260.375 C 300.425781 241.230469 288.988281 229.816406 276.699219 230.871094 C 276.640625 230.875 270.300781 230.953125 265.898438 231.007812 C 264.527344 230.808594 263.160156 230.824219 261.796875 231.058594 C 261.761719 231.058594 261.746094 231.058594 261.746094 231.058594 C 261.746094 231.058594 261.609375 231.082031 261.539062 231.09375 C 261.179688 231.164062 260.828125 231.246094 260.480469 231.347656 C 259.089844 231.734375 257.78125 232.355469 256.570312 233.179688 C 255.050781 234.210938 253.675781 235.558594 252.464844 237.175781 C 251.734375 238.144531 251.066406 239.210938 250.460938 240.363281 C 250.054688 241.128906 249.679688 241.933594 249.332031 242.773438 C 248.808594 244.035156 248.351562 245.371094 247.964844 246.777344 C 247.835938 247.246094 247.714844 247.722656 247.601562 248.207031 C 247.371094 249.171875 247.175781 250.167969 247.011719 251.1875 C 246.113281 256.792969 246.191406 263.15625 247.453125 269.738281 C 247.566406 270.328125 247.6875 270.914062 247.820312 271.496094 C 247.859375 271.6875 247.910156 271.871094 247.953125 272.0625 C 248.042969 272.449219 248.132812 272.839844 248.230469 273.222656 C 248.289062 273.453125 248.355469 273.679688 248.414062 273.910156 C 248.503906 274.246094 248.59375 274.582031 248.6875 274.914062 C 248.757812 275.15625 248.835938 275.398438 248.90625 275.636719 C 249 275.949219 249.09375 276.261719 249.191406 276.570312 C 249.269531 276.8125 249.351562 277.054688 249.433594 277.296875 C 249.53125 277.59375 249.628906 277.894531 249.734375 278.1875 C 249.820312 278.429688 249.910156 278.664062 250 278.902344 C 250.105469 279.191406 250.207031 279.480469 250.320312 279.761719 C 250.414062 280.003906 250.511719 280.238281 250.609375 280.476562 C 250.71875 280.75 250.832031 281.023438 250.945312 281.296875 C 251.042969 281.535156 251.152344 281.765625 251.253906 281.996094 C 251.371094 282.261719 251.488281 282.527344 251.605469 282.789062 C 251.714844 283.015625 251.824219 283.242188 251.933594 283.46875 C 252.058594 283.726562 252.179688 283.980469 252.304688 284.230469 C 252.417969 284.457031 252.535156 284.675781 252.648438 284.894531 C 252.777344 285.140625 252.90625 285.386719 253.039062 285.628906 C 253.15625 285.847656 253.277344 286.058594 253.402344 286.273438 C 253.535156 286.507812 253.664062 286.742188 253.800781 286.972656 C 253.925781 287.183594 254.054688 287.390625 254.183594 287.597656 C 254.320312 287.824219 254.457031 288.050781 254.597656 288.269531 C 254.726562 288.472656 254.859375 288.671875 254.992188 288.871094 C 255.132812 289.085938 255.277344 289.300781 255.421875 289.511719 C 255.558594 289.707031 255.695312 289.898438 255.832031 290.085938 C 255.976562 290.292969 256.125 290.5 256.277344 290.699219 C 256.414062 290.882812 256.554688 291.066406 256.699219 291.246094 C 256.847656 291.441406 257 291.636719 257.15625 291.828125 C 257.296875 292.003906 257.441406 292.175781 257.589844 292.351562 C 257.746094 292.535156 257.898438 292.71875 258.054688 292.898438 C 258.203125 293.066406 258.351562 293.230469 258.5 293.390625 C 258.660156 293.566406 258.820312 293.738281 258.984375 293.910156 C 259.132812 294.066406 259.285156 294.21875 259.4375 294.371094 C 259.601562 294.535156 259.765625 294.695312 259.929688 294.855469 C 260.082031 295.003906 260.238281 295.148438 260.394531 295.289062 C 260.558594 295.441406 260.726562 295.589844 260.894531 295.738281 C 261.050781 295.875 261.210938 296.007812 261.367188 296.140625 C 261.535156 296.28125 261.707031 296.421875 261.878906 296.554688 C 262.035156 296.679688 262.199219 296.804688 262.359375 296.925781 C 262.53125 297.050781 262.703125 297.179688 262.878906 297.300781 C 263.039062 297.414062 263.203125 297.527344 263.367188 297.636719 C 263.539062 297.753906 263.714844 297.867188 263.890625 297.980469 C 264.054688 298.082031 264.21875 298.183594 264.386719 298.28125 C 264.5625 298.386719 264.738281 298.484375 264.914062 298.582031 C 265.082031 298.675781 265.246094 298.765625 265.417969 298.851562 C 265.59375 298.941406 265.773438 299.03125 265.953125 299.117188 C 266.121094 299.195312 266.289062 299.273438 266.457031 299.347656 C 266.636719 299.425781 266.820312 299.5 267 299.570312 C 267.167969 299.640625 267.339844 299.703125 267.507812 299.765625 C 267.6875 299.832031 267.871094 299.890625 268.054688 299.949219 C 268.222656 300.003906 268.394531 300.058594 268.566406 300.105469 C 268.746094 300.15625 268.929688 300.203125 269.113281 300.246094 C 269.285156 300.289062 269.453125 300.328125 269.625 300.363281 C 269.808594 300.402344 269.996094 300.433594 270.179688 300.464844 C 270.351562 300.492188 270.519531 300.519531 270.691406 300.542969 C 270.875 300.566406 271.0625 300.582031 271.246094 300.597656 C 271.417969 300.613281 271.585938 300.628906 271.757812 300.636719 C 271.941406 300.644531 272.128906 300.644531 272.3125 300.648438 C 272.484375 300.648438 272.65625 300.648438 272.824219 300.640625 C 273.011719 300.636719 273.195312 300.621094 273.378906 300.605469 C 273.550781 300.59375 273.722656 300.582031 273.890625 300.5625 C 273.949219 300.554688 274.003906 300.554688 274.058594 300.546875 C 274.078125 300.542969 274.191406 300.523438 274.371094 300.492188 C 274.519531 300.46875 274.664062 300.453125 274.8125 300.425781 C 274.921875 300.402344 275.027344 300.371094 275.136719 300.351562 C 278.710938 299.683594 289.953125 297.554688 290.050781 297.535156 C 301.492188 295.339844 307.753906 279.519531 304.089844 260.375 " fill-opacity="1" fill-rule="nonzero"/><path fill="#a5c6a3" d="M 283.410156 262.835938 C 286.105469 276.914062 281.46875 289.636719 273.054688 291.25 C 264.640625 292.863281 255.632812 282.761719 252.941406 268.683594 C 250.242188 254.605469 254.878906 241.882812 263.296875 240.269531 C 271.710938 238.65625 280.71875 248.757812 283.410156 262.835938 " fill-opacity="1" fill-rule="nonzero"/><path fill="#000000" d="M 265.066406 240.652344 C 264.503906 240.652344 263.945312 240.703125 263.398438 240.808594 C 255.292969 242.363281 250.84375 254.824219 253.476562 268.582031 C 255.160156 277.375 259.527344 285.085938 264.878906 288.707031 C 267.554688 290.519531 270.34375 291.210938 272.949219 290.714844 C 281.054688 289.15625 285.503906 276.699219 282.871094 262.941406 C 281.1875 254.148438 276.820312 246.4375 271.46875 242.8125 C 269.359375 241.386719 267.175781 240.652344 265.066406 240.652344 Z M 271.273438 291.96875 C 268.949219 291.96875 266.558594 291.171875 264.261719 289.617188 C 258.59375 285.777344 254.160156 277.992188 252.398438 268.789062 C 249.648438 254.433594 254.492188 241.402344 263.191406 239.730469 C 266.089844 239.175781 269.164062 239.925781 272.085938 241.90625 C 277.753906 245.742188 282.1875 253.53125 283.949219 262.734375 C 286.699219 277.085938 281.855469 290.121094 273.15625 291.789062 C 272.539062 291.910156 271.910156 291.96875 271.273438 291.96875 " fill-opacity="1" fill-rule="nonzero"/><path fill="#ffffff" d="M 330.621094 271.726562 C 329.898438 268.886719 333.628906 256.097656 330.089844 244.039062 C 329.996094 243.714844 329.898438 243.398438 329.796875 243.085938 C 327.070312 234.554688 321.226562 227.355469 313.570312 222.71875 C 295.53125 211.792969 276.550781 207.683594 269.988281 206.515625 C 268.460938 206.246094 267.089844 205.429688 266.101562 204.230469 C 232.136719 163.109375 131.089844 164.015625 106.144531 167.15625 C 80.820312 170.34375 68.070312 194.105469 65.761719 196.28125 C 64.578125 197.402344 61.910156 198.476562 59.601562 199.257812 C 56.910156 200.167969 54.636719 202.011719 53.191406 204.457031 C 52.113281 206.273438 51.539062 208.347656 51.53125 210.460938 L 51.40625 239.949219 C 51.398438 241.496094 51.722656 243.023438 52.355469 244.433594 C 53.113281 246.117188 54.605469 247.359375 56.375 247.882812 L 56.546875 247.933594 C 54.703125 233.808594 57.386719 222.101562 62.957031 221.128906 C 68.9375 220.082031 75.980469 231.804688 78.6875 247.3125 C 78.910156 248.59375 79.097656 249.855469 79.25 251.097656 C 79.523438 253.351562 81.132812 255.214844 83.308594 255.859375 L 150.828125 275.851562 C 151.796875 276.140625 152.75 275.351562 152.652344 274.339844 C 150.691406 253.84375 158.164062 236.445312 170.730469 234.035156 C 184.640625 231.367188 199.527344 248.070312 203.984375 271.34375 C 205.304688 278.238281 205.558594 284.941406 204.902344 291.027344 C 204.851562 291.496094 205.140625 291.933594 205.59375 292.070312 C 205.59375 292.070312 236.820312 297.789062 276.167969 294.140625 C 315.515625 290.492188 324.894531 283.921875 328.46875 281.070312 C 332.039062 278.21875 331.34375 274.570312 330.621094 271.726562 " fill-opacity="1" fill-rule="nonzero"/><path fill="#a5c6a3" d="M 113.480469 166.511719 C 132.46875 166.785156 147.894531 179.785156 161.824219 202.9375 C 164.5 207.378906 169.007812 210.402344 174.097656 211.355469 C 194.8125 215.230469 249.230469 226.734375 268.628906 243.789062 C 270.441406 245.382812 270.839844 248.058594 269.578125 250.113281 C 262.375 261.839844 234.167969 296.605469 205.59375 292.070312 C 205.59375 292.070312 236.820312 297.789062 276.167969 294.140625 C 315.515625 290.492188 324.894531 283.921875 328.46875 281.070312 C 332.039062 278.21875 331.34375 274.570312 330.621094 271.726562 C 329.898438 268.886719 333.628906 256.097656 330.089844 244.039062 C 329.992188 243.699219 329.886719 243.371094 329.78125 243.042969 C 327.039062 234.484375 321.171875 227.3125 313.484375 222.667969 C 295.472656 211.78125 276.542969 207.683594 269.996094 206.519531 C 268.476562 206.246094 267.101562 205.445312 266.121094 204.253906 C 237.628906 169.726562 161.851562 164.8125 123.480469 165.980469 L 113.480469 166.511719 " fill-opacity="1" fill-rule="nonzero"/><path fill="#000000" d="M 93.03125 259.289062 C 92.980469 259.289062 92.925781 259.28125 92.875 259.265625 L 83.152344 256.386719 C 80.75 255.675781 79.003906 253.625 78.703125 251.164062 C 78.550781 249.921875 78.363281 248.65625 78.148438 247.40625 C 76.847656 239.972656 74.515625 233.183594 71.578125 228.296875 C 68.773438 223.628906 65.667969 221.210938 63.050781 221.667969 C 57.910156 222.570312 55.292969 234.074219 57.09375 247.863281 C 57.117188 248.046875 57.046875 248.230469 56.90625 248.351562 C 56.761719 248.472656 56.570312 248.511719 56.390625 248.460938 L 56.21875 248.410156 C 54.253906 247.828125 52.664062 246.460938 51.855469 244.65625 C 51.183594 243.167969 50.847656 241.582031 50.855469 239.945312 L 50.980469 210.460938 C 50.992188 208.25 51.589844 206.078125 52.714844 204.175781 C 54.230469 201.621094 56.613281 199.691406 59.421875 198.738281 C 62.417969 197.726562 64.476562 196.738281 65.386719 195.882812 C 65.699219 195.585938 66.328125 194.707031 67.121094 193.59375 C 71.84375 186.960938 84.394531 169.339844 106.074219 166.609375 C 108.324219 166.328125 111.03125 166.082031 114.125 165.875 C 114.425781 165.851562 114.691406 166.082031 114.710938 166.382812 C 114.730469 166.6875 114.5 166.949219 114.199219 166.96875 C 111.128906 167.175781 108.441406 167.421875 106.210938 167.703125 C 85.011719 170.367188 72.664062 187.703125 68.015625 194.230469 C 67.125 195.480469 66.535156 196.308594 66.140625 196.679688 C 65.105469 197.65625 62.964844 198.703125 59.777344 199.777344 C 57.214844 200.644531 55.042969 202.40625 53.664062 204.734375 C 52.636719 206.46875 52.089844 208.449219 52.082031 210.464844 L 51.953125 239.953125 C 51.949219 241.429688 52.25 242.859375 52.859375 244.207031 C 53.445312 245.519531 54.535156 246.558594 55.894531 247.128906 C 55.113281 240.519531 55.300781 234.28125 56.4375 229.472656 C 57.667969 224.253906 59.949219 221.097656 62.859375 220.589844 C 65.996094 220.039062 69.425781 222.578125 72.519531 227.730469 C 75.527344 232.734375 77.910156 239.65625 79.230469 247.21875 C 79.453125 248.488281 79.640625 249.769531 79.796875 251.03125 C 80.042969 253.058594 81.484375 254.746094 83.464844 255.332031 L 93.1875 258.210938 C 93.480469 258.296875 93.644531 258.605469 93.558594 258.894531 C 93.488281 259.132812 93.269531 259.289062 93.03125 259.289062 " fill-opacity="1" fill-rule="nonzero"/><path fill="#000000" d="M 249.527344 295.894531 C 223.824219 295.894531 205.730469 292.652344 205.492188 292.613281 C 205.472656 292.609375 205.457031 292.601562 205.433594 292.597656 C 204.730469 292.386719 204.273438 291.703125 204.355469 290.96875 C 205.03125 284.707031 204.722656 278.136719 203.441406 271.445312 C 200.644531 256.820312 193.363281 243.984375 184.445312 237.945312 C 179.941406 234.894531 175.234375 233.730469 170.832031 234.574219 C 164.976562 235.699219 159.976562 240.335938 156.746094 247.628906 C 153.515625 254.929688 152.253906 264.398438 153.199219 274.289062 C 153.261719 274.945312 152.996094 275.59375 152.484375 276.011719 C 151.976562 276.429688 151.296875 276.566406 150.667969 276.378906 C 150.378906 276.292969 150.214844 275.988281 150.300781 275.695312 C 150.386719 275.40625 150.691406 275.238281 150.980469 275.328125 C 151.265625 275.410156 151.554688 275.351562 151.785156 275.164062 C 152.015625 274.972656 152.132812 274.691406 152.105469 274.390625 C 151.140625 264.316406 152.433594 254.65625 155.738281 247.183594 C 159.117188 239.550781 164.40625 234.691406 170.625 233.496094 C 175.320312 232.597656 180.3125 233.820312 185.0625 237.035156 C 194.351562 243.328125 201.625 256.113281 204.523438 271.238281 C 205.824219 278.039062 206.136719 284.714844 205.449219 291.085938 C 205.425781 291.285156 205.542969 291.472656 205.726562 291.539062 C 206.933594 291.753906 237.875 297.140625 276.117188 293.59375 C 316.59375 289.84375 325.269531 282.917969 328.125 280.640625 C 331.339844 278.074219 330.859375 274.898438 330.085938 271.863281 C 329.835938 270.867188 330.050781 268.96875 330.351562 266.335938 C 330.988281 260.761719 331.949219 252.335938 329.558594 244.191406 C 329.46875 243.875 329.371094 243.5625 329.273438 243.253906 C 326.617188 234.949219 320.941406 227.824219 313.285156 223.1875 C 295.535156 212.441406 277.027344 208.328125 269.894531 207.058594 C 268.253906 206.765625 266.753906 205.886719 265.675781 204.582031 C 254.320312 190.832031 234.390625 180.546875 206.4375 174 C 178.996094 167.578125 150.472656 166.472656 135.914062 166.382812 C 135.609375 166.382812 135.367188 166.136719 135.367188 165.832031 C 135.371094 165.53125 135.613281 165.285156 135.917969 165.285156 C 135.917969 165.285156 135.917969 165.285156 135.921875 165.285156 C 150.527344 165.375 179.140625 166.484375 206.6875 172.933594 C 234.882812 179.53125 255.011719 189.945312 266.523438 203.882812 C 267.4375 204.988281 268.703125 205.730469 270.085938 205.976562 C 277.28125 207.257812 295.949219 211.40625 313.851562 222.25 C 321.738281 227.023438 327.585938 234.363281 330.324219 242.917969 C 330.421875 243.234375 330.519531 243.554688 330.617188 243.882812 C 333.070312 252.242188 332.089844 260.796875 331.445312 266.460938 C 331.167969 268.882812 330.949219 270.792969 331.152344 271.59375 C 331.746094 273.929688 332.851562 278.273438 328.808594 281.496094 C 325.894531 283.824219 317.023438 290.90625 276.21875 294.6875 C 266.765625 295.5625 257.757812 295.894531 249.527344 295.894531 " fill-opacity="1" fill-rule="nonzero"/><path fill="#6d8d6b" d="M 326.566406 276.660156 C 326.777344 277.816406 326.246094 278.988281 325.230469 279.578125 C 319.59375 282.828125 307.175781 287.5 276.265625 290.367188 C 271.957031 290.765625 267.746094 291.054688 263.664062 291.246094 C 262.8125 291.289062 262.367188 290.253906 262.976562 289.660156 L 265.582031 287.132812 C 268.90625 283.90625 273.351562 282.09375 277.984375 282.070312 C 288.753906 282.015625 309.417969 281.011719 322.675781 274.671875 C 324.3125 273.890625 326.242188 274.875 326.566406 276.660156 " fill-opacity="1" fill-rule="nonzero"/><path fill="#ffffff" d="M 200.121094 232.101562 L 203.613281 236.832031 C 207.570312 242.203125 213.664062 245.589844 220.308594 246.121094 L 240.230469 247.710938 C 248.378906 248.359375 256.550781 246.769531 263.863281 243.109375 L 264.511719 242.785156 C 264.511719 242.785156 234.914062 228.894531 200.707031 230.84375 C 200.082031 230.878906 199.75 231.597656 200.121094 232.101562 " fill-opacity="1" fill-rule="nonzero"/><path fill="#6d8d6b" d="M 200.566406 231.777344 L 204.054688 236.507812 C 207.921875 241.753906 213.863281 245.054688 220.351562 245.574219 L 240.273438 247.164062 C 248.175781 247.796875 256.101562 246.289062 263.222656 242.8125 C 257.652344 240.414062 230.828125 229.675781 200.738281 231.390625 C 200.617188 231.398438 200.5625 231.476562 200.539062 231.527344 C 200.523438 231.566406 200.488281 231.671875 200.566406 231.777344 Z M 243.796875 248.402344 C 242.59375 248.402344 241.390625 248.351562 240.1875 248.257812 L 220.265625 246.667969 C 213.457031 246.125 207.226562 242.660156 203.167969 237.160156 L 199.679688 232.429688 C 199.386719 232.03125 199.335938 231.507812 199.546875 231.058594 C 199.753906 230.617188 200.1875 230.320312 200.675781 230.292969 C 234.625 228.359375 264.449219 242.148438 264.746094 242.289062 C 264.9375 242.378906 265.058594 242.566406 265.0625 242.777344 C 265.066406 242.988281 264.945312 243.183594 264.757812 243.277344 L 264.109375 243.601562 C 257.789062 246.765625 250.832031 248.402344 243.796875 248.402344 " fill-opacity="1" fill-rule="nonzero"/><path fill="#6d8d6b" d="M 241.148438 244.554688 L 227.433594 243.148438 C 220.789062 242.617188 214.699219 239.230469 210.738281 233.859375 L 208.472656 230.660156 C 231.972656 230.871094 252.234375 237.820312 260.519531 241.097656 C 260.519531 241.097656 252.394531 244.851562 241.148438 244.554688 " fill-opacity="1" fill-rule="nonzero"/><path fill="#6d8d6b" d="M 324.886719 245.023438 C 325.226562 244.894531 325.402344 244.507812 325.253906 244.179688 C 324.71875 242.960938 322.625 241.566406 318.902344 241.421875 C 286.609375 240.171875 277.023438 245.503906 274.667969 247.394531 C 274.375 247.625 274.511719 248.09375 274.878906 248.132812 C 285.199219 249.242188 293.847656 249.398438 300.910156 249.070312 C 301.625 249.035156 309.128906 248.417969 309.703125 248.347656 C 318.398438 247.296875 323.371094 245.601562 324.886719 245.023438 " fill-opacity="1" fill-rule="nonzero"/><path fill="#314030" d="M 328.910156 260.9375 C 329.214844 260.0625 328.167969 259.347656 327.449219 259.933594 C 321.640625 264.726562 307.679688 268.949219 284.175781 268.445312 C 265.246094 268.039062 241.121094 265.933594 228.179688 264.6875 C 227.359375 264.609375 227.167969 265.800781 227.96875 265.988281 C 242.390625 269.390625 271.429688 275.53125 294.382812 275.867188 C 320.082031 276.238281 327.027344 266.292969 328.910156 260.9375 " fill-opacity="1" fill-rule="nonzero"/><path fill="#314030" d="M 74.449219 194.011719 C 74.09375 192.65625 74.390625 191.214844 75.25 190.113281 C 79.390625 184.789062 92.992188 169.839844 114.582031 170.777344 C 146.152344 172.148438 160.625 211.628906 160.625 211.628906 C 160.625 211.628906 93.320312 202.703125 77.273438 197.089844 C 75.878906 196.601562 74.824219 195.441406 74.449219 194.011719 " fill-opacity="1" fill-rule="nonzero"/><path fill="#6d8d6b" d="M 86.003906 200 C 85.964844 200 85.921875 199.996094 85.878906 199.984375 C 82.078125 199.117188 79.121094 198.316406 77.09375 197.605469 C 75.53125 197.058594 74.34375 195.765625 73.917969 194.148438 C 73.519531 192.644531 73.859375 191.007812 74.816406 189.773438 C 76.894531 187.101562 81.382812 181.96875 88.074219 177.636719 C 96.292969 172.3125 105.21875 169.816406 114.605469 170.226562 C 115.480469 170.265625 116.363281 170.332031 117.222656 170.429688 C 117.527344 170.460938 117.742188 170.734375 117.710938 171.035156 C 117.675781 171.339844 117.398438 171.554688 117.101562 171.523438 C 116.265625 171.425781 115.410156 171.363281 114.558594 171.324219 C 93.019531 170.390625 79.359375 185.726562 75.6875 190.449219 C 74.933594 191.414062 74.671875 192.691406 74.980469 193.871094 C 75.3125 195.136719 76.238281 196.144531 77.457031 196.570312 C 79.445312 197.265625 82.363281 198.054688 86.125 198.914062 C 86.421875 198.984375 86.605469 199.277344 86.539062 199.574219 C 86.480469 199.828125 86.253906 200 86.003906 200 " fill-opacity="1" fill-rule="nonzero"/><path fill="#314030" d="M 221.425781 268.636719 C 220.496094 268.449219 219.667969 269.214844 219.941406 270.125 L 223.621094 282.296875 C 224.601562 285.527344 227.453125 287.828125 230.816406 288.085938 C 231.484375 288.136719 232.628906 288.238281 233.746094 288.339844 C 234.609375 288.417969 238.246094 288.3125 241.257812 288.203125 C 244.972656 288.070312 248.335938 285.785156 249.644531 282.296875 C 250.035156 281.242188 250.238281 280.125 250.078125 279.015625 C 249.773438 276.925781 227.300781 269.816406 221.425781 268.636719 " fill-opacity="1" fill-rule="nonzero"/><path fill="#6d8d6b" d="M 221.433594 268.636719 C 220.519531 268.363281 219.667969 269.214844 219.945312 270.125 L 223.625 282.296875 C 224.597656 285.527344 227.453125 287.828125 230.8125 288.085938 C 231.484375 288.136719 232.628906 288.238281 233.75 288.339844 C 235.277344 288.476562 236.511719 287.105469 236.210938 285.597656 C 235.785156 283.484375 235.511719 280.214844 234.863281 275.777344 C 234.5625 273.6875 233.324219 271.863281 231.277344 271.359375 C 228.566406 270.695312 224.992188 269.707031 221.433594 268.636719 " fill-opacity="1" fill-rule="nonzero"/><path fill="#6d8d6b" d="M 249.542969 279.132812 L 249.546875 279.132812 Z M 221.148438 269.15625 C 220.929688 269.15625 220.730469 269.238281 220.59375 269.390625 C 220.507812 269.480469 220.382812 269.675781 220.472656 269.96875 L 224.148438 282.136719 C 225.050781 285.128906 227.75 287.300781 230.855469 287.539062 C 231.527344 287.589844 232.671875 287.691406 233.796875 287.792969 C 234.453125 287.851562 237.097656 287.804688 241.238281 287.65625 C 244.816406 287.527344 247.914062 285.351562 249.125 282.105469 C 249.527344 281.039062 249.664062 280.035156 249.539062 279.121094 C 248.601562 277.355469 228.109375 270.542969 221.316406 269.175781 C 221.261719 269.164062 221.203125 269.15625 221.148438 269.15625 Z M 234.824219 288.914062 C 234.289062 288.914062 233.914062 288.90625 233.699219 288.886719 C 232.578125 288.785156 231.441406 288.683594 230.773438 288.632812 C 227.214844 288.359375 224.128906 285.878906 223.097656 282.453125 L 219.417969 270.285156 C 219.242188 269.703125 219.375 269.089844 219.777344 268.648438 C 220.207031 268.179688 220.882812 267.96875 221.535156 268.097656 C 224.601562 268.714844 231.839844 270.855469 238.019531 272.964844 C 250.367188 277.191406 250.546875 278.414062 250.621094 278.9375 C 250.78125 280.039062 250.625 281.238281 250.15625 282.488281 C 248.785156 286.152344 245.300781 288.609375 241.277344 288.753906 C 238.25 288.863281 236.089844 288.914062 234.824219 288.914062 " fill-opacity="1" fill-rule="nonzero"/><path fill="#6d8d6b" d="M 151.257812 205.132812 L 149.785156 201.960938 C 148.441406 199.058594 145.351562 197.382812 142.191406 197.84375 L 132.085938 199.316406 C 130.675781 199.519531 129.5 200.503906 129.050781 201.855469 L 127.953125 205.144531 C 127.644531 206.058594 128.050781 207.0625 128.90625 207.507812 L 129.289062 207.707031 C 130.949219 208.574219 132.761719 209.109375 134.625 209.277344 L 160.4375 211.617188 C 161.699219 210.03125 160.695312 207.683594 158.679688 207.503906 L 154.042969 207.09375 C 152.832031 206.984375 151.769531 206.238281 151.257812 205.132812 " fill-opacity="1" fill-rule="nonzero"/><path fill="#314030" d="M 137.433594 170.625 C 137.175781 170.480469 137.285156 170.089844 137.578125 170.09375 C 145.675781 170.222656 194.195312 171.488281 224.164062 183.574219 C 241.070312 190.390625 250.792969 197.769531 257.855469 204.476562 C 258.492188 205.082031 258.046875 206.15625 257.164062 206.132812 C 249.527344 205.929688 224.058594 205.417969 178.988281 206.089844 C 170.289062 206.21875 165.964844 202.363281 157.226562 189.183594 C 150.007812 178.300781 140.519531 172.363281 137.433594 170.625 " fill-opacity="1" fill-rule="nonzero"/><path fill="#ffffff" d="M 193.359375 181.878906 C 193.089844 181.378906 193.472656 180.785156 194.035156 180.863281 C 204.996094 182.40625 216.550781 184.804688 225.832031 188.535156 C 239.027344 193.839844 246.621094 199.589844 252.136719 204.816406 C 252.632812 205.289062 252.289062 206.128906 251.601562 206.109375 C 246.386719 205.976562 230.511719 205.671875 203.054688 205.976562 L 203.054688 205.949219 C 201.863281 201.929688 199.433594 193.277344 193.359375 181.878906 " fill-opacity="1" fill-rule="nonzero"/><path fill="#a5c6a3" d="M 208.230469 199.121094 C 204.585938 201.089844 201.714844 203.613281 200.078125 206.050781 C 201.476562 206.042969 202.847656 206.035156 204.199219 206.027344 C 205.488281 204.535156 207.488281 202.96875 209.917969 201.660156 C 214.894531 198.972656 219.785156 198.382812 220.835938 200.335938 C 221.558594 201.679688 220.289062 203.867188 217.820312 205.976562 C 219.121094 205.972656 220.390625 205.972656 221.632812 205.972656 C 224.0625 203.234375 225.074219 200.421875 224.007812 198.441406 C 222.203125 195.089844 215.140625 195.394531 208.230469 199.121094 " fill-opacity="1" fill-rule="nonzero"/><path fill="#000000" d="M 257.195312 206.679688 C 257.179688 206.679688 257.167969 206.679688 257.152344 206.679688 C 250.332031 206.5 224.535156 205.960938 179 206.636719 C 172.054688 206.742188 167.804688 204.347656 162.183594 197.148438 C 162 196.90625 162.042969 196.5625 162.28125 196.378906 C 162.519531 196.191406 162.867188 196.234375 163.054688 196.472656 C 168.488281 203.433594 172.351562 205.644531 178.980469 205.542969 C 224.539062 204.863281 250.355469 205.402344 257.183594 205.582031 C 257.433594 205.589844 257.546875 205.390625 257.570312 205.328125 C 257.597656 205.269531 257.667969 205.050781 257.476562 204.871094 C 251.28125 198.984375 241.871094 191.304688 223.960938 184.082031 C 214.296875 180.183594 201.722656 177.035156 186.589844 174.714844 C 186.289062 174.667969 186.085938 174.390625 186.128906 174.089844 C 186.175781 173.789062 186.457031 173.582031 186.757812 173.628906 C 201.972656 175.960938 214.628906 179.132812 224.371094 183.0625 C 242.457031 190.355469 251.96875 198.121094 258.234375 204.078125 C 258.691406 204.511719 258.828125 205.164062 258.589844 205.75 C 258.351562 206.320312 257.808594 206.679688 257.195312 206.679688 " fill-opacity="1" fill-rule="nonzero"/><path fill="#000000" d="M 149.988281 180.886719 C 149.847656 180.886719 149.707031 180.832031 149.597656 180.722656 C 144.269531 175.359375 139.128906 172.210938 137.164062 171.105469 C 136.828125 170.914062 136.667969 170.535156 136.769531 170.160156 C 136.871094 169.785156 137.199219 169.535156 137.589844 169.542969 C 140.789062 169.59375 149.445312 169.808594 160.675781 170.679688 C 160.976562 170.703125 161.203125 170.96875 161.179688 171.269531 C 161.15625 171.574219 160.894531 171.796875 160.589844 171.777344 C 150.421875 170.984375 142.371094 170.738281 138.589844 170.660156 C 141.003906 172.101562 145.621094 175.160156 150.378906 179.949219 C 150.59375 180.164062 150.589844 180.511719 150.375 180.726562 C 150.269531 180.832031 150.128906 180.886719 149.988281 180.886719 " fill-opacity="1" fill-rule="nonzero"/><path fill="#6d8d6b" d="M 103.621094 211.75 C 103.304688 211.269531 103.71875 210.640625 104.285156 210.746094 L 118.601562 213.417969 C 121 214.054688 122.671875 215.8125 123.582031 217.03125 C 123.917969 217.480469 123.527344 218.109375 122.972656 218.007812 L 108.671875 215.316406 C 106.691406 214.941406 104.890625 213.671875 103.621094 211.75 " fill-opacity="1" fill-rule="nonzero"/><path fill="#ffffff" d="M 106.617188 187.035156 C 104.679688 188.621094 103.410156 181.714844 103.410156 181.714844 L 111.441406 175.925781 L 116.605469 170.136719 C 117.136719 169.542969 118.046875 169.484375 118.652344 170.003906 C 119.273438 170.535156 119.335938 171.46875 118.796875 172.074219 L 116.496094 174.667969 C 116.175781 175.027344 116.34375 175.597656 116.808594 175.726562 C 117.53125 175.921875 118.277344 175.988281 119.023438 175.917969 C 120.371094 175.789062 122.703125 175.503906 124.96875 174.9375 C 126.03125 174.667969 126.902344 175.664062 126.230469 176.527344 L 120.09375 180.128906 C 118.539062 181.039062 115.925781 181.144531 114.183594 180.671875 C 114.183594 180.671875 112.617188 182.511719 110.902344 183.964844 C 109.511719 185.140625 108.113281 185.8125 106.617188 187.035156 " fill-opacity="1" fill-rule="nonzero"/><path fill="#000000" d="M 104.019531 181.953125 C 104.453125 184.113281 105.292969 186.460938 105.976562 186.710938 C 106.019531 186.722656 106.09375 186.753906 106.269531 186.609375 C 107.023438 185.996094 107.746094 185.515625 108.449219 185.054688 C 109.175781 184.578125 109.859375 184.125 110.546875 183.546875 C 112.207031 182.144531 113.746094 180.335938 113.761719 180.316406 C 113.902344 180.15625 114.121094 180.085938 114.328125 180.140625 C 115.890625 180.566406 118.375 180.5 119.816406 179.65625 L 125.847656 176.113281 C 125.9375 175.964844 125.941406 175.828125 125.855469 175.699219 C 125.742188 175.523438 125.457031 175.378906 125.101562 175.46875 C 122.867188 176.027344 120.589844 176.316406 119.074219 176.464844 C 118.265625 176.542969 117.453125 176.472656 116.664062 176.253906 C 116.261719 176.144531 115.949219 175.839844 115.832031 175.441406 C 115.710938 175.042969 115.804688 174.617188 116.082031 174.304688 L 118.382812 171.710938 C 118.546875 171.527344 118.625 171.292969 118.609375 171.046875 C 118.59375 170.804688 118.480469 170.582031 118.292969 170.417969 C 117.917969 170.097656 117.34375 170.132812 117.015625 170.503906 L 111.851562 176.292969 C 111.824219 176.320312 111.796875 176.347656 111.765625 176.371094 Z M 106.617188 187.035156 L 106.621094 187.035156 Z M 106.046875 187.820312 C 105.875 187.820312 105.722656 187.785156 105.597656 187.738281 C 103.925781 187.128906 103.03125 182.695312 102.871094 181.8125 C 102.832031 181.605469 102.917969 181.390625 103.089844 181.265625 L 111.070312 175.515625 L 116.195312 169.773438 C 116.921875 168.957031 118.183594 168.875 119.011719 169.585938 C 119.421875 169.941406 119.671875 170.433594 119.707031 170.972656 C 119.746094 171.511719 119.566406 172.035156 119.207031 172.441406 L 116.90625 175.03125 C 116.882812 175.058594 116.875 175.09375 116.886719 175.128906 C 116.894531 175.164062 116.917969 175.1875 116.957031 175.195312 C 117.617188 175.378906 118.292969 175.4375 118.96875 175.371094 C 120.179688 175.253906 122.554688 174.972656 124.832031 174.402344 C 125.601562 174.210938 126.382812 174.492188 126.777344 175.101562 C 127.132812 175.644531 127.089844 176.320312 126.664062 176.863281 C 126.621094 176.917969 126.570312 176.964844 126.511719 177 L 120.375 180.601562 C 118.726562 181.566406 116.144531 181.667969 114.378906 181.285156 C 113.878906 181.847656 112.625 183.226562 111.257812 184.382812 C 110.519531 185.007812 109.773438 185.496094 109.054688 185.972656 C 108.375 186.417969 107.675781 186.878906 106.96875 187.460938 C 106.632812 187.734375 106.316406 187.820312 106.046875 187.820312 " fill-opacity="1" fill-rule="nonzero"/><path fill="#6d8d6b" d="M 81.472656 146.941406 C 75.863281 148.222656 71.898438 150.988281 71.898438 150.988281 C 71.898438 150.988281 63.320312 156.445312 63.523438 166.855469 C 63.679688 174.9375 69.707031 184.554688 69.660156 185.246094 C 69.128906 192.957031 68.535156 192.691406 69.335938 195.441406 C 71.277344 202.109375 98.765625 199.359375 99.253906 196.300781 C 99.695312 193.53125 98.417969 188.890625 99.058594 182.65625 C 99.625 177.144531 101.632812 170.359375 101.632812 170.359375 C 110.570312 175.460938 119.851562 174.804688 128.292969 168.832031 C 138.25 161.789062 145.808594 146.121094 145.808594 146.121094 L 140.3125 142.949219 C 140.3125 142.949219 128.457031 156.566406 118.503906 157.628906 C 112.574219 158.261719 107.4375 154.800781 104.445312 152.144531 C 101.421875 149.464844 97.757812 147.59375 93.785156 146.847656 C 90.289062 146.191406 85.957031 145.914062 81.472656 146.941406 " fill-opacity="1" fill-rule="nonzero"/><path fill="#000000" d="M 75.113281 199.550781 C 78.617188 183.75 78.777344 162.445312 78.777344 162.445312 C 78.785156 161.636719 79.445312 160.988281 80.257812 160.988281 L 97.722656 160.988281 C 98.535156 160.988281 99.195312 161.640625 99.203125 162.449219 L 99.152344 199.886719 L 75.113281 199.550781 " fill-opacity="1" fill-rule="nonzero"/><path fill="#000000" d="M 82.359375 164.140625 C 82.332031 164.140625 82.304688 164.136719 82.277344 164.136719 C 81.4375 164.097656 80.792969 163.464844 80.835938 162.71875 C 81.265625 155.269531 79.394531 151.953125 77.746094 150.476562 C 76.738281 149.578125 75.066406 148.835938 74.109375 148.457031 C 73.855469 148.355469 73.863281 148 74.117188 147.90625 C 74.652344 147.707031 75.359375 147.457031 75.796875 147.332031 C 76.136719 147.234375 77.757812 146.605469 79.910156 148.578125 C 82.90625 151.3125 84.269531 156.085938 83.878906 162.859375 C 83.835938 163.578125 83.164062 164.140625 82.359375 164.140625 " fill-opacity="1" fill-rule="nonzero"/><path fill="#000000" d="M 96.085938 164.667969 C 96.0625 164.660156 96.039062 164.652344 96.015625 164.644531 C 95.359375 164.386719 94.503906 163.464844 94.761719 162.796875 C 98.617188 152.792969 97.460938 148.570312 96.519531 146.996094 C 96.378906 146.765625 96.617188 146.492188 96.867188 146.59375 C 97.320312 146.777344 98.351562 147.15625 98.636719 147.289062 C 99.617188 147.742188 102.375 149.949219 97.675781 163.894531 C 97.453125 164.550781 96.722656 164.875 96.085938 164.667969 " fill-opacity="1" fill-rule="nonzero"/><path fill="#a5c6a3" d="M 162.226562 178.332031 C 170.71875 175.59375 183.425781 161.09375 183.425781 161.09375 L 181.796875 159.9375 L 155.207031 166.507812 L 137.121094 157.273438 L 150.355469 138.015625 L 174.585938 133.8125 C 168.242188 126.742188 154.734375 122.59375 145.164062 125.679688 C 133.65625 129.390625 126.253906 139.894531 125.964844 151.308594 L 39.269531 179.261719 C 34.441406 180.820312 31.789062 185.988281 33.351562 190.808594 C 34.914062 195.628906 40.15625 200.5 44.988281 198.941406 L 131.617188 168.761719 C 138.546875 177.847656 150.714844 182.042969 162.226562 178.332031 " fill-opacity="1" fill-rule="nonzero"/><path fill="#ffffff" d="M 164.957031 181.058594 C 174.527344 177.972656 181.261719 170.191406 183.425781 161.09375 L 161.925781 168.023438 L 143.839844 158.792969 L 153.085938 140.742188 L 174.585938 133.8125 C 167.492188 127.699219 157.46875 125.320312 147.898438 128.40625 C 136.390625 132.117188 128.984375 142.621094 128.699219 154.035156 L 42.003906 181.988281 C 37.175781 183.546875 34.523438 188.714844 36.085938 193.535156 C 37.644531 198.355469 42.828125 200.996094 47.660156 199.441406 L 134.351562 171.488281 C 141.28125 180.574219 153.449219 184.769531 164.957031 181.058594 " fill-opacity="1" fill-rule="nonzero"/><path fill="#000000" d="M 156.5 127.59375 C 153.6875 127.59375 150.847656 128.03125 148.070312 128.929688 C 137.101562 132.464844 129.535156 142.558594 129.246094 154.050781 C 129.242188 154.285156 129.089844 154.488281 128.867188 154.558594 L 42.171875 182.511719 C 39.976562 183.21875 38.1875 184.738281 37.136719 186.789062 C 36.085938 188.839844 35.898438 191.175781 36.609375 193.367188 C 38.074219 197.890625 42.953125 200.382812 47.488281 198.917969 L 134.183594 170.964844 C 134.40625 170.894531 134.648438 170.96875 134.789062 171.15625 C 141.765625 180.300781 153.824219 184.074219 164.789062 180.535156 C 173.59375 177.699219 180.207031 170.78125 182.644531 161.921875 L 162.097656 168.546875 C 161.957031 168.59375 161.804688 168.578125 161.675781 168.511719 L 143.589844 159.28125 C 143.460938 159.214844 143.359375 159.097656 143.316406 158.960938 C 143.269531 158.820312 143.285156 158.671875 143.351562 158.542969 L 152.597656 140.492188 C 152.664062 140.363281 152.78125 140.265625 152.917969 140.222656 L 173.464844 133.597656 C 168.554688 129.65625 162.597656 127.59375 156.5 127.59375 Z M 44.839844 200.433594 C 40.726562 200.4375 36.894531 197.816406 35.5625 193.703125 C 34.761719 191.234375 34.972656 188.601562 36.15625 186.289062 C 37.34375 183.976562 39.359375 182.265625 41.835938 181.46875 L 128.160156 153.632812 C 128.621094 141.839844 136.441406 131.523438 147.730469 127.882812 C 157.21875 124.824219 167.390625 126.886719 174.945312 133.394531 C 175.09375 133.523438 175.164062 133.726562 175.125 133.921875 C 175.082031 134.113281 174.945312 134.273438 174.753906 134.335938 L 153.472656 141.195312 L 144.582031 158.554688 L 161.976562 167.433594 L 183.253906 160.570312 C 183.445312 160.511719 183.652344 160.554688 183.796875 160.691406 C 183.941406 160.824219 184.003906 161.027344 183.957031 161.222656 C 181.65625 170.910156 174.613281 178.523438 165.128906 181.582031 C 153.839844 185.222656 141.445312 181.421875 134.152344 172.128906 L 47.828125 199.964844 C 46.835938 200.28125 45.828125 200.433594 44.839844 200.433594 " fill-opacity="1" fill-rule="nonzero"/><path fill="#6d8d6b" d="M 76.007812 151.742188 C 76.007812 151.742188 69.898438 154.328125 66.671875 164.859375 C 64.890625 170.671875 65.488281 178.75 73.996094 189.976562 C 82.390625 201.050781 107.292969 187.558594 107.292969 187.558594 L 106.746094 179.265625 C 106.746094 179.265625 93.03125 186.804688 83.765625 182.46875 C 81.097656 181.222656 77.019531 167.851562 76.605469 161.191406 L 76.007812 151.742188 " fill-opacity="1" fill-rule="nonzero"/><path fill="#000000" d="M 85.128906 194.878906 C 80.144531 194.878906 76.226562 193.355469 73.582031 190.335938 C 72.71875 189.351562 71.972656 188.308594 71.253906 187.300781 L 70.847656 186.730469 C 70.667969 186.484375 70.726562 186.144531 70.972656 185.964844 C 71.21875 185.789062 71.5625 185.847656 71.742188 186.089844 L 72.148438 186.664062 C 72.855469 187.648438 73.582031 188.671875 74.410156 189.613281 C 83.132812 199.566406 103.976562 188.738281 106.722656 187.25 L 106.25 180.128906 C 103.050781 181.699219 90.667969 187.25 83.480469 182.941406 C 81.257812 181.605469 78.105469 173.074219 76.777344 166.332031 C 76.71875 166.035156 76.910156 165.746094 77.210938 165.6875 C 77.507812 165.628906 77.796875 165.820312 77.855469 166.117188 C 79.230469 173.085938 82.296875 180.949219 84.046875 182 C 91.640625 186.554688 106.339844 178.855469 106.488281 178.777344 C 106.652344 178.691406 106.847656 178.695312 107.011719 178.78125 C 107.175781 178.875 107.28125 179.039062 107.292969 179.226562 L 107.84375 187.523438 C 107.855469 187.734375 107.75 187.933594 107.566406 188.039062 C 107.507812 188.070312 101.527344 191.46875 94.433594 193.449219 C 91.023438 194.402344 87.910156 194.878906 85.128906 194.878906 " fill-opacity="1" fill-rule="nonzero"/><path fill="#ffffff" d="M 78.429688 276.703125 L 76.488281 286.101562 L 81.578125 287.550781 L 84.394531 278.402344 L 78.429688 276.703125 " fill-opacity="1" fill-rule="nonzero"/><path fill="#000000" d="M 77.128906 285.714844 L 81.210938 286.875 L 83.703125 278.777344 L 78.851562 277.394531 Z M 81.578125 288.101562 C 81.527344 288.101562 81.476562 288.09375 81.425781 288.078125 L 76.335938 286.628906 C 76.058594 286.546875 75.890625 286.269531 75.949219 285.988281 L 77.894531 276.59375 C 77.921875 276.441406 78.015625 276.3125 78.148438 276.234375 C 78.277344 276.15625 78.433594 276.132812 78.582031 276.175781 L 84.542969 277.875 C 84.6875 277.917969 84.804688 278.011719 84.875 278.140625 C 84.945312 278.273438 84.960938 278.421875 84.917969 278.5625 L 82.101562 287.710938 C 82.03125 287.949219 81.8125 288.101562 81.578125 288.101562 " fill-opacity="1" fill-rule="nonzero"/><path fill="#6d8d6b" d="M 74.804688 294.019531 C 74.859375 294.921875 75.960938 295.648438 76.847656 295.78125 C 79.933594 296.253906 87.191406 296.054688 89.164062 296.191406 C 91.722656 296.371094 96.523438 296.175781 96.710938 294.535156 C 96.9375 292.53125 94.792969 289.609375 89.660156 288.007812 C 87.007812 287.179688 84.199219 283.078125 82.957031 283.003906 C 81.710938 282.929688 79.515625 286.171875 79.515625 286.171875 L 75.976562 284.960938 C 75.976562 284.960938 74.511719 289.433594 74.804688 294.019531 " fill-opacity="1" fill-rule="nonzero"/><path fill="#000000" d="M 76.339844 285.664062 C 75.976562 286.96875 75.128906 290.464844 75.351562 293.984375 C 75.386719 294.5625 76.230469 295.132812 76.929688 295.242188 C 78.910156 295.542969 82.789062 295.5625 85.617188 295.578125 C 87.164062 295.585938 88.503906 295.59375 89.199219 295.644531 C 92.683594 295.886719 96.070312 295.316406 96.164062 294.472656 C 96.375 292.617188 94.152344 289.984375 89.496094 288.53125 C 87.902344 288.035156 86.304688 286.492188 85.019531 285.253906 C 84.28125 284.546875 83.273438 283.574219 82.921875 283.550781 C 82.386719 283.507812 80.925781 285.070312 79.96875 286.480469 C 79.832031 286.683594 79.570312 286.769531 79.335938 286.691406 Z M 90.902344 296.796875 C 90.023438 296.796875 89.34375 296.753906 89.125 296.738281 C 88.460938 296.691406 87.140625 296.6875 85.613281 296.675781 C 82.589844 296.660156 78.824219 296.640625 76.765625 296.324219 C 75.617188 296.152344 74.328125 295.230469 74.253906 294.054688 C 73.960938 289.417969 75.390625 284.976562 75.453125 284.789062 C 75.5 284.648438 75.601562 284.535156 75.730469 284.46875 C 75.863281 284.402344 76.015625 284.390625 76.15625 284.441406 L 79.300781 285.515625 C 80.050781 284.46875 81.71875 282.386719 82.988281 282.457031 C 83.746094 282.5 84.601562 283.324219 85.785156 284.464844 C 86.984375 285.625 88.476562 287.0625 89.824219 287.484375 C 95.292969 289.1875 97.511719 292.367188 97.257812 294.597656 C 97.042969 296.496094 93.257812 296.796875 90.902344 296.796875 " fill-opacity="1" fill-rule="nonzero"/><path fill="#000000" d="M 92.105469 294.34375 C 91.421875 294.34375 90.675781 294.300781 89.886719 294.261719 C 88.730469 294.199219 87.535156 294.136719 86.363281 294.191406 C 83.660156 294.316406 81.34375 294.207031 79.882812 294.097656 C 77.03125 293.878906 76.929688 293.71875 76.804688 293.515625 C 76.699219 293.347656 76.691406 293.132812 76.785156 292.960938 C 76.921875 292.703125 77.230469 292.601562 77.492188 292.71875 C 78.054688 292.847656 81.757812 293.304688 86.3125 293.09375 C 87.535156 293.039062 88.761719 293.101562 89.945312 293.164062 C 91.691406 293.257812 93.339844 293.34375 94.246094 292.953125 C 94.527344 292.832031 94.851562 292.964844 94.96875 293.242188 C 95.089844 293.519531 94.960938 293.84375 94.683594 293.960938 C 94 294.257812 93.117188 294.34375 92.105469 294.34375 " fill-opacity="1" fill-rule="nonzero"/><path fill="#000000" d="M 85.515625 291.121094 C 85.378906 291.121094 85.242188 291.066406 85.132812 290.964844 C 84.917969 290.753906 84.910156 290.40625 85.121094 290.1875 L 86.984375 288.269531 C 87.199219 288.050781 87.546875 288.046875 87.761719 288.257812 C 87.980469 288.464844 87.988281 288.816406 87.773438 289.03125 L 85.914062 290.953125 C 85.804688 291.0625 85.660156 291.121094 85.515625 291.121094 " fill-opacity="1" fill-rule="nonzero"/><path fill="#ffffff" d="M 50.820312 276.257812 L 50.558594 282.8125 L 55.105469 283.914062 L 55.914062 276.304688 L 50.820312 276.257812 " fill-opacity="1" fill-rule="nonzero"/><path fill="#000000" d="M 51.128906 282.382812 L 54.625 283.234375 L 55.304688 276.847656 L 51.347656 276.8125 Z M 55.105469 284.464844 C 55.0625 284.464844 55.019531 284.460938 54.976562 284.449219 L 50.429688 283.34375 C 50.175781 283.285156 50 283.050781 50.011719 282.789062 L 50.269531 276.238281 C 50.28125 275.941406 50.523438 275.707031 50.820312 275.707031 C 50.820312 275.707031 50.824219 275.707031 50.824219 275.707031 L 55.917969 275.753906 C 56.074219 275.757812 56.222656 275.824219 56.324219 275.9375 C 56.429688 276.054688 56.476562 276.207031 56.460938 276.363281 L 55.652344 283.972656 C 55.636719 284.128906 55.550781 284.273438 55.421875 284.367188 C 55.328125 284.429688 55.21875 284.464844 55.105469 284.464844 " fill-opacity="1" fill-rule="nonzero"/><path fill="#6d8d6b" d="M 55.796875 295.832031 C 53.976562 296.089844 51.003906 296.199219 47.484375 295.828125 C 45.90625 295.660156 45.289062 293.453125 45.566406 292.316406 C 46.339844 289.148438 47.683594 284.042969 49.964844 281.257812 L 50.804688 282.960938 L 51.59375 281.300781 C 51.703125 281.105469 51.894531 280.972656 52.113281 280.949219 L 53.820312 280.964844 C 54.179688 280.917969 54.511719 281.15625 54.585938 281.515625 L 54.859375 282.824219 L 56.316406 281.132812 L 57.453125 293.625 C 57.59375 294.695312 56.855469 295.679688 55.796875 295.832031 " fill-opacity="1" fill-rule="nonzero"/><path fill="#000000" d="M 49.871094 282.308594 C 47.84375 285.300781 46.640625 290.242188 46.101562 292.445312 C 45.964844 293.003906 46.105469 293.984375 46.582031 294.652344 C 46.847656 295.03125 47.167969 295.242188 47.542969 295.28125 C 50.492188 295.59375 53.550781 295.59375 55.722656 295.289062 C 56.476562 295.179688 57.007812 294.464844 56.910156 293.695312 L 55.886719 282.472656 L 55.277344 283.179688 C 55.140625 283.339844 54.925781 283.40625 54.722656 283.355469 C 54.519531 283.304688 54.363281 283.140625 54.320312 282.933594 L 54.046875 281.625 C 54.03125 281.550781 53.964844 281.496094 53.890625 281.507812 C 53.867188 281.511719 53.839844 281.511719 53.816406 281.511719 L 52.160156 281.496094 C 52.125 281.507812 52.09375 281.53125 52.078125 281.566406 L 51.300781 283.195312 C 51.210938 283.382812 51.015625 283.507812 50.804688 283.507812 C 50.59375 283.507812 50.402344 283.390625 50.308594 283.199219 Z M 55.796875 295.832031 L 55.800781 295.832031 Z M 51.910156 296.617188 C 50.652344 296.617188 49.144531 296.554688 47.425781 296.375 C 46.734375 296.300781 46.128906 295.925781 45.679688 295.289062 C 45.078125 294.429688 44.804688 293.125 45.035156 292.1875 C 45.96875 288.355469 47.324219 283.613281 49.539062 280.910156 C 49.65625 280.765625 49.84375 280.691406 50.027344 280.714844 C 50.214844 280.734375 50.375 280.847656 50.457031 281.015625 L 50.792969 281.699219 L 51.097656 281.066406 C 51.304688 280.691406 51.652344 280.453125 52.042969 280.402344 C 52.070312 280.398438 52.09375 280.398438 52.117188 280.398438 L 53.792969 280.414062 C 54.421875 280.359375 54.996094 280.785156 55.125 281.402344 L 55.171875 281.621094 L 55.898438 280.773438 C 56.042969 280.609375 56.273438 280.542969 56.484375 280.609375 C 56.695312 280.675781 56.84375 280.863281 56.863281 281.082031 L 58 293.574219 C 58.175781 294.917969 57.226562 296.183594 55.875 296.375 C 55.21875 296.46875 53.855469 296.617188 51.910156 296.617188 " fill-opacity="1" fill-rule="nonzero"/><path fill="#000000" d="M 50.734375 294.566406 C 49.546875 294.566406 48.265625 294.460938 46.984375 294.167969 C 46.691406 294.097656 46.503906 293.804688 46.574219 293.507812 C 46.640625 293.210938 46.933594 293.027344 47.234375 293.097656 C 51.433594 294.0625 55.847656 292.820312 55.890625 292.804688 C 56.183594 292.722656 56.488281 292.890625 56.570312 293.183594 C 56.65625 293.472656 56.488281 293.777344 56.195312 293.859375 C 56.058594 293.902344 53.703125 294.566406 50.734375 294.566406 " fill-opacity="1" fill-rule="nonzero"/><path fill="#000000" d="M 49.691406 289.71875 C 49.398438 289.71875 49.152344 289.484375 49.144531 289.1875 C 49.132812 288.882812 49.371094 288.628906 49.675781 288.617188 L 53.769531 288.484375 C 54.0625 288.46875 54.328125 288.710938 54.339844 289.011719 C 54.347656 289.316406 54.109375 289.570312 53.808594 289.582031 L 49.710938 289.71875 C 49.703125 289.71875 49.699219 289.71875 49.691406 289.71875 " fill-opacity="1" fill-rule="nonzero"/><path fill="#000000" d="M 96.898438 251.550781 C 91.078125 267.613281 86.921875 275.617188 85.324219 278.523438 C 84.886719 279.316406 84.015625 279.757812 83.121094 279.644531 L 78.972656 279.105469 C 77.742188 278.945312 76.886719 277.792969 77.082031 276.558594 C 78.59375 266.996094 84.609375 220.46875 83.007812 216.167969 L 57.230469 277.15625 C 56.953125 277.804688 56.316406 278.222656 55.617188 278.210938 L 51.265625 278.164062 C 50.292969 278.152344 49.519531 277.339844 49.546875 276.359375 C 50.832031 226.996094 65.191406 219.054688 69.398438 195.453125 C 69.40625 195.394531 92.125 198.789062 99.203125 195.042969 C 99.304688 194.988281 103.664062 232.878906 96.898438 251.550781 " fill-opacity="1" fill-rule="nonzero"/><path fill="#a5c6a3" d="M 69.867188 206.988281 C 69.640625 206.988281 69.507812 206.976562 69.496094 206.976562 C 69.195312 206.949219 68.972656 206.679688 69.003906 206.378906 C 69.03125 206.074219 69.300781 205.851562 69.601562 205.882812 C 69.832031 205.902344 75.207031 206.324219 76.742188 200.332031 C 76.820312 200.039062 77.117188 199.859375 77.414062 199.9375 C 77.707031 200.011719 77.886719 200.3125 77.808594 200.605469 C 76.285156 206.558594 71.273438 206.988281 69.867188 206.988281 " fill-opacity="1" fill-rule="nonzero"/><path fill="#a5c6a3" d="M 98.085938 206.988281 C 97.0625 206.988281 93.53125 206.542969 92.488281 200.5625 C 92.4375 200.261719 92.636719 199.980469 92.9375 199.925781 C 93.234375 199.875 93.523438 200.074219 93.574219 200.375 C 94.613281 206.324219 98.179688 205.890625 98.214844 205.886719 C 98.515625 205.84375 98.792969 206.054688 98.835938 206.351562 C 98.878906 206.652344 98.667969 206.929688 98.367188 206.972656 C 98.363281 206.976562 98.261719 206.988281 98.085938 206.988281 " fill-opacity="1" fill-rule="nonzero"/><path fill="#ffffff" d="M 91.105469 150.480469 L 92.296875 144.328125 C 92.382812 143.917969 92.722656 143.605469 93.136719 143.558594 L 95.535156 143.28125 C 96.042969 143.222656 96.453125 142.828125 96.535156 142.316406 L 97.078125 138.886719 C 97.078125 138.878906 97.082031 138.878906 97.085938 138.875 L 98.222656 138.253906 C 98.449219 138.128906 98.535156 137.847656 98.417969 137.617188 L 97.222656 135.253906 C 96.988281 134.792969 96.667969 132.199219 96.15625 132.226562 C 96.15625 132.226562 87.535156 129.203125 85 132.804688 C 84.328125 133.761719 84.253906 135.019531 84.707031 136.097656 L 85.289062 137.46875 C 85.890625 138.898438 86.027344 140.503906 85.566406 141.980469 C 85.402344 142.511719 85.167969 143.023438 84.875 143.5 L 81.636719 148.585938 C 83.988281 149.773438 86.578125 150.410156 89.210938 150.449219 L 91.105469 150.480469 " fill-opacity="1" fill-rule="nonzero"/><path fill="#000000" d="M 96.183594 132.773438 Z M 82.429688 148.359375 C 84.554688 149.335938 86.886719 149.867188 89.21875 149.902344 L 90.652344 149.925781 L 91.757812 144.226562 C 91.894531 143.570312 92.421875 143.085938 93.074219 143.011719 L 95.472656 142.734375 C 95.734375 142.707031 95.949219 142.496094 95.992188 142.230469 L 96.53125 138.800781 C 96.5625 138.628906 96.675781 138.46875 96.832031 138.386719 L 97.898438 137.804688 L 96.730469 135.503906 C 96.625 135.296875 96.546875 134.957031 96.417969 134.371094 C 96.316406 133.921875 96.113281 133.019531 95.953125 132.734375 C 93.648438 131.933594 87.324219 130.457031 85.449219 133.121094 C 84.910156 133.886719 84.820312 134.945312 85.214844 135.882812 L 85.796875 137.253906 C 86.46875 138.851562 86.574219 140.589844 86.089844 142.144531 C 85.910156 142.722656 85.660156 143.273438 85.34375 143.785156 Z M 91.105469 151.027344 C 91.105469 151.027344 91.101562 151.027344 91.097656 151.027344 L 89.203125 151 C 86.503906 150.960938 83.800781 150.292969 81.386719 149.074219 C 81.25 149.003906 81.148438 148.878906 81.105469 148.730469 C 81.0625 148.578125 81.089844 148.421875 81.171875 148.289062 L 84.410156 143.207031 C 84.675781 142.777344 84.886719 142.308594 85.039062 141.820312 C 85.445312 140.511719 85.355469 139.039062 84.78125 137.683594 L 84.203125 136.308594 C 83.660156 135.027344 83.792969 133.5625 84.550781 132.488281 C 87.191406 128.738281 95.328125 131.363281 96.261719 131.679688 C 96.960938 131.765625 97.195312 132.820312 97.492188 134.132812 C 97.5625 134.460938 97.660156 134.902344 97.710938 135.007812 L 98.910156 137.367188 C 99.164062 137.867188 98.976562 138.46875 98.488281 138.734375 L 97.578125 139.230469 L 97.078125 142.402344 C 96.960938 143.15625 96.347656 143.742188 95.597656 143.828125 L 93.199219 144.101562 C 93.019531 144.125 92.875 144.257812 92.835938 144.441406 L 91.648438 150.582031 C 91.597656 150.84375 91.371094 151.027344 91.105469 151.027344 " fill-opacity="1" fill-rule="nonzero"/><path fill="#000000" d="M 89.433594 136.050781 C 88.992188 134.941406 88.296875 134.527344 88.429688 133.898438 C 88.507812 133.519531 88.832031 133.28125 89.019531 133.144531 C 89.941406 132.472656 91.152344 132.882812 93.589844 133.34375 C 96.613281 133.921875 96.957031 134.007812 97.527344 133.785156 C 98.976562 133.207031 99.800781 131.410156 99.867188 129.929688 C 99.882812 129.515625 99.921875 127.316406 98.066406 126.179688 C 96.722656 125.359375 94.929688 125.421875 93.480469 126.332031 C 93.355469 125.902344 93.089844 125.300781 92.515625 125.007812 C 91.148438 124.304688 89.113281 125.878906 88.398438 126.429688 C 87.742188 126.941406 86.566406 128.003906 85.722656 129.878906 C 85.457031 129.726562 84.445312 129.199219 83.34375 129.550781 C 81.710938 130.078125 81.308594 132.089844 81.273438 132.285156 C 80.863281 134.507812 82.679688 136.445312 84.050781 137.910156 C 84.804688 138.71875 85.203125 139.027344 85.648438 139.324219 C 85.910156 139.5 86.246094 139.515625 86.523438 139.363281 C 86.527344 139.359375 86.535156 139.355469 86.539062 139.351562 C 86.902344 139.152344 87.023438 138.683594 86.804688 138.328125 L 86.734375 138.21875 C 86.472656 137.789062 86.296875 137.316406 86.238281 136.816406 C 86.195312 136.421875 86.226562 136.003906 86.480469 135.789062 C 86.890625 135.445312 87.585938 135.671875 87.683594 135.707031 C 88.195312 135.871094 88.515625 136.253906 88.710938 136.613281 C 88.921875 137.003906 89.628906 136.539062 89.433594 136.050781 " fill-opacity="1" fill-rule="nonzero"/><path fill="#6d8d6b" d="M 95.859375 125.917969 L 103.210938 124.335938 C 104.554688 124.046875 105.765625 125.75 105.28125 127.3125 C 104.953125 128.375 103.921875 129.523438 101.449219 130.464844 C 94.933594 132.9375 90.792969 133.953125 90.792969 133.953125 L 95.859375 125.917969 " fill-opacity="1" fill-rule="nonzero"/><path fill="#000000" d="M 96.199219 126.40625 L 92.007812 133.054688 C 93.726562 132.566406 96.988281 131.570312 101.253906 129.949219 C 103.238281 129.195312 104.417969 128.253906 104.757812 127.152344 C 104.957031 126.503906 104.792969 125.761719 104.335938 125.265625 C 104.160156 125.074219 103.796875 124.773438 103.324219 124.875 Z M 90.792969 134.5 C 90.617188 134.5 90.449219 134.417969 90.34375 134.273438 C 90.214844 134.09375 90.207031 133.847656 90.324219 133.660156 L 95.390625 125.625 C 95.472656 125.5 95.597656 125.410156 95.742188 125.378906 L 103.09375 123.800781 C 103.828125 123.640625 104.578125 123.902344 105.148438 124.523438 C 105.863281 125.300781 106.121094 126.457031 105.808594 127.476562 C 105.363281 128.917969 103.960938 130.097656 101.644531 130.976562 C 95.171875 133.4375 90.964844 134.476562 90.921875 134.484375 C 90.878906 134.496094 90.835938 134.5 90.792969 134.5 " fill-opacity="1" fill-rule="nonzero"/><path fill="#6d8d6b" d="M 83.988281 136.714844 C 83.988281 136.714844 77.539062 130.328125 83.066406 125.628906 C 90.21875 119.546875 94.5625 123.367188 96.441406 126 C 97.1875 127.042969 97.25 128.363281 96.59375 129.460938 L 96.574219 129.496094 C 95.4375 131.402344 93.617188 132.914062 91.40625 133.785156 L 83.988281 136.714844 " fill-opacity="1" fill-rule="nonzero"/><path fill="#000000" d="M 90.234375 122.921875 C 88.152344 122.921875 85.867188 123.96875 83.425781 126.046875 C 82.125 127.148438 81.4375 128.445312 81.382812 129.894531 C 81.273438 132.636719 83.402344 135.253906 84.132812 136.066406 L 91.203125 133.277344 C 93.292969 132.449219 95.03125 131.007812 96.101562 129.214844 L 96.121094 129.183594 C 96.660156 128.28125 96.609375 127.183594 95.992188 126.320312 C 95.019531 124.953125 93.359375 123.261719 90.976562 122.96875 C 90.730469 122.9375 90.484375 122.921875 90.234375 122.921875 Z M 83.988281 137.265625 C 83.84375 137.265625 83.703125 137.207031 83.601562 137.105469 C 83.457031 136.964844 80.140625 133.632812 80.28125 129.855469 C 80.351562 128.085938 81.167969 126.523438 82.710938 125.207031 C 85.691406 122.675781 88.515625 121.554688 91.109375 121.878906 C 93.890625 122.222656 95.789062 124.136719 96.890625 125.679688 C 97.761719 126.90625 97.832031 128.460938 97.066406 129.746094 L 97.046875 129.777344 C 95.851562 131.777344 93.921875 133.382812 91.605469 134.296875 L 84.191406 137.226562 C 84.125 137.253906 84.054688 137.265625 83.988281 137.265625 " fill-opacity="1" fill-rule="nonzero"/><path fill="#000000" d="M 83.542969 136.910156 L 85.453125 136.136719 C 85.390625 135.945312 85.199219 135.304688 85.105469 135.089844 C 83.726562 131.90625 82.226562 132.453125 81.40625 133.058594 C 82.207031 135.085938 83.542969 136.910156 83.542969 136.910156 " fill-opacity="1" fill-rule="nonzero"/><path fill="#ffffff" d="M 107.199219 179.300781 L 112.832031 174.449219 L 116.746094 170.0625 C 117.277344 169.46875 118.1875 169.410156 118.792969 169.929688 C 119.410156 170.460938 119.476562 171.394531 118.9375 172.003906 L 116.632812 174.59375 C 116.316406 174.957031 116.484375 175.523438 116.949219 175.652344 C 117.671875 175.847656 118.417969 175.914062 119.160156 175.84375 C 120.511719 175.714844 122.839844 175.429688 125.105469 174.863281 C 126.171875 174.597656 127.046875 175.589844 126.371094 176.453125 L 120.234375 180.054688 C 119.019531 180.765625 117.621094 181.070312 116.238281 180.949219 C 115.636719 180.898438 114.929688 180.816406 114.175781 180.71875 C 113.796875 180.671875 113.226562 181.8125 111.945312 183.023438 C 110.238281 184.636719 107.675781 185.824219 107.675781 185.824219 L 107.199219 179.300781 " fill-opacity="1" fill-rule="nonzero"/><path fill="#000000" d="M 107.449219 186.949219 C 107.242188 186.949219 107.042969 186.828125 106.949219 186.625 C 106.824219 186.351562 106.945312 186.023438 107.222656 185.898438 C 110.316406 184.488281 113.867188 180.289062 113.902344 180.246094 C 114.03125 180.089844 114.234375 180.019531 114.433594 180.0625 L 115.847656 180.347656 C 117.25 180.578125 118.714844 180.308594 119.957031 179.582031 L 125.988281 176.039062 C 126.078125 175.894531 126.082031 175.753906 125.996094 175.625 C 125.882812 175.453125 125.597656 175.304688 125.242188 175.394531 C 123.007812 175.953125 120.730469 176.242188 119.214844 176.390625 C 118.40625 176.46875 117.59375 176.398438 116.804688 176.179688 C 116.402344 176.070312 116.089844 175.765625 115.972656 175.367188 C 115.851562 174.96875 115.945312 174.542969 116.222656 174.230469 L 118.523438 171.636719 C 118.6875 171.457031 118.765625 171.21875 118.75 170.972656 C 118.734375 170.730469 118.621094 170.503906 118.433594 170.34375 C 118.058594 170.023438 117.484375 170.058594 117.15625 170.429688 L 112.441406 175.714844 C 112.3125 175.84375 109.847656 178.265625 107.496094 179.765625 C 107.238281 179.925781 106.898438 179.851562 106.734375 179.597656 C 106.570312 179.34375 106.648438 179.003906 106.902344 178.839844 C 109.160156 177.402344 111.621094 174.984375 111.644531 174.957031 L 116.335938 169.699219 C 117.058594 168.886719 118.324219 168.800781 119.152344 169.511719 C 119.5625 169.867188 119.8125 170.359375 119.847656 170.898438 C 119.882812 171.441406 119.707031 171.960938 119.347656 172.367188 L 117.046875 174.957031 C 117.023438 174.988281 117.015625 175.019531 117.027344 175.054688 C 117.035156 175.089844 117.058594 175.113281 117.097656 175.121094 C 117.757812 175.304688 118.433594 175.363281 119.109375 175.296875 C 120.320312 175.183594 122.691406 174.898438 124.972656 174.328125 C 125.738281 174.136719 126.523438 174.417969 126.917969 175.027344 C 127.273438 175.570312 127.230469 176.246094 126.804688 176.789062 C 126.761719 176.84375 126.710938 176.890625 126.648438 176.925781 L 120.511719 180.527344 C 119.050781 181.386719 117.320312 181.707031 115.644531 181.425781 L 114.527344 181.199219 C 113.6875 182.164062 110.578125 185.578125 107.679688 186.898438 C 107.605469 186.929688 107.527344 186.949219 107.449219 186.949219 " fill-opacity="1" fill-rule="nonzero"/><path fill="#ffffff" d="M 163.171875 320.261719 L 114.046875 320.261719 C 111.929688 320.261719 110.15625 318.636719 109.933594 316.496094 L 109.949219 289.027344 L 167.269531 289.027344 L 167.285156 316.496094 C 167.0625 318.636719 165.285156 320.261719 163.171875 320.261719 " fill-opacity="1" fill-rule="nonzero"/><path fill="#000000" d="M 110.480469 316.464844 C 110.691406 318.320312 112.21875 319.714844 114.046875 319.714844 L 163.171875 319.714844 C 165 319.714844 166.527344 318.320312 166.734375 316.464844 L 166.71875 289.578125 L 110.5 289.578125 Z M 163.171875 320.808594 L 114.046875 320.808594 C 111.644531 320.808594 109.640625 318.980469 109.386719 316.554688 C 109.382812 316.535156 109.382812 316.515625 109.382812 316.496094 L 109.398438 289.027344 C 109.398438 288.722656 109.644531 288.480469 109.949219 288.480469 L 167.269531 288.480469 C 167.570312 288.480469 167.816406 288.722656 167.816406 289.027344 L 167.835938 316.496094 C 167.835938 316.515625 167.835938 316.535156 167.832031 316.554688 C 167.578125 318.980469 165.574219 320.808594 163.171875 320.808594 " fill-opacity="1" fill-rule="nonzero"/><path fill="#ffffff" d="M 128.089844 269.703125 L 128.089844 277.277344 L 132.496094 277.277344 L 132.496094 271.363281 C 132.496094 269.800781 133.765625 268.535156 135.328125 268.535156 L 142.757812 268.535156 C 144.324219 268.535156 145.589844 269.800781 145.589844 271.363281 L 145.589844 277.277344 L 149.996094 277.277344 L 149.996094 269.703125 C 149.996094 266.832031 147.664062 264.503906 144.785156 264.503906 L 133.304688 264.503906 C 130.425781 264.503906 128.089844 266.832031 128.089844 269.703125 " fill-opacity="1" fill-rule="nonzero"/><path fill="#000000" d="M 146.140625 276.726562 L 149.445312 276.726562 L 149.445312 269.703125 C 149.445312 267.140625 147.355469 265.054688 144.785156 265.054688 L 133.304688 265.054688 C 130.734375 265.054688 128.640625 267.140625 128.640625 269.703125 L 128.640625 276.726562 L 131.949219 276.726562 L 131.949219 271.363281 C 131.949219 269.5 133.464844 267.988281 135.328125 267.988281 L 142.757812 267.988281 C 144.625 267.988281 146.140625 269.5 146.140625 271.363281 Z M 149.996094 277.824219 L 145.589844 277.824219 C 145.285156 277.824219 145.039062 277.578125 145.039062 277.277344 L 145.039062 271.363281 C 145.039062 270.105469 144.015625 269.085938 142.757812 269.085938 L 135.328125 269.085938 C 134.070312 269.085938 133.046875 270.105469 133.046875 271.363281 L 133.046875 277.277344 C 133.046875 277.578125 132.800781 277.824219 132.496094 277.824219 L 128.089844 277.824219 C 127.789062 277.824219 127.542969 277.578125 127.542969 277.277344 L 127.542969 269.703125 C 127.542969 266.535156 130.125 263.957031 133.304688 263.957031 L 144.785156 263.957031 C 147.960938 263.957031 150.546875 266.535156 150.546875 269.703125 L 150.546875 277.277344 C 150.546875 277.578125 150.300781 277.824219 149.996094 277.824219 " fill-opacity="1" fill-rule="nonzero"/><path fill="#314030" d="M 162.527344 315.585938 C 162.222656 315.585938 161.976562 315.335938 161.976562 315.035156 L 161.960938 294.984375 C 161.960938 294.683594 162.207031 294.4375 162.511719 294.4375 C 162.8125 294.4375 163.058594 294.679688 163.058594 294.984375 L 163.078125 315.035156 C 163.078125 315.335938 162.832031 315.585938 162.527344 315.585938 " fill-opacity="1" fill-rule="nonzero"/><path fill="#ffffff" d="M 168.730469 289.917969 L 108.488281 289.917969 C 106.457031 289.917969 104.808594 288.273438 104.808594 286.246094 L 104.808594 278.089844 C 104.808594 276.058594 106.457031 274.414062 108.488281 274.414062 L 168.730469 274.414062 C 170.761719 274.414062 172.410156 276.058594 172.410156 278.089844 L 172.410156 286.246094 C 172.410156 288.273438 170.761719 289.917969 168.730469 289.917969 " fill-opacity="1" fill-rule="nonzero"/><path fill="#000000" d="M 108.488281 274.964844 C 106.761719 274.964844 105.359375 276.367188 105.359375 278.089844 L 105.359375 286.246094 C 105.359375 287.96875 106.761719 289.371094 108.488281 289.371094 L 168.730469 289.371094 C 170.457031 289.371094 171.859375 287.96875 171.859375 286.246094 L 171.859375 278.089844 C 171.859375 276.367188 170.457031 274.964844 168.730469 274.964844 Z M 168.730469 290.46875 L 108.488281 290.46875 C 106.15625 290.46875 104.257812 288.574219 104.257812 286.246094 L 104.257812 278.089844 C 104.257812 275.757812 106.15625 273.863281 108.488281 273.863281 L 168.730469 273.863281 C 171.0625 273.863281 172.960938 275.757812 172.960938 278.089844 L 172.960938 286.246094 C 172.960938 288.574219 171.0625 290.46875 168.730469 290.46875 " fill-opacity="1" fill-rule="nonzero"/><path fill="#314030" d="M 166.917969 285.101562 C 166.613281 285.101562 166.367188 284.859375 166.367188 284.554688 L 166.367188 282.460938 C 166.367188 280.742188 164.964844 279.34375 163.242188 279.34375 L 109.933594 279.34375 C 109.628906 279.34375 109.382812 279.101562 109.382812 278.796875 C 109.382812 278.492188 109.628906 278.246094 109.933594 278.246094 L 163.242188 278.246094 C 165.574219 278.246094 167.46875 280.136719 167.46875 282.460938 L 167.46875 284.554688 C 167.46875 284.859375 167.222656 285.101562 166.917969 285.101562 " fill-opacity="1" fill-rule="nonzero"/><path fill="#ffffff" d="M 145.234375 296.023438 L 131.984375 296.023438 L 131.984375 281.992188 L 145.234375 281.992188 L 145.234375 296.023438 " fill-opacity="1" fill-rule="nonzero"/><path fill="#000000" d="M 132.535156 295.472656 L 144.683594 295.472656 L 144.683594 282.542969 L 132.535156 282.542969 Z M 145.234375 296.570312 L 131.984375 296.570312 C 131.679688 296.570312 131.433594 296.324219 131.433594 296.023438 L 131.433594 281.992188 C 131.433594 281.691406 131.679688 281.445312 131.984375 281.445312 L 145.234375 281.445312 C 145.535156 281.445312 145.785156 281.691406 145.785156 281.992188 L 145.785156 296.023438 C 145.785156 296.324219 145.535156 296.570312 145.234375 296.570312 " fill-opacity="1" fill-rule="nonzero"/><path fill="#a5c6a3" d="M 141.171875 291.894531 L 136.046875 291.894531 L 136.046875 286.851562 L 141.171875 286.851562 L 141.171875 291.894531 " fill-opacity="1" fill-rule="nonzero"/><path fill="#6d8d6b" d="M 142.46875 305.996094 C 143.726562 307.996094 143.03125 310.644531 140.9375 311.757812 C 139.078125 312.746094 136.738281 312.117188 135.617188 310.335938 C 134.363281 308.335938 135.054688 305.6875 137.152344 304.574219 C 139.011719 303.585938 141.351562 304.214844 142.46875 305.996094 Z M 135.257812 300.925781 L 134.484375 301.386719 C 134.316406 301.488281 134.238281 301.691406 134.300781 301.878906 L 134.644531 302.9375 C 134.695312 303.09375 134.652344 303.261719 134.535156 303.375 C 134.394531 303.507812 134.261719 303.644531 134.132812 303.785156 C 134.027344 303.90625 133.859375 303.953125 133.703125 303.90625 L 132.59375 303.578125 C 132.429688 303.53125 132.261719 303.601562 132.179688 303.746094 L 131.691406 304.625 C 131.609375 304.769531 131.640625 304.953125 131.761719 305.066406 L 132.65625 305.871094 C 132.761719 305.960938 132.804688 306.105469 132.761719 306.238281 C 132.699219 306.445312 132.644531 306.65625 132.601562 306.871094 C 132.574219 307.007812 132.46875 307.113281 132.335938 307.144531 L 131.167969 307.429688 C 131.007812 307.46875 130.890625 307.613281 130.894531 307.78125 L 130.910156 308.785156 C 130.910156 308.953125 131.03125 309.097656 131.191406 309.128906 L 132.367188 309.378906 C 132.5 309.40625 132.609375 309.507812 132.640625 309.640625 C 132.6875 309.855469 132.75 310.066406 132.820312 310.273438 C 132.863281 310.40625 132.824219 310.550781 132.726562 310.644531 L 131.855469 311.476562 C 131.734375 311.589844 131.707031 311.773438 131.792969 311.917969 L 132.308594 312.78125 C 132.394531 312.925781 132.566406 312.988281 132.726562 312.9375 L 133.867188 312.5625 C 134 312.519531 134.144531 312.554688 134.238281 312.65625 C 134.386719 312.816406 134.542969 312.972656 134.707031 313.113281 C 134.808594 313.207031 134.847656 313.347656 134.808594 313.480469 L 134.480469 314.597656 C 134.425781 314.78125 134.503906 314.972656 134.671875 315.066406 L 135.480469 315.523438 C 135.644531 315.613281 135.851562 315.578125 135.976562 315.4375 L 136.734375 314.589844 C 136.839844 314.472656 137 314.429688 137.148438 314.472656 C 137.339844 314.53125 137.53125 314.578125 137.726562 314.617188 C 137.878906 314.648438 137.996094 314.769531 138.035156 314.917969 L 138.296875 316.023438 C 138.34375 316.210938 138.507812 316.339844 138.699219 316.335938 L 139.625 316.324219 C 139.816406 316.320312 139.976562 316.183594 140.015625 316 L 140.242188 314.910156 C 140.277344 314.746094 140.40625 314.613281 140.570312 314.574219 C 140.746094 314.53125 140.921875 314.480469 141.097656 314.421875 C 141.261719 314.371094 141.4375 314.414062 141.554688 314.539062 L 142.296875 315.324219 C 142.441406 315.476562 142.667969 315.503906 142.84375 315.398438 L 143.589844 314.953125 C 143.769531 314.847656 143.847656 314.632812 143.78125 314.4375 L 143.445312 313.40625 C 143.394531 313.242188 143.4375 313.066406 143.5625 312.949219 C 143.695312 312.820312 143.824219 312.691406 143.945312 312.554688 C 144.058594 312.425781 144.234375 312.378906 144.398438 312.425781 L 145.433594 312.734375 C 145.628906 312.792969 145.839844 312.707031 145.941406 312.527344 L 146.367188 311.765625 C 146.46875 311.585938 146.429688 311.359375 146.273438 311.21875 L 145.46875 310.496094 C 145.34375 310.382812 145.292969 310.207031 145.339844 310.042969 C 145.394531 309.867188 145.4375 309.691406 145.476562 309.507812 C 145.511719 309.34375 145.636719 309.214844 145.804688 309.171875 L 146.859375 308.917969 C 147.054688 308.871094 147.195312 308.691406 147.191406 308.484375 L 147.179688 307.609375 C 147.175781 307.40625 147.03125 307.230469 146.832031 307.1875 L 145.773438 306.964844 C 145.609375 306.929688 145.476562 306.804688 145.4375 306.640625 C 145.394531 306.460938 145.34375 306.28125 145.285156 306.105469 C 145.234375 305.945312 145.277344 305.769531 145.398438 305.652344 L 146.183594 304.902344 C 146.335938 304.761719 146.367188 304.535156 146.261719 304.359375 L 145.8125 303.605469 C 145.707031 303.429688 145.496094 303.347656 145.300781 303.414062 L 144.269531 303.753906 C 144.109375 303.804688 143.933594 303.761719 143.816406 303.636719 C 143.691406 303.503906 143.558594 303.371094 143.421875 303.25 C 143.296875 303.136719 143.246094 302.960938 143.292969 302.800781 L 143.605469 301.746094 C 143.660156 301.558594 143.578125 301.355469 143.40625 301.257812 L 142.621094 300.816406 C 142.449219 300.722656 142.234375 300.757812 142.101562 300.90625 L 141.359375 301.730469 C 141.253906 301.851562 141.085938 301.902344 140.929688 301.855469 C 140.746094 301.800781 140.5625 301.753906 140.375 301.714844 C 140.214844 301.683594 140.089844 301.558594 140.050781 301.398438 L 139.792969 300.320312 C 139.746094 300.128906 139.574219 299.992188 139.375 299.996094 L 138.476562 300.007812 C 138.28125 300.011719 138.109375 300.152344 138.070312 300.34375 L 137.84375 301.429688 C 137.808594 301.589844 137.6875 301.714844 137.53125 301.753906 C 137.347656 301.796875 137.160156 301.851562 136.980469 301.914062 C 136.824219 301.964844 136.65625 301.917969 136.542969 301.800781 L 135.78125 300.996094 C 135.644531 300.851562 135.425781 300.820312 135.257812 300.925781 " fill-opacity="1" fill-rule="nonzero"/><path fill="#000000" d="M 194.492188 321.363281 C 194.234375 321.363281 194.003906 321.183594 193.953125 320.921875 C 193.894531 320.625 194.085938 320.335938 194.382812 320.273438 C 205.917969 317.960938 216.964844 313.984375 227.214844 308.453125 C 227.480469 308.308594 227.816406 308.410156 227.960938 308.675781 C 228.105469 308.941406 228.003906 309.277344 227.738281 309.417969 C 217.390625 315.003906 206.242188 319.015625 194.601562 321.351562 C 194.5625 321.359375 194.527344 321.363281 194.492188 321.363281 " fill-opacity="1" fill-rule="nonzero"/><path fill="#000000" d="M 240.652344 309.953125 C 240.472656 309.953125 240.292969 309.863281 240.1875 309.699219 C 240.023438 309.445312 240.097656 309.105469 240.355469 308.941406 C 241.789062 308.027344 243.21875 307.070312 244.613281 306.097656 C 244.863281 305.921875 245.207031 305.984375 245.382812 306.230469 C 245.554688 306.480469 245.496094 306.824219 245.246094 306.996094 C 243.839844 307.980469 242.394531 308.945312 240.949219 309.867188 C 240.855469 309.925781 240.753906 309.953125 240.652344 309.953125 " fill-opacity="1" fill-rule="nonzero"/><path fill="#000000" d="M 178.796875 331.0625 C 178.515625 331.0625 178.277344 330.851562 178.246094 330.570312 C 178.214844 330.269531 178.4375 330 178.738281 329.96875 C 204.046875 327.328125 227.75 316.992188 240.355469 308.941406 C 240.613281 308.777344 240.953125 308.851562 241.113281 309.109375 C 241.277344 309.363281 241.203125 309.703125 240.949219 309.867188 C 228.242188 317.980469 204.355469 328.398438 178.855469 331.058594 C 178.832031 331.0625 178.8125 331.0625 178.796875 331.0625 " fill-opacity="1" fill-rule="nonzero"/><path fill="#000000" d="M 68.699219 92.863281 L 68.703125 92.863281 Z M 69.707031 93.191406 C 69.441406 93.191406 69.175781 93.25 68.925781 93.363281 C 67.933594 93.808594 67.484375 94.992188 67.921875 96.003906 C 68.136719 96.496094 68.523438 96.875 69.015625 97.066406 C 69.496094 97.25 70.023438 97.238281 70.492188 97.027344 C 71.484375 96.582031 71.933594 95.398438 71.496094 94.386719 C 71.285156 93.890625 70.894531 93.515625 70.402344 93.324219 C 70.175781 93.238281 69.941406 93.191406 69.707031 93.191406 Z M 69.710938 98.292969 C 69.339844 98.292969 68.972656 98.226562 68.617188 98.085938 C 67.847656 97.789062 67.242188 97.203125 66.910156 96.4375 C 66.238281 94.878906 66.9375 93.046875 68.476562 92.359375 C 69.21875 92.027344 70.042969 92.007812 70.800781 92.300781 C 71.570312 92.597656 72.175781 93.183594 72.507812 93.949219 C 73.179688 95.511719 72.480469 97.339844 70.941406 98.027344 C 70.546875 98.207031 70.128906 98.292969 69.710938 98.292969 " fill-opacity="1" fill-rule="nonzero"/><path fill="#000000" d="M 70.566406 118.03125 C 70.429688 118.03125 70.292969 117.980469 70.1875 117.878906 C 69.964844 117.671875 69.960938 117.324219 70.167969 117.101562 L 71.898438 115.300781 C 72.105469 115.082031 72.457031 115.074219 72.675781 115.285156 C 72.894531 115.496094 72.902344 115.84375 72.691406 116.058594 L 70.964844 117.863281 C 70.855469 117.976562 70.710938 118.03125 70.566406 118.03125 " fill-opacity="1" fill-rule="nonzero"/><path fill="#000000" d="M 64.519531 124.339844 C 64.382812 124.339844 64.246094 124.289062 64.136719 124.1875 C 63.917969 123.976562 63.910156 123.628906 64.121094 123.410156 L 65.847656 121.609375 C 66.058594 121.386719 66.40625 121.382812 66.625 121.589844 C 66.847656 121.800781 66.855469 122.148438 66.644531 122.367188 L 64.914062 124.167969 C 64.808594 124.28125 64.664062 124.339844 64.519531 124.339844 " fill-opacity="1" fill-rule="nonzero"/><path fill="#000000" d="M 66.214844 118.128906 C 66.074219 118.128906 65.933594 118.074219 65.828125 117.96875 L 64.074219 116.246094 C 63.859375 116.03125 63.855469 115.683594 64.070312 115.46875 C 64.28125 115.253906 64.628906 115.25 64.847656 115.464844 L 66.601562 117.1875 C 66.816406 117.402344 66.820312 117.75 66.605469 117.964844 C 66.5 118.070312 66.355469 118.128906 66.214844 118.128906 " fill-opacity="1" fill-rule="nonzero"/><path fill="#000000" d="M 72.351562 124.164062 C 72.214844 124.164062 72.074219 124.113281 71.96875 124.007812 L 70.214844 122.28125 C 69.996094 122.070312 69.992188 121.722656 70.207031 121.503906 C 70.421875 121.289062 70.769531 121.289062 70.984375 121.5 L 72.738281 123.226562 C 72.957031 123.4375 72.957031 123.785156 72.746094 124 C 72.636719 124.109375 72.496094 124.164062 72.351562 124.164062 " fill-opacity="1" fill-rule="nonzero"/><path fill="#000000" d="M 326.613281 157.148438 C 326.308594 157.148438 326.0625 156.902344 326.0625 156.601562 L 326.0625 153.78125 C 326.0625 153.476562 326.308594 153.234375 326.613281 153.234375 C 326.914062 153.234375 327.160156 153.476562 327.160156 153.78125 L 327.160156 156.601562 C 327.160156 156.902344 326.914062 157.148438 326.613281 157.148438 " fill-opacity="1" fill-rule="nonzero"/><path fill="#000000" d="M 326.613281 163.714844 C 326.308594 163.714844 326.0625 163.46875 326.0625 163.164062 L 326.0625 160.34375 C 326.0625 160.042969 326.308594 159.796875 326.613281 159.796875 C 326.914062 159.796875 327.160156 160.042969 327.160156 160.34375 L 327.160156 163.164062 C 327.160156 163.46875 326.914062 163.714844 326.613281 163.714844 " fill-opacity="1" fill-rule="nonzero"/><path fill="#000000" d="M 324.734375 159.023438 L 321.90625 159.023438 C 321.605469 159.023438 321.359375 158.777344 321.359375 158.472656 C 321.359375 158.171875 321.605469 157.925781 321.90625 157.925781 L 324.734375 157.925781 C 325.039062 157.925781 325.285156 158.171875 325.285156 158.472656 C 325.285156 158.777344 325.039062 159.023438 324.734375 159.023438 " fill-opacity="1" fill-rule="nonzero"/><path fill="#000000" d="M 331.3125 159.023438 L 328.492188 159.023438 C 328.183594 159.023438 327.9375 158.777344 327.9375 158.476562 C 327.9375 158.167969 328.183594 157.925781 328.492188 157.925781 L 331.3125 157.925781 C 331.617188 157.925781 331.863281 158.167969 331.863281 158.476562 C 331.863281 158.777344 331.617188 159.023438 331.3125 159.023438 " fill-opacity="1" fill-rule="nonzero"/></svg>