<svg xmlns="http://www.w3.org/2000/svg" xmlns:xlink="http://www.w3.org/1999/xlink" width="500" zoomAndPan="magnify" viewBox="0 0 375 374.999991" height="500" preserveAspectRatio="xMidYMid meet" version="1.0"><defs><clipPath id="d762f7d09c"><path d="M 30.445312 30.445312 L 344.695312 30.445312 L 344.695312 344.695312 L 30.445312 344.695312 Z M 30.445312 30.445312 " clip-rule="nonzero"/></clipPath></defs><path fill="#314030" d="M 187.5625 97.257812 C 137.765625 97.257812 97.253906 137.769531 97.253906 187.566406 C 97.253906 237.363281 137.765625 277.875 187.5625 277.875 C 237.359375 277.875 277.871094 237.363281 277.871094 187.566406 C 277.871094 137.765625 237.359375 97.257812 187.5625 97.257812 Z M 187.5625 267.214844 C 143.644531 267.214844 107.914062 231.484375 107.914062 187.566406 C 107.914062 143.648438 143.644531 107.917969 187.5625 107.917969 C 231.480469 107.917969 267.210938 143.648438 267.210938 187.566406 C 267.210938 231.484375 231.480469 267.214844 187.5625 267.214844 Z M 187.5625 267.214844 " fill-opacity="1" fill-rule="nonzero"/><path fill="#314030" d="M 187.5625 113.078125 C 146.492188 113.078125 113.074219 146.492188 113.074219 187.566406 C 113.074219 228.640625 146.492188 262.054688 187.5625 262.054688 C 228.632812 262.054688 262.050781 228.640625 262.050781 187.566406 C 262.050781 146.492188 228.632812 113.078125 187.5625 113.078125 Z M 196.632812 226.90625 C 196.632812 229.558594 194.480469 231.710938 191.824219 231.710938 L 183.96875 231.710938 C 181.3125 231.710938 179.160156 229.558594 179.160156 226.90625 L 179.160156 219.050781 C 179.160156 216.394531 181.3125 214.242188 183.96875 214.242188 L 191.824219 214.242188 C 194.480469 214.242188 196.632812 216.394531 196.632812 219.050781 Z M 197.085938 198.023438 C 196.828125 201.3125 194.082031 203.855469 190.78125 203.855469 L 184.34375 203.855469 C 181.042969 203.855469 178.292969 201.3125 178.035156 198.023438 L 173.273438 137.152344 C 172.941406 132.886719 176.3125 129.242188 180.589844 129.242188 L 194.535156 129.242188 C 198.8125 129.242188 202.183594 132.886719 201.851562 137.152344 Z M 197.085938 198.023438 " fill-opacity="1" fill-rule="nonzero"/><g clip-path="url(#d762f7d09c)"><path fill="#314030" d="M 320.933594 187.503906 C 320.925781 178.78125 327.125 171.214844 335.679688 169.507812 L 344.679688 167.714844 C 343.742188 160.261719 342.257812 152.84375 340.257812 145.59375 L 331.230469 147.394531 C 322.707031 149.089844 314.09375 144.507812 310.75 136.484375 C 307.398438 128.429688 310.226562 119.066406 317.476562 114.214844 L 325.089844 109.117188 C 321.363281 102.597656 317.15625 96.304688 312.546875 90.371094 L 305.035156 95.394531 C 297.722656 100.285156 287.90625 99.320312 281.691406 93.09375 C 275.597656 87.003906 274.648438 77.375 279.425781 70.214844 L 284.617188 62.433594 C 278.683594 57.820312 272.390625 53.617188 265.859375 49.90625 L 260.761719 57.539062 C 255.921875 64.796875 246.550781 67.640625 238.496094 64.304688 C 230.464844 60.980469 225.863281 52.375 227.554688 43.847656 L 229.339844 34.84375 C 225.722656 33.859375 222.039062 32.992188 218.367188 32.265625 C 214.675781 31.535156 210.941406 30.925781 207.234375 30.460938 L 205.453125 39.441406 C 203.761719 47.980469 196.214844 54.1875 187.507812 54.195312 C 187.503906 54.195312 187.496094 54.195312 187.488281 54.195312 C 178.785156 54.195312 171.234375 48.003906 169.53125 39.460938 L 167.730469 30.445312 C 160.28125 31.386719 152.859375 32.867188 145.609375 34.863281 L 147.410156 43.882812 C 149.113281 52.414062 144.519531 61.027344 136.492188 64.371094 C 128.441406 67.722656 119.082031 64.894531 114.230469 57.644531 L 109.136719 50.027344 C 102.605469 53.757812 96.3125 57.964844 90.386719 62.570312 L 95.476562 70.183594 C 100.328125 77.433594 99.367188 87.167969 93.195312 93.332031 C 87.042969 99.472656 77.328125 100.421875 70.097656 95.601562 L 62.441406 90.492188 C 57.828125 96.433594 53.625 102.722656 49.914062 109.253906 L 57.550781 114.347656 C 64.804688 119.191406 67.648438 128.550781 64.3125 136.609375 C 60.980469 144.652344 52.367188 149.265625 43.832031 147.5625 L 34.84375 145.785156 C 33.859375 149.394531 32.996094 153.082031 32.265625 156.769531 C 31.535156 160.449219 30.925781 164.1875 30.457031 167.90625 L 39.445312 169.691406 C 47.980469 171.378906 54.179688 178.925781 54.191406 187.632812 C 54.199219 196.351562 48 203.917969 39.445312 205.625 L 30.445312 207.417969 C 31.382812 214.863281 32.867188 222.285156 34.867188 229.539062 L 43.890625 227.738281 C 52.417969 226.035156 61.03125 230.625 64.371094 238.652344 C 67.726562 246.703125 64.898438 256.066406 57.648438 260.914062 L 50.035156 266.011719 C 53.761719 272.535156 57.96875 278.828125 62.578125 284.761719 L 70.199219 279.664062 C 77.449219 274.8125 87.179688 275.773438 93.339844 281.945312 C 99.484375 288.097656 100.4375 297.8125 95.609375 305.046875 L 90.507812 312.699219 C 96.445312 317.308594 102.738281 321.511719 109.265625 325.222656 L 114.371094 317.574219 C 119.207031 310.324219 128.554688 307.488281 136.609375 310.820312 C 144.652344 314.148438 149.257812 322.765625 147.566406 331.300781 L 145.785156 340.28125 C 149.402344 341.269531 153.085938 342.132812 156.757812 342.863281 C 160.449219 343.59375 164.183594 344.199219 167.890625 344.667969 L 169.675781 335.667969 C 171.367188 327.136719 178.90625 320.941406 187.601562 320.933594 C 187.605469 320.933594 187.613281 320.933594 187.617188 320.933594 C 196.332031 320.933594 203.890625 327.132812 205.597656 335.683594 L 207.394531 344.683594 C 214.84375 343.742188 222.265625 342.261719 229.515625 340.265625 L 227.714844 331.25 C 226.011719 322.71875 230.609375 314.101562 238.636719 310.757812 C 246.679688 307.402344 256.042969 310.234375 260.890625 317.476562 L 265.992188 325.101562 C 272.519531 321.371094 278.8125 317.164062 284.742188 312.5625 L 279.648438 304.945312 C 274.800781 297.695312 275.757812 287.960938 281.933594 281.796875 C 288.082031 275.65625 297.796875 274.703125 305.03125 279.527344 L 312.683594 284.636719 C 317.296875 278.699219 321.5 272.40625 325.214844 265.878906 L 317.570312 260.777344 C 310.320312 255.9375 307.476562 246.578125 310.8125 238.527344 C 314.148438 230.480469 322.757812 225.859375 331.304688 227.570312 L 340.285156 229.347656 C 341.265625 225.734375 342.132812 222.046875 342.863281 218.359375 C 343.59375 214.679688 344.199219 210.941406 344.667969 207.222656 L 335.683594 205.441406 C 327.144531 203.753906 320.941406 196.207031 320.933594 187.503906 Z M 187.5625 283.035156 C 134.921875 283.035156 92.09375 240.207031 92.09375 187.566406 C 92.09375 134.925781 134.921875 92.09375 187.5625 92.09375 C 240.203125 92.09375 283.03125 134.925781 283.03125 187.566406 C 283.03125 240.207031 240.203125 283.035156 187.5625 283.035156 Z M 187.5625 283.035156 " fill-opacity="1" fill-rule="nonzero"/></g></svg>