<svg xmlns="http://www.w3.org/2000/svg" xmlns:xlink="http://www.w3.org/1999/xlink" width="500" zoomAndPan="magnify" viewBox="0 0 375 374.999991" height="500" preserveAspectRatio="xMidYMid meet" version="1.0"><defs><clipPath id="3b727990e3"><path d="M 43 38.625 L 332 38.625 L 332 336.375 L 43 336.375 Z M 43 38.625 " clip-rule="nonzero"/></clipPath></defs><g clip-path="url(#3b727990e3)"><path fill="#314030" d="M 236.9375 38.796875 L 122.246094 38.796875 L 122.246094 276.878906 L 123.078125 276.878906 L 123.078125 278.691406 L 211.339844 278.691406 C 211.730469 278.691406 212.113281 278.730469 212.496094 278.808594 C 212.878906 278.882812 213.25 278.996094 213.609375 279.144531 C 213.96875 279.296875 214.3125 279.480469 214.636719 279.695312 C 214.960938 279.914062 215.261719 280.160156 215.535156 280.433594 C 215.8125 280.710938 216.058594 281.011719 216.273438 281.335938 C 216.492188 281.660156 216.675781 282 216.824219 282.359375 C 216.972656 282.722656 217.085938 283.09375 217.164062 283.476562 C 217.238281 283.859375 217.277344 284.242188 217.277344 284.632812 L 217.277344 313.492188 C 217.277344 314.242188 217.316406 314.992188 217.390625 315.738281 C 217.460938 316.488281 217.574219 317.230469 217.71875 317.964844 C 217.867188 318.703125 218.046875 319.429688 218.265625 320.148438 C 218.484375 320.867188 218.738281 321.574219 219.023438 322.269531 C 219.3125 322.960938 219.632812 323.640625 219.984375 324.304688 C 220.339844 324.964844 220.726562 325.609375 221.140625 326.234375 C 221.558594 326.859375 222.007812 327.460938 222.484375 328.042969 C 222.957031 328.621094 223.460938 329.179688 223.992188 329.710938 C 224.523438 330.242188 225.078125 330.746094 225.660156 331.222656 C 226.242188 331.699219 226.84375 332.144531 227.46875 332.5625 C 228.089844 332.980469 228.734375 333.363281 229.398438 333.71875 C 230.058594 334.074219 230.738281 334.394531 231.429688 334.679688 C 232.125 334.96875 232.832031 335.222656 233.550781 335.441406 C 234.269531 335.65625 234.996094 335.839844 235.730469 335.988281 C 236.46875 336.132812 237.210938 336.242188 237.957031 336.316406 C 238.703125 336.390625 239.453125 336.425781 240.203125 336.425781 L 308.261719 336.425781 C 309.011719 336.425781 309.757812 336.390625 310.507812 336.316406 C 311.253906 336.242188 311.992188 336.128906 312.730469 335.984375 C 313.464844 335.835938 314.191406 335.652344 314.910156 335.433594 C 315.628906 335.214844 316.335938 334.964844 317.027344 334.675781 C 317.71875 334.386719 318.398438 334.066406 319.058594 333.710938 C 319.722656 333.359375 320.363281 332.972656 320.988281 332.554688 C 321.609375 332.136719 322.210938 331.691406 322.792969 331.214844 C 323.371094 330.738281 323.925781 330.234375 324.457031 329.703125 C 324.988281 329.171875 325.492188 328.617188 325.96875 328.035156 C 326.441406 327.453125 326.890625 326.851562 327.304688 326.226562 C 327.722656 325.601562 328.109375 324.960938 328.460938 324.296875 C 328.816406 323.636719 329.136719 322.957031 329.421875 322.265625 C 329.710938 321.570312 329.960938 320.863281 330.179688 320.144531 C 330.398438 319.425781 330.578125 318.699219 330.726562 317.964844 C 330.871094 317.226562 330.980469 316.484375 331.054688 315.738281 C 331.128906 314.992188 331.164062 314.242188 331.164062 313.492188 L 331.164062 38.625 L 238.390625 38.625 C 237.914062 38.738281 237.429688 38.796875 236.9375 38.796875 Z M 224.914062 258.566406 L 144.683594 258.566406 C 144.300781 258.566406 143.921875 258.527344 143.542969 258.453125 C 143.167969 258.378906 142.804688 258.269531 142.449219 258.121094 C 142.097656 257.976562 141.761719 257.796875 141.441406 257.582031 C 141.121094 257.371094 140.828125 257.128906 140.558594 256.855469 C 140.285156 256.585938 140.042969 256.289062 139.832031 255.972656 C 139.617188 255.652344 139.4375 255.316406 139.292969 254.960938 C 139.144531 254.609375 139.035156 254.242188 138.960938 253.867188 C 138.886719 253.492188 138.847656 253.109375 138.847656 252.726562 C 138.847656 252.34375 138.886719 251.964844 138.960938 251.589844 C 139.035156 251.214844 139.144531 250.847656 139.292969 250.492188 C 139.4375 250.140625 139.617188 249.804688 139.832031 249.484375 C 140.042969 249.164062 140.285156 248.871094 140.558594 248.601562 C 140.828125 248.328125 141.121094 248.085938 141.441406 247.875 C 141.757812 247.660156 142.097656 247.480469 142.449219 247.335938 C 142.804688 247.1875 143.167969 247.078125 143.542969 247 C 143.921875 246.925781 144.300781 246.890625 144.683594 246.890625 L 224.914062 246.890625 C 225.289062 246.902344 225.65625 246.953125 226.023438 247.039062 C 226.386719 247.125 226.738281 247.242188 227.078125 247.394531 C 227.421875 247.546875 227.746094 247.730469 228.050781 247.949219 C 228.355469 248.164062 228.640625 248.40625 228.898438 248.675781 C 229.15625 248.945312 229.390625 249.234375 229.59375 249.550781 C 229.796875 249.863281 229.96875 250.195312 230.105469 250.539062 C 230.246094 250.886719 230.351562 251.246094 230.421875 251.613281 C 230.496094 251.980469 230.53125 252.351562 230.53125 252.722656 C 230.53125 253.097656 230.496094 253.46875 230.421875 253.835938 C 230.351562 254.203125 230.246094 254.558594 230.105469 254.90625 C 229.96875 255.253906 229.796875 255.585938 229.59375 255.898438 C 229.390625 256.210938 229.15625 256.503906 228.898438 256.773438 C 228.640625 257.042969 228.355469 257.285156 228.050781 257.5 C 227.746094 257.714844 227.421875 257.898438 227.078125 258.050781 C 226.738281 258.203125 226.386719 258.324219 226.023438 258.410156 C 225.65625 258.496094 225.289062 258.542969 224.914062 258.558594 Z M 311.011719 226.007812 L 144.695312 226.007812 C 144.3125 226.007812 143.933594 225.972656 143.558594 225.898438 C 143.179688 225.824219 142.816406 225.710938 142.460938 225.566406 C 142.109375 225.417969 141.773438 225.238281 141.453125 225.027344 C 141.136719 224.8125 140.839844 224.570312 140.570312 224.300781 C 140.296875 224.027344 140.054688 223.734375 139.84375 223.414062 C 139.628906 223.097656 139.449219 222.761719 139.304688 222.40625 C 139.15625 222.050781 139.046875 221.6875 138.972656 221.308594 C 138.898438 220.933594 138.859375 220.554688 138.859375 220.171875 C 138.859375 219.789062 138.898438 219.410156 138.972656 219.03125 C 139.046875 218.65625 139.15625 218.292969 139.304688 217.9375 C 139.449219 217.582031 139.628906 217.246094 139.84375 216.929688 C 140.054688 216.609375 140.296875 216.3125 140.570312 216.042969 C 140.839844 215.773438 141.136719 215.53125 141.453125 215.316406 C 141.773438 215.105469 142.109375 214.925781 142.460938 214.777344 C 142.816406 214.632812 143.179688 214.519531 143.558594 214.445312 C 143.933594 214.371094 144.3125 214.332031 144.695312 214.332031 L 311.011719 214.332031 C 311.386719 214.347656 311.753906 214.398438 312.117188 214.480469 C 312.480469 214.566406 312.835938 214.6875 313.175781 214.839844 C 313.515625 214.992188 313.839844 215.175781 314.148438 215.390625 C 314.453125 215.605469 314.734375 215.847656 314.996094 216.117188 C 315.253906 216.386719 315.484375 216.679688 315.6875 216.992188 C 315.890625 217.308594 316.0625 217.636719 316.203125 217.984375 C 316.34375 218.332031 316.449219 218.6875 316.519531 219.054688 C 316.589844 219.421875 316.625 219.792969 316.625 220.167969 C 316.625 220.542969 316.589844 220.910156 316.519531 221.277344 C 316.449219 221.644531 316.34375 222.003906 316.203125 222.351562 C 316.0625 222.699219 315.890625 223.027344 315.6875 223.339844 C 315.484375 223.65625 315.253906 223.949219 314.996094 224.214844 C 314.734375 224.484375 314.453125 224.726562 314.148438 224.945312 C 313.839844 225.160156 313.515625 225.34375 313.175781 225.496094 C 312.835938 225.648438 312.480469 225.765625 312.117188 225.851562 C 311.753906 225.9375 311.386719 225.988281 311.011719 226 Z M 311.011719 194.445312 L 144.695312 194.445312 C 144.3125 194.445312 143.933594 194.40625 143.558594 194.332031 C 143.183594 194.257812 142.820312 194.144531 142.464844 194 C 142.113281 193.851562 141.777344 193.671875 141.457031 193.457031 C 141.140625 193.246094 140.84375 193.003906 140.574219 192.734375 C 140.304688 192.460938 140.0625 192.167969 139.851562 191.847656 C 139.636719 191.53125 139.457031 191.195312 139.3125 190.839844 C 139.164062 190.484375 139.054688 190.121094 138.980469 189.746094 C 138.90625 189.371094 138.867188 188.992188 138.867188 188.609375 C 138.867188 188.222656 138.90625 187.84375 138.980469 187.46875 C 139.054688 187.09375 139.164062 186.730469 139.3125 186.375 C 139.457031 186.019531 139.636719 185.683594 139.851562 185.367188 C 140.0625 185.046875 140.304688 184.753906 140.574219 184.480469 C 140.84375 184.210938 141.140625 183.96875 141.457031 183.757812 C 141.777344 183.542969 142.113281 183.363281 142.464844 183.214844 C 142.820312 183.070312 143.183594 182.957031 143.558594 182.882812 C 143.933594 182.808594 144.3125 182.769531 144.695312 182.769531 L 311.011719 182.769531 C 311.386719 182.785156 311.753906 182.832031 312.117188 182.917969 C 312.480469 183.003906 312.835938 183.121094 313.175781 183.273438 C 313.515625 183.429688 313.839844 183.613281 314.148438 183.828125 C 314.453125 184.042969 314.734375 184.285156 314.996094 184.554688 C 315.253906 184.824219 315.484375 185.113281 315.6875 185.429688 C 315.890625 185.742188 316.0625 186.074219 316.203125 186.421875 C 316.34375 186.765625 316.449219 187.125 316.519531 187.492188 C 316.589844 187.859375 316.625 188.230469 316.625 188.601562 C 316.625 188.976562 316.589844 189.347656 316.519531 189.714844 C 316.449219 190.082031 316.34375 190.4375 316.203125 190.785156 C 316.0625 191.132812 315.890625 191.464844 315.6875 191.777344 C 315.484375 192.089844 315.253906 192.382812 314.996094 192.652344 C 314.734375 192.921875 314.453125 193.164062 314.148438 193.378906 C 313.839844 193.59375 313.515625 193.777344 313.175781 193.929688 C 312.835938 194.085938 312.480469 194.203125 312.117188 194.289062 C 311.753906 194.375 311.386719 194.421875 311.011719 194.4375 Z M 311.011719 164.574219 L 144.695312 164.574219 C 144.3125 164.574219 143.933594 164.535156 143.558594 164.460938 C 143.183594 164.386719 142.820312 164.273438 142.464844 164.128906 C 142.113281 163.980469 141.777344 163.800781 141.457031 163.589844 C 141.140625 163.375 140.84375 163.132812 140.574219 162.863281 C 140.304688 162.589844 140.0625 162.296875 139.851562 161.976562 C 139.636719 161.660156 139.457031 161.324219 139.3125 160.96875 C 139.164062 160.613281 139.054688 160.25 138.980469 159.875 C 138.90625 159.5 138.867188 159.121094 138.867188 158.738281 C 138.867188 158.355469 138.90625 157.972656 138.980469 157.597656 C 139.054688 157.222656 139.164062 156.859375 139.3125 156.503906 C 139.457031 156.148438 139.636719 155.8125 139.851562 155.496094 C 140.0625 155.175781 140.304688 154.882812 140.574219 154.609375 C 140.84375 154.339844 141.140625 154.097656 141.457031 153.886719 C 141.777344 153.671875 142.113281 153.492188 142.464844 153.34375 C 142.820312 153.199219 143.183594 153.085938 143.558594 153.011719 C 143.933594 152.9375 144.3125 152.898438 144.695312 152.898438 L 311.011719 152.898438 C 311.382812 152.914062 311.75 152.96875 312.109375 153.054688 C 312.472656 153.140625 312.820312 153.261719 313.160156 153.417969 C 313.5 153.570312 313.820312 153.757812 314.121094 153.972656 C 314.425781 154.1875 314.707031 154.429688 314.960938 154.699219 C 315.21875 154.96875 315.449219 155.257812 315.648438 155.570312 C 315.851562 155.882812 316.019531 156.214844 316.160156 156.558594 C 316.296875 156.902344 316.402344 157.257812 316.472656 157.625 C 316.542969 157.988281 316.578125 158.359375 316.578125 158.730469 C 316.578125 159.101562 316.542969 159.472656 316.472656 159.835938 C 316.402344 160.203125 316.296875 160.554688 316.160156 160.902344 C 316.019531 161.246094 315.851562 161.578125 315.648438 161.890625 C 315.449219 162.203125 315.21875 162.492188 314.960938 162.761719 C 314.707031 163.03125 314.425781 163.273438 314.121094 163.488281 C 313.820312 163.703125 313.5 163.890625 313.160156 164.042969 C 312.820312 164.199219 312.472656 164.316406 312.109375 164.40625 C 311.75 164.492188 311.382812 164.546875 311.011719 164.5625 Z M 241.4375 72.644531 C 242.695312 73.886719 243.722656 75.296875 244.523438 76.871094 C 245.328125 78.445312 245.863281 80.105469 246.132812 81.851562 C 246.261719 82.660156 246.324219 83.476562 246.316406 84.300781 C 246.316406 84.679688 246.277344 85.058594 246.203125 85.433594 C 246.128906 85.808594 246.019531 86.171875 245.871094 86.523438 C 245.726562 86.878906 245.546875 87.214844 245.335938 87.53125 C 245.121094 87.847656 244.882812 88.140625 244.613281 88.414062 C 244.34375 88.683594 244.046875 88.921875 243.730469 89.136719 C 243.414062 89.347656 243.078125 89.527344 242.726562 89.671875 C 242.371094 89.820312 242.007812 89.929688 241.632812 90.003906 C 241.261719 90.078125 240.882812 90.117188 240.5 90.117188 C 240.117188 90.117188 239.742188 90.078125 239.367188 90.003906 C 238.992188 89.929688 238.628906 89.820312 238.273438 89.671875 C 237.921875 89.527344 237.585938 89.347656 237.269531 89.136719 C 236.953125 88.921875 236.660156 88.683594 236.386719 88.414062 C 236.117188 88.140625 235.878906 87.847656 235.664062 87.53125 C 235.453125 87.214844 235.273438 86.878906 235.128906 86.523438 C 234.980469 86.171875 234.871094 85.808594 234.796875 85.433594 C 234.722656 85.058594 234.683594 84.679688 234.683594 84.300781 C 234.691406 83.742188 234.59375 83.203125 234.390625 82.683594 C 234.148438 81.972656 233.761719 81.351562 233.230469 80.820312 C 232.28125 79.875 231.132812 79.402344 229.792969 79.398438 L 223.578125 79.398438 C 222.238281 79.398438 221.09375 79.871094 220.140625 80.816406 C 219.859375 81.074219 219.625 81.371094 219.433594 81.707031 C 218.941406 82.5 218.691406 83.363281 218.683594 84.300781 C 218.6875 85.59375 219.125 86.71875 219.992188 87.675781 C 220.464844 88.160156 221.011719 88.539062 221.632812 88.808594 C 222.253906 89.078125 222.902344 89.222656 223.578125 89.242188 L 229.792969 89.242188 C 231.515625 89.238281 233.199219 89.5 234.84375 90.027344 C 236.484375 90.554688 238.007812 91.320312 239.40625 92.328125 C 240.15625 92.847656 240.851562 93.429688 241.492188 94.078125 L 241.820312 94.453125 C 243.871094 96.601562 245.222656 99.121094 245.875 102.019531 C 246.1875 103.238281 246.335938 104.476562 246.324219 105.734375 C 246.316406 108.988281 245.425781 111.980469 243.660156 114.710938 C 243.027344 115.691406 242.304688 116.597656 241.492188 117.429688 C 240.265625 118.648438 238.882812 119.648438 237.34375 120.433594 C 235.804688 121.21875 234.183594 121.75 232.480469 122.027344 L 232.480469 125.441406 C 232.480469 125.820312 232.445312 126.195312 232.371094 126.570312 C 232.296875 126.941406 232.1875 127.300781 232.039062 127.652344 C 231.894531 128.003906 231.71875 128.335938 231.507812 128.652344 C 231.296875 128.964844 231.058594 129.257812 230.789062 129.527344 C 230.519531 129.792969 230.230469 130.035156 229.914062 130.246094 C 229.597656 130.453125 229.265625 130.632812 228.917969 130.777344 C 228.566406 130.921875 228.207031 131.03125 227.832031 131.105469 C 227.460938 131.179688 227.085938 131.21875 226.707031 131.21875 C 226.328125 131.21875 225.953125 131.179688 225.582031 131.105469 C 225.210938 131.03125 224.847656 130.921875 224.496094 130.777344 C 224.148438 130.632812 223.816406 130.453125 223.5 130.246094 C 223.183594 130.035156 222.894531 129.792969 222.625 129.527344 C 222.355469 129.257812 222.117188 128.964844 221.90625 128.652344 C 221.695312 128.335938 221.519531 128.003906 221.375 127.652344 C 221.230469 127.300781 221.117188 126.941406 221.046875 126.570312 C 220.972656 126.195312 220.933594 125.820312 220.933594 125.441406 L 220.933594 122.027344 C 219.136719 121.722656 217.4375 121.136719 215.835938 120.269531 C 214.398438 119.519531 213.109375 118.570312 211.96875 117.414062 C 210.410156 115.871094 209.207031 114.085938 208.363281 112.0625 C 207.519531 110.039062 207.09375 107.929688 207.089844 105.738281 C 207.121094 105.375 207.183594 105.019531 207.28125 104.671875 C 207.378906 104.324219 207.507812 103.984375 207.667969 103.660156 C 207.828125 103.332031 208.015625 103.027344 208.230469 102.734375 C 208.449219 102.445312 208.691406 102.175781 208.957031 101.933594 C 209.222656 101.6875 209.511719 101.46875 209.820312 101.277344 C 210.125 101.085938 210.449219 100.921875 210.789062 100.792969 C 211.125 100.660156 211.472656 100.558594 211.828125 100.492188 C 212.183594 100.425781 212.542969 100.394531 212.90625 100.394531 C 213.269531 100.394531 213.628906 100.425781 213.984375 100.492188 C 214.339844 100.558594 214.6875 100.660156 215.023438 100.792969 C 215.363281 100.921875 215.683594 101.085938 215.992188 101.277344 C 216.300781 101.46875 216.585938 101.6875 216.855469 101.933594 C 217.121094 102.175781 217.363281 102.445312 217.582031 102.734375 C 217.796875 103.027344 217.984375 103.332031 218.144531 103.660156 C 218.304688 103.984375 218.433594 104.324219 218.53125 104.671875 C 218.625 105.019531 218.691406 105.375 218.722656 105.738281 C 218.714844 106.390625 218.835938 107.015625 219.082031 107.617188 C 219.328125 108.222656 219.679688 108.753906 220.136719 109.214844 C 221.101562 110.175781 222.265625 110.664062 223.621094 110.679688 L 229.792969 110.679688 C 230.113281 110.679688 230.433594 110.648438 230.75 110.585938 C 231.066406 110.523438 231.375 110.429688 231.675781 110.304688 C 231.972656 110.179688 232.257812 110.03125 232.523438 109.851562 C 232.792969 109.671875 233.042969 109.464844 233.269531 109.238281 C 233.5 109.011719 233.703125 108.761719 233.882812 108.492188 C 234.0625 108.222656 234.210938 107.941406 234.335938 107.640625 C 234.460938 107.34375 234.554688 107.035156 234.617188 106.71875 C 234.679688 106.402344 234.710938 106.082031 234.710938 105.757812 C 234.710938 105.4375 234.679688 105.117188 234.617188 104.796875 C 234.554688 104.480469 234.460938 104.175781 234.335938 103.875 C 234.210938 103.578125 234.0625 103.292969 233.882812 103.023438 C 233.703125 102.757812 233.5 102.507812 233.269531 102.277344 C 233.042969 102.050781 232.792969 101.847656 232.523438 101.667969 C 232.257812 101.488281 231.972656 101.335938 231.675781 101.210938 C 231.375 101.089844 231.066406 100.996094 230.75 100.933594 C 230.433594 100.871094 230.113281 100.839844 229.792969 100.839844 L 223.621094 100.839844 C 220.851562 100.824219 218.246094 100.167969 215.804688 98.859375 C 214.371094 98.074219 213.078125 97.101562 211.925781 95.941406 L 211.644531 95.660156 C 210.90625 94.886719 210.253906 94.054688 209.679688 93.15625 C 209.105469 92.257812 208.625 91.3125 208.234375 90.320312 C 207.84375 89.332031 207.554688 88.3125 207.363281 87.261719 C 207.167969 86.214844 207.078125 85.160156 207.09375 84.09375 C 207.105469 83.027344 207.21875 81.972656 207.4375 80.929688 C 207.65625 79.886719 207.96875 78.875 208.382812 77.894531 C 208.796875 76.910156 209.300781 75.976562 209.894531 75.09375 C 210.492188 74.210938 211.164062 73.390625 211.917969 72.640625 C 213.140625 71.410156 214.519531 70.402344 216.058594 69.609375 C 217.601562 68.816406 219.226562 68.285156 220.933594 68.007812 L 220.933594 64.617188 C 220.933594 64.238281 220.972656 63.859375 221.046875 63.488281 C 221.117188 63.117188 221.230469 62.757812 221.375 62.40625 C 221.519531 62.054688 221.695312 61.722656 221.90625 61.40625 C 222.117188 61.089844 222.355469 60.800781 222.625 60.53125 C 222.894531 60.265625 223.183594 60.023438 223.5 59.8125 C 223.816406 59.601562 224.148438 59.425781 224.496094 59.28125 C 224.847656 59.132812 225.210938 59.023438 225.582031 58.949219 C 225.953125 58.878906 226.328125 58.839844 226.707031 58.839844 C 227.085938 58.839844 227.460938 58.878906 227.832031 58.949219 C 228.207031 59.023438 228.566406 59.132812 228.917969 59.28125 C 229.265625 59.425781 229.597656 59.601562 229.914062 59.8125 C 230.230469 60.023438 230.519531 60.265625 230.789062 60.53125 C 231.058594 60.800781 231.296875 61.089844 231.507812 61.40625 C 231.71875 61.722656 231.894531 62.054688 232.039062 62.40625 C 232.1875 62.757812 232.296875 63.117188 232.371094 63.488281 C 232.445312 63.859375 232.480469 64.238281 232.480469 64.617188 L 232.480469 68.023438 C 234.074219 68.292969 235.59375 68.785156 237.042969 69.5 C 238.488281 70.21875 239.804688 71.128906 240.984375 72.230469 C 241.148438 72.355469 241.300781 72.492188 241.4375 72.644531 Z M 205.441406 313.492188 C 205.4375 315.585938 205.621094 317.664062 205.996094 319.722656 C 206.371094 321.785156 206.925781 323.792969 207.664062 325.753906 C 208.40625 327.710938 209.316406 329.589844 210.394531 331.382812 C 211.476562 333.175781 212.707031 334.859375 214.09375 336.425781 L 66.550781 336.425781 C 65.800781 336.425781 65.054688 336.386719 64.308594 336.3125 C 63.558594 336.238281 62.820312 336.125 62.082031 335.976562 C 61.347656 335.828125 60.621094 335.648438 59.902344 335.425781 C 59.1875 335.207031 58.480469 334.957031 57.789062 334.667969 C 57.09375 334.378906 56.417969 334.058594 55.757812 333.703125 C 55.09375 333.347656 54.453125 332.960938 53.828125 332.546875 C 53.203125 332.128906 52.601562 331.679688 52.023438 331.203125 C 51.441406 330.726562 50.886719 330.226562 50.355469 329.695312 C 49.828125 329.164062 49.324219 328.609375 48.847656 328.027344 C 48.371094 327.445312 47.925781 326.84375 47.507812 326.222656 C 47.089844 325.597656 46.703125 324.953125 46.351562 324.292969 C 45.996094 323.632812 45.675781 322.953125 45.386719 322.261719 C 45.097656 321.566406 44.84375 320.863281 44.625 320.144531 C 44.40625 319.425781 44.222656 318.699219 44.078125 317.960938 C 43.929688 317.226562 43.816406 316.484375 43.742188 315.738281 C 43.667969 314.992188 43.628906 314.242188 43.625 313.492188 L 43.625 290.554688 L 205.441406 290.554688 Z M 205.441406 313.492188 " fill-opacity="1" fill-rule="nonzero"/></g></svg>