<svg xmlns="http://www.w3.org/2000/svg" xmlns:xlink="http://www.w3.org/1999/xlink" width="500" zoomAndPan="magnify" viewBox="0 0 375 374.999991" height="500" preserveAspectRatio="xMidYMid meet" version="1.0"><defs><clipPath id="9e0e2bac8d"><path d="M 30 29.375 L 345 29.375 L 345 345.875 L 30 345.875 Z M 30 29.375 " clip-rule="nonzero"/></clipPath></defs><g clip-path="url(#9e0e2bac8d)"><path fill="#314030" d="M 188.574219 345.792969 C 179.921875 345.792969 173.125 338.996094 166.945312 332.816406 C 162.003906 328.492188 157.679688 324.167969 152.734375 322.3125 C 148.410156 321.695312 142.230469 322.933594 136.050781 324.785156 C 126.78125 327.257812 116.894531 329.109375 108.863281 324.785156 C 100.832031 320.460938 98.359375 310.574219 95.886719 301.308594 C 94.035156 295.128906 92.179688 288.953125 89.089844 285.863281 C 86 282.773438 79.203125 280.917969 73.644531 279.066406 C 64.375 276.59375 55.105469 274.125 51.398438 266.710938 C 47.074219 259.296875 49.542969 250.027344 52.015625 241.378906 C 53.25 235.199219 55.105469 229.019531 53.871094 224.078125 C 52.632812 220.371094 48.308594 215.429688 43.984375 211.105469 C 37.1875 204.308594 29.773438 196.894531 31.007812 187.625 C 29.773438 178.359375 37.1875 170.945312 43.984375 164.148438 C 48.308594 159.824219 52.632812 155.5 53.871094 151.175781 C 55.105469 146.847656 53.25 140.054688 52.015625 133.875 C 49.542969 125.226562 47.074219 115.957031 51.398438 109.160156 C 55.722656 101.746094 64.992188 98.65625 73.644531 96.1875 C 79.820312 94.332031 86 92.480469 89.089844 89.390625 C 92.179688 86.300781 94.035156 80.121094 95.886719 73.945312 C 98.359375 64.675781 101.449219 55.410156 109.480469 50.464844 C 117.515625 46.140625 126.78125 47.996094 136.050781 50.464844 C 142.230469 52.320312 148.410156 53.554688 152.734375 52.9375 C 157.679688 51.703125 162.003906 46.757812 166.945312 42.433594 C 173.742188 36.257812 180.539062 29.460938 188.574219 29.460938 C 197.222656 29.460938 204.019531 36.257812 210.199219 42.433594 C 215.144531 46.757812 219.46875 51.703125 223.792969 52.9375 C 228.121094 54.171875 234.296875 52.320312 240.476562 51.085938 C 249.128906 48.613281 258.398438 46.140625 265.8125 50.464844 C 273.226562 54.171875 275.699219 63.441406 278.789062 72.089844 C 280.023438 78.269531 281.878906 85.066406 285.585938 88.15625 C 288.675781 91.242188 294.851562 93.097656 301.03125 94.949219 C 310.300781 97.421875 320.1875 100.511719 324.511719 107.925781 C 328.839844 115.957031 326.367188 125.84375 323.894531 135.109375 C 322.660156 141.289062 320.804688 147.46875 322.042969 151.792969 C 323.277344 156.117188 327.601562 161.058594 331.925781 166 C 338.722656 172.179688 345.519531 178.976562 344.902344 187.625 C 345.519531 196.277344 338.722656 203.070312 331.925781 209.867188 C 327.601562 214.191406 323.277344 219.136719 322.042969 223.460938 C 320.804688 227.785156 322.660156 234.582031 323.894531 240.761719 C 326.367188 250.027344 328.839844 259.296875 324.511719 267.328125 C 319.570312 275.359375 310.300781 277.832031 301.03125 280.917969 C 294.851562 282.773438 288.675781 284.007812 285.585938 287.097656 C 281.878906 290.804688 280.023438 296.984375 278.789062 303.160156 C 275.699219 311.8125 273.226562 321.078125 265.8125 325.402344 C 258.398438 329.726562 249.746094 327.257812 240.476562 324.785156 C 234.296875 323.550781 228.121094 321.695312 223.792969 322.933594 C 219.46875 324.167969 214.527344 328.492188 210.199219 332.816406 C 203.402344 338.996094 197.222656 345.792969 188.574219 345.792969 Z M 171.273438 238.90625 C 170.652344 238.90625 170.035156 238.90625 169.417969 238.289062 C 168.800781 238.289062 168.800781 238.289062 168.183594 237.671875 L 151.5 221.605469 L 128.636719 198.746094 C 122.457031 191.949219 122.457031 182.066406 128.636719 175.886719 C 135.433594 169.707031 145.320312 169.707031 151.5 175.886719 L 171.273438 195.65625 L 223.792969 143.140625 C 226.882812 140.054688 230.589844 138.199219 234.917969 138.199219 C 239.242188 138.199219 243.566406 140.054688 246.65625 143.140625 C 249.746094 146.230469 250.980469 149.9375 250.980469 154.261719 C 250.980469 158.589844 249.746094 162.914062 246.65625 166 L 174.363281 237.671875 C 174.363281 238.289062 173.742188 238.289062 173.742188 238.289062 C 173.125 238.90625 172.507812 238.90625 171.890625 238.90625 C 171.890625 238.90625 171.890625 238.90625 171.273438 238.90625 Z M 140.375 180.210938 C 138.523438 180.210938 136.667969 180.828125 135.433594 182.066406 C 132.960938 184.535156 132.960938 189.480469 135.433594 191.949219 L 171.273438 227.785156 L 240.476562 159.207031 C 241.714844 157.96875 242.332031 156.117188 242.332031 154.261719 C 242.332031 152.410156 241.714844 150.554688 240.476562 149.320312 C 237.386719 146.847656 233.0625 146.847656 229.972656 149.320312 L 174.363281 204.925781 C 173.125 206.777344 170.035156 206.777344 168.183594 204.925781 C 168.183594 204.925781 167.566406 204.308594 167.566406 204.308594 L 145.320312 182.066406 C 144.085938 180.828125 142.230469 180.210938 140.375 180.210938 Z M 187.957031 282.15625 C 136.050781 282.15625 94.652344 240.140625 94.652344 188.863281 C 94.652344 136.964844 136.050781 95.570312 187.957031 95.570312 C 239.242188 95.570312 281.257812 136.964844 281.257812 188.863281 C 281.257812 240.140625 239.242188 282.15625 187.957031 282.15625 Z M 187.957031 104.21875 C 140.996094 104.21875 103.300781 141.90625 103.300781 188.863281 C 103.300781 235.199219 140.996094 272.886719 187.957031 272.886719 C 234.296875 272.886719 271.992188 235.199219 271.992188 188.863281 C 271.992188 141.90625 234.296875 104.21875 187.957031 104.21875 Z M 187.957031 104.21875 " fill-opacity="1" fill-rule="evenodd"/></g></svg>