<svg xmlns="http://www.w3.org/2000/svg" xmlns:xlink="http://www.w3.org/1999/xlink" width="500" zoomAndPan="magnify" viewBox="0 0 375 374.999991" height="500" preserveAspectRatio="xMidYMid meet" version="1.0"><path fill="#314030" d="M 356.058594 176.363281 L 352.082031 165.160156 C 349.914062 159.015625 343.042969 153.957031 336.898438 153.957031 L 322.804688 153.957031 C 312.320312 124.683594 299.667969 89.265625 295.691406 80.953125 C 289.910156 67.941406 271.476562 62.160156 261.355469 59.269531 C 261.355469 59.269531 244.363281 52.765625 187.613281 52.765625 C 130.863281 52.765625 114.238281 59.269531 114.238281 59.269531 C 102.308594 63.246094 85.683594 69.027344 79.175781 81.316406 C 75.921875 87.457031 62.910156 123.597656 52.425781 153.957031 L 38.691406 153.957031 C 32.546875 153.957031 25.679688 159.015625 23.511719 165.160156 L 19.535156 176.363281 C 17.363281 182.507812 20.617188 187.566406 26.761719 187.566406 L 40.859375 187.566406 C 39.054688 192.625 37.96875 195.519531 37.96875 195.519531 C 36.882812 197.324219 36.160156 205.636719 36.160156 208.167969 L 36.160156 310.445312 C 36.160156 316.949219 41.582031 322.371094 48.089844 322.371094 L 91.464844 322.371094 C 97.972656 322.371094 103.394531 316.949219 103.394531 310.445312 L 103.394531 288.761719 L 272.199219 288.761719 L 272.199219 310.445312 C 272.199219 316.949219 277.621094 322.371094 284.125 322.371094 L 327.863281 322.371094 C 334.371094 322.371094 339.792969 316.949219 339.792969 310.445312 L 339.792969 208.167969 C 339.792969 206 339.070312 197.324219 337.984375 195.519531 C 337.984375 195.519531 336.898438 192.625 335.09375 187.566406 L 348.828125 187.566406 C 354.613281 187.566406 357.863281 182.507812 356.058594 176.363281 Z M 103.394531 239.246094 L 88.933594 229.488281 C 62.1875 227.320312 58.933594 236.71875 53.148438 226.597656 L 53.148438 214.3125 C 53.148438 202.386719 60.019531 202.023438 67.609375 202.023438 C 74.835938 202.023438 89.296875 208.167969 99.054688 212.503906 C 109.539062 217.203125 117.128906 213.226562 121.105469 228.765625 C 120.742188 235.996094 116.769531 239.246094 103.394531 239.246094 Z M 78.089844 158.65625 C 87.128906 121.792969 102.308594 96.132812 104.476562 89.988281 C 105.921875 85.652344 102.308594 77.699219 187.976562 77.699219 C 273.644531 77.699219 268.945312 89.265625 269.304688 89.628906 C 273.28125 97.9375 289.1875 125.042969 297.5 158.65625 C 297.5 158.65625 265.328125 162.992188 191.953125 162.992188 C 118.574219 162.992188 78.089844 158.65625 78.089844 158.65625 Z M 254.847656 228.765625 C 271.835938 207.804688 266.414062 217.203125 276.898438 212.503906 C 286.292969 208.167969 301.113281 202.023438 308.34375 202.023438 C 315.933594 202.023438 322.804688 202.386719 322.804688 214.3125 L 322.804688 226.597656 C 317.378906 236.355469 312.683594 227.683594 285.570312 230.210938 L 272.199219 238.886719 C 258.824219 239.246094 250.148438 234.1875 254.847656 228.765625 Z M 254.847656 228.765625 " fill-opacity="1" fill-rule="nonzero"/></svg>