<svg xmlns="http://www.w3.org/2000/svg" xmlns:xlink="http://www.w3.org/1999/xlink" width="500" zoomAndPan="magnify" viewBox="0 0 375 374.999991" height="500" preserveAspectRatio="xMidYMid meet" version="1.0"><path fill="#314030" d="M 335.535156 88.707031 L 302.542969 122.875 C 297.832031 127.585938 290.761719 127.585938 286.050781 122.875 L 251.882812 88.707031 C 247.171875 83.992188 247.171875 76.925781 251.882812 72.210938 L 286.050781 38.046875 C 262.488281 29.796875 224.785156 47.46875 208.289062 62.785156 C 184.726562 86.351562 197.6875 119.339844 224.785156 147.613281 C 251.882812 175.890625 286.050781 187.671875 309.613281 164.109375 C 326.109375 148.792969 343.78125 111.09375 335.535156 88.707031 Z M 335.535156 88.707031 " fill-opacity="1" fill-rule="nonzero"/><path fill="#314030" d="M 90.472656 224.195312 C 57.484375 224.195312 31.566406 250.117188 31.566406 283.105469 C 31.566406 316.09375 57.484375 342.011719 90.472656 342.011719 C 123.460938 342.011719 149.382812 316.09375 149.382812 283.105469 C 149.382812 250.117188 123.460938 224.195312 90.472656 224.195312 Z M 112.859375 305.488281 L 82.226562 313.738281 L 59.839844 291.351562 L 68.089844 260.71875 L 98.722656 252.472656 L 121.105469 274.859375 Z M 112.859375 305.488281 " fill-opacity="1" fill-rule="nonzero"/><path fill="#314030" d="M 200.042969 171.179688 C 209.46875 162.929688 223.605469 162.929688 233.03125 171.179688 L 237.746094 175.890625 C 237.746094 175.890625 237.746094 175.890625 238.921875 177.070312 L 276.625 139.367188 L 235.390625 98.132812 L 182.371094 151.148438 Z M 200.042969 171.179688 " fill-opacity="1" fill-rule="nonzero"/><path fill="#314030" d="M 171.769531 240.691406 L 168.234375 235.976562 C 158.808594 226.550781 158.808594 212.414062 167.054688 202.988281 L 147.027344 182.960938 L 94.007812 235.976562 L 135.246094 277.214844 L 171.769531 240.691406 C 172.945312 240.691406 172.945312 240.691406 171.769531 240.691406 Z M 171.769531 240.691406 " fill-opacity="1" fill-rule="nonzero"/><path fill="#314030" d="M 203.578125 192.386719 L 91.652344 80.460938 L 94.007812 62.785156 L 46.882812 35.6875 L 31.566406 51.003906 L 58.664062 98.132812 L 76.335938 95.777344 L 188.261719 207.703125 Z M 203.578125 192.386719 " fill-opacity="1" fill-rule="nonzero"/><path fill="#314030" d="M 328.464844 284.28125 L 264.84375 220.660156 C 258.953125 214.769531 250.707031 212.414062 243.636719 214.769531 L 228.320312 200.632812 C 231.855469 195.921875 231.855469 188.851562 228.320312 185.316406 L 223.605469 180.605469 C 218.894531 175.890625 211.824219 175.890625 207.113281 180.605469 L 175.300781 212.414062 C 170.589844 217.128906 170.589844 224.195312 175.300781 228.910156 L 180.015625 233.621094 C 184.726562 238.335938 191.796875 238.335938 195.332031 233.621094 L 209.46875 247.757812 C 208.289062 254.828125 209.46875 263.074219 215.359375 268.964844 L 278.980469 332.589844 C 291.941406 345.546875 313.148438 345.546875 326.109375 332.589844 C 341.425781 318.449219 341.425781 297.242188 328.464844 284.28125 Z M 311.96875 316.09375 C 309.613281 318.449219 306.078125 318.449219 303.722656 316.09375 L 234.210938 246.582031 C 231.855469 244.226562 231.855469 240.691406 234.210938 238.335938 C 236.566406 235.976562 240.101562 235.976562 242.457031 238.335938 L 311.96875 307.847656 C 314.328125 310.203125 314.328125 313.738281 311.96875 316.09375 Z M 311.96875 316.09375 " fill-opacity="1" fill-rule="nonzero"/></svg>